<svg xmlns="http://www.w3.org/2000/svg" viewBox="0 0 67.365 84.192">
  <title>Batteria</title>
  <g>
    <path d="M63.116,75.8c-1.17.019-1.338-.393-1.329-1.422q.042-19.6-.009-39.2c0-1.132.2-1.572,1.469-1.553a4.062,4.062,0,0,0,4.117-4.2,4.192,4.192,0,0,0-4.2-4.164c-1.4-.028-2.808-.019-4.211,0-.777.009-1.516.1-1.366-1.095.1-.861-.3-1.816,1.263-1.778a2.679,2.679,0,0,0,2.77-3.491c-.234-.992-1.076-1.45-1.628-2.161,2.358-1.7,2.367-3.051.065-5.578,2.293-2.049,2.274-3.5-.093-5.558-.73-.627-1.46-1.254-2.2-1.872-.439-.365-.907-.842-1.469-.8-1.226.074-1.74-.309-1.591-1.61A1.232,1.232,0,0,0,53.59.035C53.028-.1,52.261.148,52.261.6c-.019,1.984-1.535,2.143-2.835,2.835A18.125,18.125,0,0,0,45.8,6.445a2.724,2.724,0,0,0,.2,4.155c.225.187.58.244.655.59-2.33,2.274-2.311,3.9.122,5.549-.328.3-.664.58-.964.889a2.709,2.709,0,0,0-.674,3.023,2.571,2.571,0,0,0,2.4,1.749,6.53,6.53,0,0,1,1.048.047c1.142.29.468,1.217.6,1.844.1.486.056.964-.683.964-3.294-.019-6.579-.01-9.863-.01-.375,0-.637-.037-.73-.524-.309-1.581.065-2.161,1.609-2.321a2.667,2.667,0,0,0,2.387-1.759,2.59,2.59,0,0,0-.571-2.9,12.343,12.343,0,0,0-1.086-.973c2.517-1.731,2.527-3.2.141-5.587,2.414-2.142,2.358-3.537-.2-5.689-.739-.627-1.469-1.254-2.208-1.872a2.13,2.13,0,0,0-1.5-.73c-1.235.15-1.516-.43-1.431-1.515A1.226,1.226,0,0,0,34,.045C33.4-.1,32.572.129,32.591.662c.047,1.947-1.217,2.312-2.677,2.592A.521.521,0,0,0,29.7,3.4c-1.179.982-2.386,1.927-3.509,2.976a2.645,2.645,0,0,0-.683,3.106c.3.786,1,1.151,1.535,1.685-2.405,2.386-2.4,3.827.056,5.6-.356.337-.739.636-1.048.992a2.55,2.55,0,0,0-.59,2.779,2.663,2.663,0,0,0,2.312,1.853c1.843.225,1.852.272,1.731,2.087-.038.552-.187.777-.758.777-3.247-.019-6.5-.01-9.732-.01-.347,0-.674.038-.815-.449-.4-1.422.122-2.283,1.554-2.377a2.653,2.653,0,0,0,2.517-1.787,2.746,2.746,0,0,0-.692-3.023c-.3-.309-.627-.58-.945-.879,2.414-1.619,2.423-3.238.112-5.568,2.377-2.106,2.349-3.556-.14-5.634-.8-.673-1.61-1.347-2.424-2.012a1.966,1.966,0,0,0-1.395-.636C15.737,3,15.4,2.571,15.475,1.551A1.392,1.392,0,0,0,14.287.035c-.618-.131-1.413.178-1.376.693.113,1.937-1.169,2.208-2.564,2.48a1.154,1.154,0,0,0-.43.29c-1.142.954-2.312,1.89-3.406,2.9A2.8,2.8,0,0,0,6,9.767c.327.6.945.9,1.376,1.385-2.34,2.443-2.34,3.79.046,5.615l-.767.711a2.714,2.714,0,0,0-.786,3.21A2.407,2.407,0,0,0,8.41,22.382c1.722-.169,1.32.964,1.395,1.918.1,1.329-.861.917-1.507.936-1.263.037-2.536.009-3.809.009A4.237,4.237,0,0,0,.026,29.419a4.144,4.144,0,0,0,4.388,4.22c.88,0,1.2.187,1.2,1.142Q5.557,54.713,5.6,74.645c.009.955-.309,1.17-1.2,1.142a3.976,3.976,0,0,0-3.743,2,3.965,3.965,0,0,0-.093,4.239,4.166,4.166,0,0,0,3.92,2.162q14.417-.013,28.813,0,14.865,0,29.73-.009a4.2,4.2,0,0,0,4.332-4.164A4.13,4.13,0,0,0,63.116,75.8ZM58.746,8.383H48.1C50.389,5.051,54.937,3.863,58.746,8.383ZM47.891,14.035c3.238-3.94,7.673-3.828,10.621-.319A74.333,74.333,0,0,1,47.891,14.035Zm.262,5.568a6.142,6.142,0,0,1,10.443,0ZM54.8,23.842c-.009,1.151-.271,1.656-1.46,1.375-1.151.262-1.488-.187-1.5-1.366s.355-1.46,1.488-1.469C54.488,22.372,54.8,22.681,54.8,23.842ZM39.113,8.4H28.445C30.691,5.06,35.286,3.835,39.113,8.4Zm-.121,5.531c-3.6.14-7.075-.094-10.734.28C30.766,10.5,35.754,9.842,38.992,13.932ZM28.333,19.565c3.135-3.855,7.7-3.78,10.668,0Zm6.784,4.323c.057,1.236-.411,1.554-1.506,1.329-1.395.375-1.254-.552-1.32-1.469-.093-1.151.393-1.319,1.413-1.366C34.94,22.335,35.08,22.831,35.117,23.888ZM19.349,8.364H8.869C11.105,4.78,16.149,4.078,19.349,8.364Zm-.028,5.6c-3.64.056-7.111-.084-10.705.215C11.124,10.479,16.252,9.833,19.321,13.969ZM8.747,19.659C11,16.2,16.028,15.307,19.368,19.593c-.318.028-.477.066-.636.066Zm6.8,4.22c.01,1.217-.412,1.582-1.534,1.338-1.236.318-1.376-.309-1.413-1.394-.047-1.207.374-1.423,1.478-1.441C15.26,22.372,15.532,22.737,15.55,23.879Zm-10.4,6.962a6.174,6.174,0,0,1-1.179-.047,1.236,1.236,0,0,1-1.1-1.385,1.19,1.19,0,0,1,1.095-1.263,10.347,10.347,0,0,1,1.32-.037q14.205-.015,28.41,0h28.41a10.232,10.232,0,0,1,1.31.037,1.19,1.19,0,0,1,1.1,1.254,1.244,1.244,0,0,1-1.1,1.394,6.174,6.174,0,0,1-1.179.047Zm9.863,44.918c-1.844.018-3.687-.028-5.521.018-.777.019-1.067-.168-1.067-1.01q.028-20.058,0-40.108c-.009-.851.29-1.1,1.057-.992.085.01.178-.009.262,0,.918.028,2.041-.252,2.677.187s.159,1.629.224,2.49.431,1.459,1.31,1.516c.964.065,1.395-.581,1.535-1.46.01-.084,0-.169.01-.262.149-2.471.149-2.471,2.582-2.471,4.3,0,8.591.038,12.886-.028,1.114-.018,1.488.318,1.357,1.4a6.088,6.088,0,0,0,.047,1.7,1.244,1.244,0,0,0,1.254,1.123,1.293,1.293,0,0,0,1.394-1.123,4.989,4.989,0,0,0,.056-.917c.028-2.162.028-2.162,2.255-2.162,4.473,0,8.946.028,13.419-.028.936-.009,1.245.281,1.151,1.189a6.513,6.513,0,0,0,.019,1.7,1.384,1.384,0,0,0,1.507,1.338,1.367,1.367,0,0,0,1.3-1.394c.01-.047,0-.094.01-.131.093-.861-.4-2.2.206-2.48.954-.431,2.218-.15,3.35-.2.543-.028.683.253.655.721-.019.262,0,.533,0,.8,0,13.017-.028,26.043.028,39.06.009,1.319-.384,1.553-1.61,1.553C46.1,75.749,15.419,75.759,15.017,75.759Zm48.4,5.549a8.256,8.256,0,0,1-1.179.028H5.425c-.4,0-.795,0-1.188-.009a1.231,1.231,0,0,1-1.357-1.4A1.193,1.193,0,0,1,4.227,78.65c1.844-.009,3.678-.009,5.521-.009H62.105a12.133,12.133,0,0,1,1.31.028,1.163,1.163,0,0,1,1.1,1.245A1.227,1.227,0,0,1,63.415,81.308Z"/>
    <path d="M33.651,72.943c-4.644,0-9.288-.025-13.931.012a5.123,5.123,0,0,1-4.992-2.743,5.355,5.355,0,0,1,.411-5.818q6.919-10.365,13.82-20.745c2.654-3.973,6.809-3.99,9.452-.034q6.924,10.362,13.815,20.747a5.4,5.4,0,0,1,.456,5.818c-1.054,2.045-2.848,2.8-5.1,2.776C42.938,72.913,38.294,72.943,33.651,72.943ZM33.564,70.2H47.376A2.859,2.859,0,0,0,50.2,68.911c.66-1.164.256-2.156-.418-3.165Q42.849,55.374,35.949,44.981C34.629,43,32.775,43,31.457,44.976Q24.569,55.3,17.7,65.631c-.687,1.029-1.213,2.039-.5,3.271.67,1.158,1.769,1.3,2.95,1.3Q26.856,70.2,33.564,70.2Z"/>
    <path d="M34.035,60.287c-1.543,0-2.838.012-4.133,0-1.7-.019-2.24-.988-1.36-2.486,1.241-2.111,2.522-4.2,3.769-6.306.487-.822,1.137-1.291,2.05-.785,1.011.56.826,1.436.344,2.266-.724,1.247-1.457,2.493-2.241,3.7-.508.785-.252.948.556.923,1.138-.034,2.28-.039,3.418.006,1.253.05,1.841.986,1.225,2.065-1.32,2.317-2.715,4.592-4.1,6.87a1.4,1.4,0,1,1-2.389-1.45C32.089,63.57,32.991,62.04,34.035,60.287Z"/>
  </g>
</svg>
