<svg xmlns="http://www.w3.org/2000/svg" viewBox="0 0 89.966 89.966">
  <defs>
    <style>
      .a {
        fill: #fff;
      }
    </style>
  </defs>
  <title>benzinaio</title>
  <g>
    <rect class="a" width="89.966" height="89.966"/>
    <g>
      <path d="M81.306,53.613a5.75,5.75,0,0,1,3.72-3.524c.471-.123.525-.408.342-.861a4.061,4.061,0,0,0-1.536-1.788,1.154,1.154,0,0,1-.372-1.719,1.176,1.176,0,0,1,1.834-.233,5.567,5.567,0,0,1,2.713,4.689c.048,6.449.036,12.9.006,19.349A3.548,3.548,0,0,1,82.1,72.151c-.2-.167-.4-.343-.793-.688,0,.8.033,1.353-.009,1.9-.056.747.144,1.18,1,1.088,1.309-.14,1.779.579,1.75,1.775,0,.142,0,.283,0,.424.015,2.528.014,2.551,2.5,2.648,1.044.041,1.558.463,1.543,1.543q-.039,2.824,0,5.649c.016,1.055-.414,1.6-1.5,1.555-.282-.011-.565,0-.848,0H5.1c-2.374,0-2.389-.015-2.391-2.351,0-1.553.036-3.108-.011-4.66-.037-1.179.416-1.73,1.638-1.739,1.806-.012,1.8-.054,1.806-1.916q0-.706,0-1.412c0-.952.418-1.605,1.427-1.494,1.222.133,1.362-.455,1.359-1.475-.029-9.886-.018-19.773-.017-29.66,0-2.037.132-2.168,2.169-2.169q10.38,0,20.762,0c1.8,0,2.006.215,2.009,2.049,0,3.621,0,7.243.063,10.9a5.293,5.293,0,0,1,3.7-4.039c.481-.132.5-.479.312-.893a3.87,3.87,0,0,0-1.339-1.6c-.677-.474-1.15-1.069-.536-1.88.645-.853,1.362-.558,2.073-.022a5.559,5.559,0,0,1,2.439,4.549q.042,9.6.006,19.208a3.4,3.4,0,0,1-2.159,3.336c-1.713.745-3.1.13-4.375-1.238a4.74,4.74,0,0,0-.186,1.829c-.08.746.14,1.175.995,1.089,1.383-.139,1.792.62,1.8,1.882.013,2.977.044,2.9,3.006,3.008,1.4.05,1.8-.29,1.8-1.757q-.095-21.821-.005-43.642c.005-1.34-.4-1.606-1.651-1.6-10.546.047-21.092.027-31.638.026-2.006,0-2.258-.257-2.263-2.279q-.006-2.4,0-4.8c.006-2,.243-2.227,2.3-2.227H52.246q15.255,0,30.508,0c1.855,0,2.139.276,2.147,2.092q.014,2.541,0,5.084c-.009,1.824-.313,2.131-2.129,2.131-10.546,0-21.092.029-31.637-.032-1.4-.008-1.8.293-1.79,1.755q.095,21.822.015,43.643c0,1.156.155,1.668,1.506,1.612,2.72-.114,2.724-.025,2.732-2.743.005-1.928.01-1.966,1.9-2.142.6-.055.855-.258.832-.847-.015-.376,0-.753,0-1.13q0-14.406,0-28.813c0-2.46.047-2.5,2.563-2.5q10.1,0,20.2,0c2.03,0,2.212.177,2.214,2.149Q81.311,48.463,81.306,53.613ZM31.5,58.938c0-4.661-.034-9.322.026-13.982.014-1.082-.319-1.335-1.357-1.327q-8.827.074-17.654.005c-.954-.007-1.294.221-1.29,1.24q.054,14.124,0,28.247c0,.987.294,1.289,1.277,1.283q8.827-.057,17.654,0c1.035.008,1.381-.268,1.368-1.345C31.472,68.354,31.5,63.645,31.5,58.938Zm27.2.145c0,4.657.032,9.315-.024,13.972-.013,1.066.311,1.36,1.356,1.352q8.82-.066,17.641,0c1.012.007,1.27-.343,1.267-1.306q-.043-14.109,0-28.217c0-1.01-.329-1.255-1.289-1.249q-8.82.058-17.641-.005c-1.062-.009-1.35.286-1.337,1.341C58.739,49.673,58.707,54.378,58.707,59.083ZM45.343,29.874H79.782c2.623,0,2.537,0,2.655-2.673.061-1.386-.359-1.69-1.7-1.688q-34.793.066-69.586.032c-2.769,0-2.693,0-2.794,2.821-.046,1.277.344,1.541,1.563,1.536C21.724,29.855,33.533,29.874,45.343,29.874Zm.047,51.914q-19.416,0-38.833.008c-.453,0-1.143-.233-1.317.193a5.658,5.658,0,0,0-.09,3.185c.132.691.971.363,1.485.364q38.763.024,77.525.014a3.748,3.748,0,0,1,.424,0c.817.1,1.264-.175,1.151-1.081a3.472,3.472,0,0,1,0-.987c.219-1.332-.255-1.737-1.655-1.731C71.185,81.812,58.287,81.788,45.39,81.788Zm1.65-25.8c0-7.43-.039-14.86.034-22.289.013-1.385-.65-1.359-1.622-1.331-.951.026-1.748-.178-1.741,1.355q.1,22.078.009,44.156c-.006,1.453.665,1.415,1.692,1.426,1.06.011,1.685-.017,1.668-1.451C46.993,70.561,47.04,63.272,47.04,55.983ZM21.533,76.857v.026c-3.9,0-7.8.026-11.693-.022-.778-.01-1.262-.015-1.211.969.042.785-.082,1.445,1.115,1.411,2.862-.081,5.728-.026,8.593-.026,4.931,0,9.863-.029,14.794.02,1.174.012.932-.7.985-1.38.061-.791-.2-1.032-1.033-1.021C29.233,76.886,25.383,76.857,21.533,76.857Zm47.321-.007v.015c-3.906,0-7.812.028-11.717-.023-.806-.01-1.129.178-1.067,1,.051.681-.184,1.4.987,1.4q11.792-.056,23.582-.005c1.231,0,.833-.826.909-1.452.091-.754-.245-.949-.977-.942C76.665,76.868,72.76,76.85,68.854,76.85ZM33.849,58.191q0,3.165,0,6.328c0,.414-.095.888.358,1.136,1.441.786,1.718,2.1,1.721,3.581,0,.7.23,1.331,1.114,1.316s1.05-.585,1.046-1.334c-.014-2.72-.025-5.44.009-8.159.009-.748-.154-1.126-1-1.064A3.116,3.116,0,0,1,33.849,58.191Zm47.457-.226c0,2.51,0,4.525,0,6.54,0,.412-.105.891.339,1.145a3.524,3.524,0,0,1,1.69,3.588c-.029.717.274,1.314,1.128,1.312s1.084-.562,1.081-1.318c-.009-2.765-.013-5.531.006-8.3,0-.605-.1-.991-.832-.934A3.186,3.186,0,0,1,81.306,57.965Zm4.235-5.477c-2.034,1.067-1.62,2.756-1.692,4.277-.03.642.292.768.851.777s.861-.142.849-.77C85.523,55.424,85.541,54.076,85.541,52.488Zm-47.463.139c-1.356.7-2.242,3.668-1.515,4.676.274.38.682.186,1.034.214s.479-.217.48-.532C38.08,55.557,38.078,54.128,38.078,52.627Z"/>
      <path d="M21.263,56.938c-2.3,0-4.606-.025-6.909.011-1.224.019-1.816-.432-1.795-1.732q.069-4.3,0-8.6c-.02-1.248.45-1.8,1.73-1.791q7.05.047,14.1,0c1.22-.007,1.813.407,1.787,1.724-.057,2.866-.065,5.735,0,8.6.033,1.39-.59,1.821-1.866,1.8C25.963,56.91,23.613,56.939,21.263,56.938Zm.141-2.511c1.784,0,3.569-.032,5.351.015.783.02,1.086-.215,1.062-1.028q-.073-2.534,0-5.069c.025-.821-.292-1.036-1.068-1.029q-5.421.046-10.844,0c-.717-.005-1,.215-.984.962q.06,2.6,0,5.21c-.019.759.284.961.992.948C17.742,54.4,19.573,54.427,21.4,54.427Z"/>
      <path d="M21.393,70.293a3.155,3.155,0,0,1-3.143-3.969,12.213,12.213,0,0,1,2.074-4.114,1.194,1.194,0,0,1,2.047-.043,10.482,10.482,0,0,1,2.179,4.508A3.119,3.119,0,0,1,21.393,70.293Zm-.056-5.241c-.339,1.142-1.252,1.761-.43,2.636a.6.6,0,0,0,.973-.044C22.588,66.756,21.765,66.165,21.337,65.052Z"/>
      <path d="M68.738,56.938c-2.306,0-4.611-.035-6.916.014-1.317.028-1.9-.524-1.891-1.835q.036-4.235,0-8.468c-.01-1.311.572-1.839,1.893-1.827q6.985.061,13.972,0c1.3-.009,1.88.458,1.849,1.825q-.1,4.231,0,8.467c.032,1.37-.565,1.849-1.852,1.83C73.442,56.914,71.09,56.938,68.738,56.938Zm.009-2.51c1.788,0,3.578-.055,5.362.021.964.041,1.208-.316,1.176-1.21q-.085-2.4,0-4.8c.029-.856-.249-1.139-1.119-1.129q-5.363.063-10.726,0c-.9-.012-1.118.312-1.09,1.145.054,1.645.051,3.294,0,4.939-.025.793.223,1.072,1.033,1.048C65.17,54.392,66.959,54.427,68.747,54.428Z"/>
      <path d="M68.869,70.292a3.179,3.179,0,0,1-3.141-4.185,13.717,13.717,0,0,1,1.931-3.73,1.283,1.283,0,0,1,2.288-.024,13.773,13.773,0,0,1,1.91,3.585A3.223,3.223,0,0,1,68.869,70.292Zm-.121-4.828c-.193.755-1.279,1.345-.4,2.233a.615.615,0,0,0,.981-.055C70.06,66.741,69.186,66.168,68.748,65.464Z"/>
    </g>
  </g>
</svg>
