<svg xmlns="http://www.w3.org/2000/svg" viewBox="0 0 59.674 49.424">
  <title>Risorsa 12</title>
  <path d="M58.756,47.54c-.283-.152-.715-.028-1.161-.028C56.764,34.7,55.936,22,55.1,9.187c1.133,0,2.154.012,3.175-.006,1.245-.022,1.637-.551,1.258-1.712-.536-1.653-1.1-3.293-1.656-4.94-.5-1.5-.536-1.522-2.1-1.525-.6,0-1.236.143-1.525-.676-.063-.177-.533-.3-.816-.3C50.791,0,48.146,0,45.5.03a1.192,1.192,0,0,0-.928.442c-.252.582-.666.529-1.126.529-2.8,0-5.6,0-8.4,0Q25.61,1,16.182.988a2.412,2.412,0,0,1-.927-.336c-.414-.2-.813-.607-1.223-.616C11.482-.02,8.93,0,6.378.02c-.293,0-.766.059-.85.237C5.052,1.281,4.168.991,3.383,1A1.325,1.325,0,0,0,1.955,2.05C1.4,3.827.769,5.576.181,7.341c-.439,1.314-.05,1.83,1.382,1.843.986.009,1.973,0,3.022,0C3.751,22.023,2.923,34.729,2.092,47.459c-.33.022-.545.05-.76.041-.691-.022-1.323.143-1.332.946-.009.881.682.977,1.388.974,1.37-.009,2.739.006,4.109,0,1.229,0,1.435-.146,1.7-1.372C8.473,42.14,9.727,36.226,11,30.315q1.759-8.189,3.554-16.366a.932.932,0,0,1,.617-.607c1.077-.062,2.163-.028,3.427-.028,0,.918-.047,1.7.009,2.468A2.584,2.584,0,0,0,20,17.967a1.111,1.111,0,0,1,.66,1.177c-.025,2.518.01,5.039-.031,7.561a2.277,2.277,0,0,1-.429,1.254C19.17,29.325,18.056,30.626,17.029,32a2.479,2.479,0,0,0-.514,1.335c-.049,2.521-.04,5.043-.018,7.561.009,1,.364,1.338,1.376,1.344q3.689.024,7.376,0c1.112-.006,1.41-.336,1.414-1.475.006-2.428.031-4.856-.022-7.283a2.847,2.847,0,0,0-.526-1.516c-1-1.348-2.1-2.621-3.116-3.956a2.126,2.126,0,0,1-.426-1.165q-.057-3.916,0-7.84a1.326,1.326,0,0,1,.5-.937,3.2,3.2,0,0,0,1.544-2.8c0-.639,0-1.274,0-1.946,6.726,0,13.29-.006,19.858.028.227,0,.591.389.66.657.336,1.32.594,2.661.884,3.993q2.091,9.689,4.183,19.373c.8,3.667,1.578,7.333,2.425,10.988.09.392.551.977.868.993a51.527,51.527,0,0,0,5.317.012c.311-.016.871-.616.831-.859A1.739,1.739,0,0,0,58.756,47.54ZM2.328,7.129c.42-1.3.766-2.577,1.276-3.781.119-.277.8-.318,1.392-.526-.1,1.627-.19,2.944-.277,4.307Zm3,40.321H4.037c.156-2.406.308-4.772.467-7.218H6.885C6.35,42.694,5.842,45.047,5.323,47.45Zm6.854-31.7C10.645,22.87,9.1,29.982,7.592,37.1c-.181.865-.511,1.226-1.4,1.095a11.2,11.2,0,0,0-1.556-.015c.588-9.014,1.17-17.923,1.755-26.909h6.742C12.805,12.81,12.494,14.282,12.177,15.754Zm1.157-6.533h-6.8c.153-2.421.3-4.793.464-7.265h6.337Zm2.052-6.182H44.3V7.1H15.386Zm9.347,31.332c.031,1.917.018,3.838.018,5.811H18.523V33.913c1.93,0,3.85-.009,5.771.022A.627.627,0,0,1,24.733,34.371Zm-1.111-2.45H19.538l2.042-2.558C22.255,30.209,22.89,31.006,23.622,31.921ZM22.545,15.68a1.321,1.321,0,0,1-1.043.744,1.409,1.409,0,0,1-.949-.9,9.908,9.908,0,0,1-.044-2.163h2.222A11.546,11.546,0,0,1,22.545,15.68ZM15.2,11.285c.053-.654.1-1.289.159-2.011H44.311c.059.663.115,1.3.18,2.011ZM56.332,3.892C56.606,4.96,57,6,57.362,7.129H54.984c-.093-1.322-.187-2.673-.283-4.018C55.572,2.812,56.092,2.971,56.332,3.892ZM46.353,1.966h6.328c.162,2.412.32,4.79.482,7.243h-6.81Zm5.873,35.483c-1-4.476-1.97-8.955-2.941-13.437Q48,18.065,46.72,12.113c-.053-.24-.081-.486-.131-.806H53.3c.582,8.9,1.164,17.813,1.755,26.883a17.376,17.376,0,0,1-2.222-.034C52.6,38.121,52.289,37.726,52.226,37.449Zm2.139,9.985c-.514-2.368-1.028-4.743-1.56-7.208h2.369c.159,2.4.317,4.765.479,7.208Z"/>
</svg>
