<svg xmlns="http://www.w3.org/2000/svg" viewBox="0 0 104.95 57.922">
  <defs>
    <style>
      .a {
        fill: #231f20;
      }
    </style>
  </defs>
  <title>grudoppia</title>
  <path class="a" d="M103.87,55.719c-.33-.18-.83-.04-1.36-.04-.97-15.01-1.94-29.9-2.92-44.91,1.33,0,2.53.01,3.72-.01,1.46-.02,1.92-.64,1.48-2-.63-1.94-1.29-3.86-1.94-5.79-.6-1.77-.63-1.79-2.47-1.79-.7,0-1.44.17-1.78-.79-.08-.21-.63-.36-.96-.36q-4.65-.045-9.3.01a1.366,1.366,0,0,0-1.09.52c-.29.68-.78.62-1.32.62,0,0-62.84,0-66.97-.02a2.882,2.882,0,0,1-1.08-.39c-.49-.23-.96-.71-1.44-.73C13.45-.021,10.46,0,7.47.029c-.34,0-.9.07-.99.27-.56,1.2-1.6.86-2.52.87A1.564,1.564,0,0,0,2.29,2.4C1.64,4.489.9,6.539.21,8.609c-.52,1.54-.06,2.14,1.62,2.16,1.15.01,2.31,0,3.54,0-.98,15.04-1.95,29.93-2.92,44.85a8.144,8.144,0,0,1-.89.05c-.81-.03-1.55.17-1.56,1.11-.01,1.03.8,1.14,1.62,1.14,1.61-.01,3.21.01,4.82,0,1.44,0,1.68-.17,1.99-1.61q2.25-10.38,4.45-20.78,2.07-9.6,4.17-19.18c.07-.29.46-.7.72-.71.38-.02.76-.03,1.15-.03.9-.02,1.83,0,2.87,0,0,1.07-.06,1.98.01,2.89a3.021,3.021,0,0,0,1.63,2.56,1.319,1.319,0,0,1,.78,1.38c-.03,2.95.01,5.9-.04,8.86a2.7,2.7,0,0,1-.5,1.47c-1.21,1.6-2.51,3.12-3.72,4.73a2.955,2.955,0,0,0-.6,1.56c-.06,2.96-.05,5.91-.02,8.86.01,1.18.43,1.57,1.61,1.58,2.88.02,5.77.02,8.65,0,1.3-.01,1.65-.39,1.65-1.73.01-2.84.04-5.69-.02-8.53a3.352,3.352,0,0,0-.62-1.78c-1.17-1.58-2.46-3.07-3.65-4.64a2.514,2.514,0,0,1-.5-1.36c-.04-3.06-.04-6.13,0-9.19a1.571,1.571,0,0,1,.59-1.1,3.739,3.739,0,0,0,1.81-3.28v-2.28H40.92c.9-.02,1.83,0,2.87,0,0,1.07-.06,1.98.01,2.89a3.021,3.021,0,0,0,1.63,2.56,1.319,1.319,0,0,1,.78,1.38c-.03,2.95.01,5.9-.04,8.86a2.7,2.7,0,0,1-.5,1.47c-1.21,1.6-2.51,3.12-3.72,4.73a2.955,2.955,0,0,0-.6,1.56c-.06,2.96-.05,5.91-.02,8.86.01,1.18.43,1.57,1.61,1.58,2.88.02,5.77.02,8.65,0,1.3-.01,1.65-.39,1.65-1.73.01-2.84.04-5.69-.02-8.53a3.352,3.352,0,0,0-.62-1.78c-1.17-1.58-2.46-3.07-3.65-4.64a2.514,2.514,0,0,1-.5-1.36c-.04-3.06-.04-6.13,0-9.19a1.571,1.571,0,0,1,.59-1.1,3.739,3.739,0,0,0,1.81-3.28v-2.27c15.75.01,35.26.01,36.29.02.27,0,.7.45.78.77.39,1.55.69,3.12,1.03,4.68q2.46,11.355,4.9,22.7c.94,4.3,1.85,8.6,2.85,12.88.1.46.64,1.14,1.01,1.16a58.858,58.858,0,0,0,6.23.02c.37-.02,1.03-.73.98-1.01A2.034,2.034,0,0,0,103.87,55.719ZM2.73,8.359c.49-1.53.89-3.02,1.49-4.43.14-.33.94-.38,1.63-.62-.12,1.91-.22,3.45-.32,5.05Zm3.51,47.25H4.73c.18-2.82.36-5.59.55-8.46H8.07C7.44,50.039,6.84,52.789,6.24,55.609Zm8.03-37.14q-2.7,12.495-5.38,25.02c-.21,1.01-.59,1.43-1.64,1.28a13.563,13.563,0,0,0-1.82-.02c.69-10.56,1.37-21,2.06-31.53h7.9C15,15.009,14.64,16.739,14.27,18.469Zm1.35-7.66H7.65c.18-2.84.36-5.62.55-8.51h7.42Zm35.36,29.47c.04,2.25.02,4.5.02,6.81H43.71v-7.34c2.26,0,4.51-.01,6.76.02A.729.729,0,0,1,50.98,40.279Zm-1.3-2.87H44.89c.83-1.03,1.55-1.93,2.4-3C48.08,35.409,48.82,36.339,49.68,37.409Zm-1.26-19.03a1.534,1.534,0,0,1-1.22.87,1.668,1.668,0,0,1-1.12-1.06,11.741,11.741,0,0,1-.05-2.53h2.61A13.945,13.945,0,0,1,48.42,18.379ZM18.03,3.559h68.9v4.76H18.03Zm10.95,36.72c.04,2.25.02,4.5.02,6.81H21.71v-7.34c2.26,0,4.51-.01,6.76.02A.729.729,0,0,1,28.98,40.279Zm-1.3-2.87H22.89c.83-1.03,1.55-1.93,2.4-3C26.08,35.409,26.82,36.339,27.68,37.409Zm-1.26-19.03a1.534,1.534,0,0,1-1.22.87,1.668,1.668,0,0,1-1.12-1.06,11.741,11.741,0,0,1-.05-2.53h2.61A13.945,13.945,0,0,1,26.42,18.379Zm-8.61-5.15c.06-.77.12-1.51.19-2.36H86.95c.06.78.13,1.53.21,2.36Zm83.22-8.67c.32,1.26.78,2.47,1.21,3.8H99.45c-.11-1.55-.22-3.14-.33-4.71C100.14,3.3,100.75,3.479,101.03,4.559ZM89.34,2.309h7.41c.19,2.82.38,5.61.57,8.48H89.34Zm6.88,41.58q-1.755-7.86-3.45-15.75-1.5-6.96-3-13.94c-.06-.28-.1-.57-.15-.95h7.86c.68,10.44,1.36,20.88,2.05,31.51a20.151,20.151,0,0,1-2.6-.04A1.228,1.228,0,0,1,96.22,43.889Zm2.51,11.7c-.6-2.77-1.21-5.56-1.83-8.45h2.78c.18,2.81.37,5.59.56,8.45Z"/>
</svg>
