<svg xmlns="http://www.w3.org/2000/svg" viewBox="0 0 179.932 89.966">
  <defs>
    <style>
      .a {
        fill: #fff;
      }

      .b {
        fill: #010101;
      }

      .c {
        font-size: 16.749px;
      }

      .c, .d, .f {
        fill: #231f20;
        font-family: TwCenMT-CondensedExtraBold, Tw Cen MT Condensed Extra Bold;
      }

      .d {
        font-size: 15.707px;
      }

      .e {
        letter-spacing: -0.019em;
      }

      .f {
        font-size: 30px;
      }

      .g {
        fill: none;
        stroke: #231f20;
        stroke-miterlimit: 10;
        stroke-width: 3px;
      }
    </style>
  </defs>
  <title>mercatonero</title>
  <g>
    <g>
      <rect class="a" x="89.966" width="89.966" height="89.966"/>
      <rect class="a" width="89.966" height="89.966"/>
    </g>
    <g>
      <path class="b" d="M74.7,87.672H73.62v-3.09a.941.941,0,0,0-.94-.95H71.6V53.172H68.76l-3.23,4.31v-4.31H63.65v30.46H62.57a.941.941,0,0,0-.94.95v3.09H60.55a.947.947,0,0,0-.94.95.933.933,0,0,0,.94.94H74.7a.926.926,0,0,0,.94-.94A.941.941,0,0,0,74.7,87.672Zm-4.98-32.61v4.31H66.49Zm-4.19,6.2h3.23l-3.23,4.31Zm4.19,1.89v4.31H66.49Zm-4.19,6.19h3.23l-3.23,4.31Zm4.19,1.9v4.3H66.49Zm-4.19,6.19h3.23l-3.23,4.31Zm4.19,1.9v4.3H66.49Zm2.02,8.34H63.51v-2.15h8.23Z"/>
      <path class="b" d="M27.289,87.672h-1.08v-3.09a.941.941,0,0,0-.94-.95h-1.08V53.172h-2.84l-3.23,4.31v-4.31h-1.88v30.46h-1.08a.941.941,0,0,0-.94.95v3.09h-1.08a.947.947,0,0,0-.94.95.933.933,0,0,0,.94.94h14.15a.926.926,0,0,0,.94-.94A.941.941,0,0,0,27.289,87.672Zm-4.98-32.61v4.31h-3.23Zm-4.19,6.2h3.23l-3.23,4.31Zm4.19,1.89v4.31h-3.23Zm-4.19,6.19h3.23l-3.23,4.31Zm4.19,1.9v4.3h-3.23Zm-4.19,6.19h3.23l-3.23,4.31Zm4.19,1.9v4.3h-3.23Zm2.02,8.34H16.1v-2.15h8.23Z"/>
    </g>
    <g>
      <path d="M173.443,20.888c.044-2.112-.679-2.861-2.8-2.826-6.091.093-12.187-.039-18.278.066-1.944.036-2.891-.471-3.667-2.437-3.015-7.638-8.361-12.813-16.832-13.637-9.018-.873-16.987,4.774-20.284,14.056a2.5,2.5,0,0,1-2.812,2.014c-6.386-.079-12.777.013-19.164-.057-1.9-.022-2.631.661-2.605,2.574q.113,8.151,0,16.3c-.031,1.961.617,3.015,2.654,2.7,2.441-.379,2.864.754,2.851,2.949-.088,14.32-.053,28.636-.039,42.956,0,1.053-.283,2.517,1.331,2.517,1.582,0,1.331-1.442,1.379-2.513.018-.44,0-.881,0-1.322,0-14.025.044-28.05-.048-42.074-.013-2.085.648-2.561,2.618-2.544,10.869.089,21.733.04,32.6.04h32.161c2.817.005,2.817.005,2.817,2.909q.006,21.15,0,42.295c0,.661,0,1.322.044,1.979a1.3,1.3,0,0,0,2.592.062,18.364,18.364,0,0,0,.057-1.979c0-14.171.053-28.345-.053-42.516-.017-2.243.573-3.1,2.808-2.763,2.032.308,2.689-.683,2.653-2.667C173.346,31.611,173.333,26.247,173.443,20.888Zm-5.02,16.092c-12.769-.075-25.538-.04-38.306-.04-12.624,0-25.243-.049-37.866.048-2.076.014-2.618-.634-2.543-2.613.145-3.738.132-7.489.009-11.226-.057-1.8.449-2.424,2.318-2.394,6.017.106,12.037-.035,18.054.084,2.076.04,3.076-.524,3.7-2.666,2.4-8.247,8.983-13.527,16.458-13.527,7.149,0,13.641,5.073,16.242,12.693,1.176,3.456,1.176,3.456,4.813,3.456,5.8,0,11.591.062,17.387-.035,1.737-.031,2.081.634,2.041,2.195-.092,3.883-.119,7.779.013,11.662C170.807,36.437,170.269,36.993,168.423,36.98Z"/>
      <path d="M160.767,55.822c-6.308.075-12.615.026-18.922.026s-12.619.058-18.926-.035c-2.045-.031-2.772.736-2.645,2.715.119,1.829.067,3.667.022,5.5-.035,1.353.062,2.5,1.808,2.671,1.229.123.868,1.177.872,1.9.027,5.43.013,10.856.018,16.286,0,3.292.057,3.358,3.279,3.358q15.735.014,31.47.013c2.728,0,3-.264,3-3.028.008-5.505-.022-11.005.017-16.506,0-.709-.445-1.873.732-1.992,2.027-.2,2.019-1.521,2-2.988-.03-1.763-.119-3.531,0-5.281C163.645,56.386,162.715,55.8,160.767,55.822ZM156.1,85.507q-14.3.006-28.6-.009c-.877,0-1.781.145-1.829-1.239-.049-1.445.811-1.463,1.842-1.459,4.844.014,9.684.005,14.523.005q7.041.006,14.082,0c.961,0,1.944-.132,1.944,1.371C158.056,85.718,157.02,85.507,156.1,85.507Zm.229-5.4c-4.769-.014-9.538-.005-14.3-.005q-7.258,0-14.523,0c-.859,0-1.785.185-1.829-1.221-.048-1.459.824-1.45,1.847-1.45q14.413.013,28.821,0c.961,0,1.728.035,1.723,1.348S157.263,80.108,156.324,80.108Zm-.005-5.369c-4.839-.013-9.683,0-14.522,0-4.765,0-9.534-.009-14.3.008-1.044.005-1.882-.008-1.833-1.458.048-1.42,1-1.208,1.842-1.208q14.414-.013,28.821-.013c.939,0,1.741,0,1.732,1.331C158.047,74.708,157.271,74.743,156.319,74.739Zm-30.645-6.832c.039-1.406.987-1.225,1.833-1.225q7.266-.02,14.523-.009,7.041-.006,14.078,0c.925,0,1.957-.211,1.948,1.331-.009,1.5-.983,1.367-1.944,1.367q-14.3,0-28.6,0C126.467,69.379,125.63,69.344,125.674,67.907Zm33.083-3.931c-5.646-.141-11.306-.044-16.96-.044v-.005c-5.58,0-11.165-.1-16.74.044-2.654.071-1.971-1.652-2.072-3.072-.106-1.472.022-2.441,2.028-2.424q16.851.139,33.7,0c2.226-.022,2.129,1.133,2.072,2.609C160.731,62.49,161.247,64.042,158.757,63.976Z"/>
      <path d="M114.066,78.864c0,2.42.008,4.839,0,7.259,0,.914-.093,1.909-1.269,1.956-1.33.053-1.439-1.016-1.443-2.006-.015-4.033-.054-8.066.017-12.1.025-1.4-.383-1.9-1.853-1.935-6.276-.157-6.272-.205-6.26,6.063.006,2.64,0,5.279,0,7.919,0,.99-.026,2.075-1.361,2.061s-1.327-1.129-1.328-2.1c-.009-4.839.017-9.679-.017-14.517-.01-1.487.605-2.131,2.1-2.11q4.728.067,9.458,0c1.431-.017,1.966.682,1.955,2.022-.019,2.493,0,4.986,0,7.479Z"/>
      <text class="c" transform="translate(119.94 20.06)">2 1</text>
      <text class="c" transform="translate(128.314 17.857)">:</text>
      <path class="b" d="M44.3,34.12l-2.29-9.312a.605.605,0,0,0-.366-.427.538.538,0,0,0-.531.091l-6.87,5.587a.613.613,0,0,0-.157.21c-.005.01-.015.016-.019.026L32.55,33.863l2.034-18.755a.653.653,0,0,0,0-.125c0-.009,0-.018,0-.027l0-.011a.683.683,0,0,0-.079-.23c-.009-.016-.019-.029-.029-.045A.586.586,0,0,0,34.3,14.5l-6.87-4.345a.537.537,0,0,0-.606.02l-6.87,4.966a.6.6,0,0,0-.15.167.406.406,0,0,0-.025.041.647.647,0,0,0-.071.212l0,.011c0,.01,0,.019,0,.028a.639.639,0,0,0-.005.107l1,13.6-4.646-4.2a.546.546,0,0,0-.462-.135.577.577,0,0,0-.395.293L10.053,34.58a.647.647,0,0,0-.079.264.723.723,0,0,0,.01.091.675.675,0,0,0,.022.179l3.725,10.961H12.262v1.241H37.451V46.075H36.306l7.9-11.423c.008-.012.009-.028.017-.041a.661.661,0,0,0,.069-.167.549.549,0,0,0,.017-.07A.661.661,0,0,0,44.3,34.12ZM40.3,26.69l-2.915,9.03L35.3,30.753ZM27.167,11.422l5.919,3.744L29.2,19.381H23.975l-2.843-3.6ZM21.022,31.21h0l.612.554-4.853,3.827-.441-8.611Zm-5.794-3.568.424,8.273-4.238-1.379ZM15.7,46.075h-.746L11.478,35.852l4.355,1.417,3.045,8.806Zm6.3,0H20.1l-3.143-9.088,5.036-3.971Zm1.145,0V31.8a.687.687,0,0,0-.034-.168.653.653,0,0,0-.019-.09.612.612,0,0,0-.152-.219l-.993-.9L20.988,17.51l2.167,2.74,1.66,25.825Zm4.047,0H25.963L24.326,20.623h4.5Zm2.806-25.8,3.263-3.538L31,37.5l-2.5,5.863Zm-1.378,25.8,3.467-8.145h0l2.5-5.884,2.229,5.316-4.286,8.713Zm6.261,0H33.826l4.039-8.213,4.083-2.012Zm3.559-9.858,2.951-9.141,1.686,6.856Z"/>
      <text class="d" transform="translate(93.053 33.732) scale(0.789 1)">BL<tspan class="e" x="13.744" y="0">A</tspan><tspan x="21.781" y="0" xml:space="preserve">CK  MARKET</tspan></text>
      <text class="f" transform="translate(46.736 40.074)">x2</text>
      <rect class="g" x="4.136" y="4.492" width="77.233" height="48.679"/>
    </g>
  </g>
</svg>
