<svg xmlns="http://www.w3.org/2000/svg" viewBox="0 0 90.03 81.703">
  <title>polizia</title>
  <g>
    <path d="M88.452,73.88a9.256,9.256,0,0,0-1.4.009c-1.221.185-1.561-.24-1.556-1.508.054-11.954.031-23.91.031-35.864,0-2.56,0-2.56,2.544-2.591,1.6-.019,1.952-.368,1.958-2q.012-3.73,0-7.455c-.006-1.691-.366-2.057-2.051-2.062-3.233-.009-6.471-.054-9.7.025-1.095.025-1.351-.335-1.308-1.356.076-1.823.036-3.654.014-5.483-.02-1.674-.329-1.981-1.967-2-1.733-.016-3.468-.039-5.2.009-.87.025-1.14-.3-1.123-1.148.048-2.062,0-4.124.023-6.186a1.389,1.389,0,0,0-1.2-1.6c-2.554-.546-5.094-1.156-7.655-1.682-.579-.121-5.637-1.258-6.141-1.345C49.6.932,45.685-.806,41.24.434c-6.06,1.691-12.269,2.85-18.427,4.173A1.63,1.63,0,0,0,21.322,6.55c.054,1.919-.031,3.846.034,5.765.031.965-.251,1.339-1.261,1.3-1.73-.071-3.468.025-5.2-.031-1.356-.045-1.854.61-1.843,1.868.017,1.828-.065,3.66.028,5.483.057,1.136-.23,1.538-1.449,1.505-3.277-.09-6.563-.02-9.843-.037-1.224,0-1.8.535-1.784,1.784.028,2.625.034,5.252,0,7.877-.016,1.288.49,1.947,1.826,1.868.422-.025.853.051,1.266-.014,1.2-.191,1.452.326,1.446,1.468C4.5,47.247,4.513,59.111,4.513,70.971c0,2.8,0,2.825-2.782,2.9C.569,73.9,0,74.4.009,75.568c.014,1.218,0,2.439,0,3.657,0,2.2.281,2.47,2.529,2.47q21.167,0,42.334,0t42.334,0c.422,0,.846.023,1.266-.008a1.465,1.465,0,0,0,1.552-1.612c0-1.547.006-3.095,0-4.642A1.4,1.4,0,0,0,88.452,73.88Zm-2.58-48.9c1.348-.031,1.7.428,1.6,1.674a29.425,29.425,0,0,0-.008,3.514c.031.8-.158,1.187-1.072,1.184q-12.3-.042-24.6-.008c-.721,0-.948-.127-.8-.957a8.481,8.481,0,0,0-.29-4.3c-.351-.99.02-1.089.861-1.083,4.122.025,8.243.011,12.367.011C77.908,25.011,81.892,25.07,85.872,24.977Zm-34.4,34.6c0-1.818-.293-2.116-2.133-2.124q-4.359-.021-8.721,0c-1.753.008-2.054.32-2.056,2.056-.009,4.358-.04,8.718.022,13.079.017,1.063-.287,1.316-1.331,1.314q-14.343-.065-28.686,0c-1.019,0-1.362-.217-1.359-1.305q.058-18.7,0-37.408c0-.948.22-1.317,1.238-1.283,2.2.076,4.406.008,6.609.028.408,0,6.54.014,6.841.008,2.392-.039,4.783,0,7.174-.022a1.4,1.4,0,0,1,1.46.768c3.154,5.488,8.322,8.288,14,10.386a1.992,1.992,0,0,0,1.488-.2c5.576-2.122,10.6-4.974,13.613-10.429.3-.532.712-.518,1.182-.518,6.985,0,13.971.014,20.956-.014.807,0,1.035.265,1.035,1.047q-.028,18.918,0,37.83c0,.863-.264,1.116-1.12,1.108-3.7-.042-7.407-.014-11.109-.022-.363,0-7.36.011-7.9.008-3.373-.014-6.749-.034-10.125.014-.863.014-1.114-.236-1.105-1.1C51.5,68.389,51.48,63.98,51.475,59.575ZM48.906,72.988c0,.656-.222.909-.895.9-1.966-.031-3.932-.048-5.9.005-.866.026-.993-.38-.982-1.1.031-1.966.009-3.933.009-5.9,0-1.919.031-3.84-.012-5.759-.016-.782.234-1.069,1.038-1.049,1.919.048,3.841.036,5.759,0,.72-.014.988.219.985.962Q48.872,67.019,48.906,72.988ZM33.655,15.632c-.526-.875-.483-1.4.273-1.986a3.72,3.72,0,0,0,.681-.709c1.229-1.663,2.481-2.67,4.833-1.657a5.377,5.377,0,0,0,4.836-.785,1.089,1.089,0,0,1,1.365-.088,7.008,7.008,0,0,0,6.591.462,1.235,1.235,0,0,1,1.668.411,23.577,23.577,0,0,0,2.409,2.557c.638.577.537,1,.137,1.66a7.075,7.075,0,0,0,.225,8.414c2.628,3.559,2.234,7.171-.194,10.648-2.712,3.891-6.692,6.029-10.974,7.717a3.649,3.649,0,0,1-.464.11,5.3,5.3,0,0,1-.622-.169c-3.967-1.559-7.638-3.55-10.347-6.977C31.5,31.982,30.355,27.9,33.43,23.8A6.881,6.881,0,0,0,33.655,15.632Zm39.3.529c1.156-.02,1.438.362,1.364,1.426a28.711,28.711,0,0,0,0,3.652c.05.9-.223,1.218-1.162,1.19-2.248-.065-4.5-.02-6.749-.02-2.2,0-4.406-.04-6.606.02a1.4,1.4,0,0,1-1.541-1.078,5.394,5.394,0,0,1-.265-2.763c.273-1.842.979-2.4,2.872-2.4C64.891,16.191,68.922,16.239,72.951,16.161ZM25.536,6.643C30.927,5.524,36.3,4.305,41.67,3.107c1.961-.436,3.869-.861,5.911-.183A44.01,44.01,0,0,0,52.907,4.1c.542.11,5.665,1.286,6.417,1.44,1.966.408,3.913.895,5.879,1.289.664.132.957.363.934,1.086-.05,1.592-.039,3.187,0,4.779.017.667-.214.918-.887.906-1.64-.031-3.283-.028-4.923,0a1.665,1.665,0,0,1-1.3-.7c-1.41-1.508-2.847-2.988-4.229-4.516a1.767,1.767,0,0,0-2.461-.441c-2.251,1.181-4.457,1.328-6.443-.633a1.157,1.157,0,0,0-1.761.017c-1.992,1.949-4.2,1.786-6.445.6a1.771,1.771,0,0,0-2.459.473c-1.381,1.53-2.824,3-4.22,4.521a1.79,1.79,0,0,1-1.457.675c-1.547-.036-3.095-.053-4.642,0-.841.031-1.032-.321-1-1.078A28.7,28.7,0,0,0,23.885,8.6C23.75,7.259,24.338,6.894,25.536,6.643Zm-9.8,10.53c-.02-.692.144-1,.923-1q6.747.046,13.495,0a1.261,1.261,0,0,1,1.238.712,5.16,5.16,0,0,1,.436,4.316,1.5,1.5,0,0,1-1.713,1.223c-2.2-.07-4.406-.022-6.609-.022-2.247,0-4.5-.031-6.746.017-.8.017-1.06-.242-1.029-1.036C15.783,19.987,15.769,18.577,15.732,17.173ZM3.961,31.361c-1.153.022-1.462-.369-1.395-1.449a34.073,34.073,0,0,0,.006-3.795C2.53,25.236,2.881,25,3.717,25q12.372.033,24.751,0c.81,0,1.252.053.869,1.071a7.507,7.507,0,0,0-.293,4.158c.254,1.188-.3,1.112-1.069,1.106-2.017-.014-4.031.011-6.048-.011-.506-.006-6.485.008-6.856.008C11.369,31.335,7.664,31.287,3.961,31.361ZM87.459,78.3c-.062.481-.245.661-.7.649-.374-.008-.751,0-1.125,0H44.993c-13.642,0-27.283-.022-40.925.034-1.3.006-1.614-.405-1.5-1.587.062-.672.3-.922.943-.891.374.016.748,0,1.125,0q29.037,0,58.08-.009l7.84.009q7.668,0,15.33,0C87.456,76.513,87.664,76.783,87.459,78.3Z"/>
    <path d="M21.384,48.721c0,1.216-.029,2.433.008,3.648.036,1.169-.5,1.761-1.652,1.767-2.526.011-5.052,0-7.577,0a1.47,1.47,0,0,1-1.649-1.648q-.013-3.788,0-7.576a1.5,1.5,0,0,1,1.74-1.692c2.479.028,4.958.017,7.437,0,1.161,0,1.723.524,1.7,1.705C21.363,46.2,21.383,47.458,21.384,48.721Zm-5.459,2.721c2.883,0,2.883,0,2.883-2.827,0-2.7,0-2.7-2.748-2.7-2.847,0-2.847,0-2.847,2.841C13.213,51.442,13.213,51.442,15.925,51.442Z"/>
    <path d="M68.654,48.566c0-1.216.017-2.433-.006-3.648-.02-1.091.465-1.681,1.575-1.684,2.572-.007,5.145,0,7.717,0a1.411,1.411,0,0,1,1.578,1.558q.043,3.928,0,7.858A1.377,1.377,0,0,1,78,54.129c-2.62.018-5.239.03-7.858,0a1.4,1.4,0,0,1-1.5-1.629C68.671,51.186,68.654,49.876,68.654,48.566Zm8.174.225c0-2.875,0-2.875-2.816-2.875h-.281c-2.5,0-2.5,0-2.5,2.526,0,3,0,3,2.99,3C76.828,51.442,76.828,51.442,76.828,48.791Z"/>
    <path d="M24.743,48.581q0-1.893,0-3.787A1.385,1.385,0,0,1,26.3,43.235c2.572-.008,5.144.009,7.715-.01a1.4,1.4,0,0,1,1.577,1.55q.051,3.927,0,7.855a1.417,1.417,0,0,1-1.627,1.511c-2.525-.006-5.05,0-7.575,0-1.162,0-1.681-.608-1.652-1.767C24.766,51.107,24.742,49.844,24.743,48.581Zm8.212.217c0-2.882,0-2.882-2.953-2.882h-.14c-2.512,0-2.512,0-2.512,2.519,0,3.007,0,3.007,2.986,3.007C32.955,51.442,32.955,51.442,32.955,48.8Z"/>
    <path d="M59.961,43.232c1.262,0,2.525-.008,3.787,0a1.39,1.39,0,0,1,1.545,1.57c0,2.572,0,5.144,0,7.716a1.448,1.448,0,0,1-1.659,1.615c-2.525.008-5.05,0-7.575,0a1.466,1.466,0,0,1-1.63-1.661q-.027-3.788,0-7.575a1.488,1.488,0,0,1,1.741-1.684C57.435,43.264,58.7,43.23,59.961,43.232Zm-.15,8.21c2.88,0,2.88,0,2.88-2.833,0-2.693,0-2.693-2.758-2.693-2.847,0-2.847,0-2.847,2.848C57.086,51.442,57.086,51.442,59.811,51.442Z"/>
    <path d="M74,68.274c-1.266,0-2.532-.013-3.8,0-1.047.013-1.556-.463-1.551-1.526q.019-3.867,0-7.735a1.375,1.375,0,0,1,1.56-1.552c2.578-.017,5.156-.014,7.735,0,1.115,0,1.592.629,1.59,1.7,0,2.485,0,4.969,0,7.454a1.467,1.467,0,0,1-1.739,1.673C76.53,68.241,75.263,68.275,74,68.274Zm.057-8.174c-2.826,0-2.826,0-2.826,2.869,0,2.752,0,2.752,2.8,2.752s2.8,0,2.8-2.866C76.828,60.1,76.828,60.1,74.055,60.1Z"/>
    <path d="M15.993,68.274c-1.266,0-2.532-.029-3.8.009-1.123.034-1.673-.494-1.68-1.581-.016-2.531,0-5.062-.006-7.593a1.455,1.455,0,0,1,1.634-1.654q3.8,0,7.593,0c1.16,0,1.677.567,1.658,1.753-.041,2.483-.03,4.968-.005,7.452.012,1.122-.475,1.642-1.6,1.621C18.524,68.255,17.258,68.274,15.993,68.274Zm.078-8.174c-2.858,0-2.858,0-2.858,2.807v.14c0,2.674,0,2.674,2.708,2.674,2.887,0,2.887,0,2.887-2.944C18.808,60.1,18.808,60.1,16.071,60.1Z"/>
    <path d="M30.016,68.273c-1.265,0-2.53,0-3.795,0a1.292,1.292,0,0,1-1.477-1.455V58.947a1.337,1.337,0,0,1,1.49-1.476c2.623-.024,5.247-.019,7.87-.008a1.357,1.357,0,0,1,1.49,1.494c.021,2.624.028,5.247,0,7.87-.012,1.025-.591,1.491-1.64,1.458C32.641,68.242,31.328,68.275,30.016,68.273Zm2.939-5.257c0-2.916,0-2.916-2.9-2.916-2.709,0-2.709,0-2.709,2.708,0,2.913,0,2.913,2.92,2.913C32.955,65.721,32.955,65.721,32.955,63.016Z"/>
    <path d="M59.8,68.275c-1.218,0-2.438-.038-3.654.011-1.116.045-1.7-.451-1.705-1.543q-.033-3.865,0-7.73a1.41,1.41,0,0,1,1.582-1.557c2.576,0,5.152-.011,7.729.01,1.1.008,1.571.606,1.558,1.706q-.043,3.725,0,7.448c.014,1.2-.543,1.695-1.714,1.663C62.326,68.248,61.061,68.275,59.8,68.275Zm.019-2.554c2.876,0,2.876,0,2.876-2.818,0-2.8,0-2.8-2.754-2.8-2.851,0-2.851,0-2.851,2.821C57.086,65.721,57.086,65.721,59.815,65.721Z"/>
    <path d="M39.123,32.117A10.98,10.98,0,0,1,39.434,30a2.686,2.686,0,0,0-1.065-3.164,13.458,13.458,0,0,1-1.746-1.825c-.795-.985-.4-2.252.825-2.287a6.241,6.241,0,0,0,6.333-4.536,1.283,1.283,0,0,1,2.5.033,6.191,6.191,0,0,0,6.211,4.493c1.381.051,1.759,1.358.809,2.439-.71.809-1.465,1.582-2.25,2.317a1.761,1.761,0,0,0-.556,1.876,18.543,18.543,0,0,1,.41,2.912c.121,1.81-.791,2.529-2.252,1.55a5.955,5.955,0,0,0-7.3.021C39.942,34.749,39.065,34.058,39.123,32.117Zm2.947-1.579c2.01-1.539,3.937-1.28,5.981-.011-.968-2.393-.076-4.088,1.723-5.68-2.572.155-3.917-1.217-4.85-3.421-.549,2.6-2.385,3.3-4.7,3.555C42.339,26.4,42.7,28.226,42.07,30.538Z"/>
  </g>
</svg>
