<svg xmlns="http://www.w3.org/2000/svg" viewBox="0 0 118.59 61.92">
  <defs>
    <style>
      .a {
        fill: #231f20;
      }

      .b {
        fill: #010101;
      }
    </style>
  </defs>
  <title>Risorsa 22</title>
  <g>
    <g>
      <rect class="a" x="23.371" y="42.008" width="2.212" height="13.27"/>
      <rect class="a" x="28.9" y="42.008" width="2.212" height="13.27"/>
      <rect class="a" x="34.429" y="42.008" width="2.212" height="13.27"/>
      <rect class="a" x="39.952" y="42.008" width="2.212" height="13.27"/>
      <rect class="a" x="45.481" y="42.008" width="2.212" height="13.27"/>
      <path class="a" d="M52.11,42.01v6.63h.01V42.01Z"/>
      <g>
        <path class="a" d="M117.79,53.84h-4V25.82a.8.8,0,0,0-.8-.8h-8.01a.809.809,0,0,0-.8.8V53.84h-4a.785.785,0,0,0-.79.79v.8H90.58a.8.8,0,0,1-.8-.8v-.79h.8a.8.8,0,0,0,.8-.81V50.64h2.4a.82.82,0,0,0,.57-.24l3.2-3.2a.81.81,0,0,0,.23-.57V24.22a.81.81,0,0,0-.23-.57l-3.21-3.2a.787.787,0,0,0-.56-.23h-4v-3.2a4.8,4.8,0,0,0-4.81-4.8H73.77a4.8,4.8,0,0,0-4.8,4.8V28.74H59.85V23.21H57.64v5.53H51.01V23.21H48.79v5.53H42.16V23.21H39.95v5.53H33.32V23.21H31.11v5.53H24.48v6.64h2.21V30.96H73.12V59.7H70.91V41.94H52.12v8.92h-.01v8.81l-30.95-.03V39.8H70.91V37.59H18.95V59.64H15.62L16.45,21h3.97l.7,14.43,2.22-.11L21.93,6.63H14.55l-1.14,53H11.18L9.8,6.63H2.38L1.28,59.62H.01L0,61.83l75.33.09V28.74H73.77V17.82a.8.8,0,0,1,.8-.8h9.6a.79.79,0,0,1,.8.8v2.4h-4a.77.77,0,0,0-.56.23l-3.2,3.2a.82.82,0,0,0-.24.57V46.63a.82.82,0,0,0,.24.57l3.2,3.2a.779.779,0,0,0,.56.24h2.4v2.39a.811.811,0,0,0,.8.81h.8v1.59a4.812,4.812,0,0,0,4.81,4.81h9.61v.8a.794.794,0,0,0,.79.8h17.61a.8.8,0,0,0,.8-.8V54.63A.794.794,0,0,0,117.79,53.84ZM16.71,8.84h3.12l.27,5.53H16.6Zm-.16,7.75h3.66l.1,2.2H16.5Zm-12-7.75h3.1l.14,5.53H4.44ZM4.4,16.59H7.85l.05,2.2H4.35ZM3.49,59.62,4.3,21H7.96L8.97,59.63Zm55.25-3.09,1.68-3.46.05-.12a.281.281,0,0,0-.25-.4h-.98a.278.278,0,0,1-.25-.4l.64-1.29.9-1.83a.286.286,0,0,0-.16-.39.239.239,0,0,0-.09-.02H59.24a.27.27,0,0,1-.25-.39l.89-1.8,1.09-2.21.27-.55a.3.3,0,0,1,.25-.16H66.1a.283.283,0,0,1,.22.45l-.2.26-1.66,2.21-1.05,1.41a.273.273,0,0,0,.22.44h1.15a.288.288,0,0,1,.27.36c-.02.03-.03.07-.05.1l-1.68,2.12-.6.75a.273.273,0,0,0,.21.45h.35a.281.281,0,0,1,.2.48l-.53.53-3.76,3.79A.284.284,0,0,1,58.74,56.53Zm9.96,3.16-14.38-.01V58.52H68.7ZM84.17,15.42h-9.6a2.394,2.394,0,0,0-2.4,2.4V28.74h-1.6V17.02a3.2,3.2,0,0,1,3.2-3.2h11.2a3.19,3.19,0,0,1,3.2,3.2v3.2h-1.6v-2.4A2.394,2.394,0,0,0,84.17,15.42Zm-2.87,6.4H93.45l1.6,1.6H79.71Zm-2.73,3.2H96.18V45.83H78.57ZM81.3,49.03l-1.59-1.6H95.05l-1.6,1.6Zm3.67,3.2V50.64h4.81v1.59Zm14.42,6.41H89.78a3.2,3.2,0,0,1-3.21-3.21V53.84h1.6v.79a2.411,2.411,0,0,0,2.41,2.41h8.81Zm6.4-32.02h6.4v1.6h-6.4Zm0,3.2h6.4v4.81h-6.4Zm0,6.41h4.31l-4.31,2.58Zm6.4.61v2.59h-4.31Zm-6.4,4.19h6.4v3.2h-6.4Zm0,4.8h4.31l-4.31,2.59Zm6.4.62v2.58h-4.31Zm-6.4,4.19h6.4v3.2h-6.4Zm11.2,9.6H100.98v-1.6h16.01Zm0-3.2H100.98V55.43h16.01Z"/>
        <rect class="a" x="28.899" y="33.166" width="2.211" height="2.211"/>
        <rect class="a" x="33.321" y="33.166" width="2.211" height="2.211"/>
        <rect class="a" x="37.743" y="33.166" width="2.211" height="2.211"/>
        <rect class="a" x="42.165" y="33.166" width="2.211" height="2.211"/>
        <rect class="a" x="46.587" y="33.166" width="2.211" height="2.211"/>
        <rect class="a" x="51.009" y="33.166" width="2.211" height="2.211"/>
        <rect class="a" x="55.431" y="33.166" width="2.211" height="2.211"/>
        <rect class="a" x="59.853" y="33.166" width="2.211" height="2.211"/>
        <rect class="a" x="64.275" y="33.166" width="2.211" height="2.211"/>
        <rect class="a" x="68.697" y="33.167" width="2.212" height="2.212"/>
        <g>
          <path class="a" d="M112.93,18.71a4.009,4.009,0,0,0-3.94-3.29,4.284,4.284,0,0,0-.87.09,3.964,3.964,0,0,0-6.06-2.67,3.1,3.1,0,0,0-1.88-.62,3.2,3.2,0,0,0,0,6.4,3.142,3.142,0,0,0,.75-.09,4.025,4.025,0,0,0,4.11,1.59,4.007,4.007,0,0,0,7.89-1.41Zm-3.94,3.11a2.394,2.394,0,0,1-2.4-2.4,1.983,1.983,0,0,1,.03-.35.794.794,0,0,0-.67-.91.82.82,0,0,0-.53.1,2.417,2.417,0,0,1-3.31-.85,1.024,1.024,0,0,1-.1-.21.814.814,0,0,0-1.06-.39l-.04.02A1.592,1.592,0,1,1,99.45,14a1.518,1.518,0,0,1,.73-.18,1.578,1.578,0,0,1,1.22.57.775.775,0,0,0,.56.29.791.791,0,0,0,.59-.22,2.388,2.388,0,0,1,3.38.11,2.346,2.346,0,0,1,.66,1.65,2.21,2.21,0,0,1-.04.35.8.8,0,0,0,.67.91.879.879,0,0,0,.53-.11,2.347,2.347,0,0,1,1.24-.35,2.4,2.4,0,0,1,0,4.8Z"/>
          <path class="a" d="M90.79,34.93l-2.76-3.96a.838.838,0,0,0-1.16-.16l-.16.16-2.75,3.96a3,3,0,0,0-.13,3.38,4.24,4.24,0,0,0,5.88,1.22,4.139,4.139,0,0,0,1.21-1.22A2.985,2.985,0,0,0,90.79,34.93Zm-1.23,2.53a2.648,2.648,0,0,1-3.66.73,2.592,2.592,0,0,1-.71-.73,1.45,1.45,0,0,1,.07-1.62l2.11-3.02,2.12,3.02A1.45,1.45,0,0,1,89.56,37.46Z"/>
          <path class="a" d="M87.37,28.22a7.205,7.205,0,1,0,7.21,7.21A7.21,7.21,0,0,0,87.37,28.22Zm0,12.81a5.605,5.605,0,1,1,5.61-5.6A5.6,5.6,0,0,1,87.37,41.03Z"/>
        </g>
      </g>
    </g>
    <path class="b" d="M77.93,6.49a.929.929,0,0,0-.04-.13,7.135,7.135,0,0,0-1.61-2.62.867.867,0,0,0-.11-.12C72.384.145,65.86,0,65.66,0H58.2a2.741,2.741,0,0,0-2.1.97c-.02.02-.04.05-.05.06a2.718,2.718,0,0,0-.62,1.74.548.548,0,0,1-.55.55H51.55a.66.66,0,0,0-.14.01.333.333,0,0,0-.1,0,3.854,3.854,0,0,0-3.62,3.84,3.9,3.9,0,0,1-3.04,3.8c-.02,0-.03.01-.05.01a4.069,4.069,0,0,1-.79.08H41.06c-.27,0-.54.02-.81.03-.02,0-.06.01-.08.01A9.958,9.958,0,0,0,31.11,21v.01h2.21a3.325,3.325,0,0,1,3.32-3.32h.75a2.559,2.559,0,0,1,2.56,2.56v.76h2.21a2.219,2.219,0,0,1,2.21-2.22h2.21a2.176,2.176,0,0,1,.72.12,2.272,2.272,0,0,1,.88.57,2.2,2.2,0,0,1,.61,1.53h2.22a2.219,2.219,0,0,1,2.21-2.22h2.21a2.219,2.219,0,0,1,2.21,2.22h2.21a2.219,2.219,0,0,1,2.21-2.22h.28a4.424,4.424,0,0,0,4.42-4.43,1.4,1.4,0,0,1,.24-.77,1.638,1.638,0,0,1,.21-.25,8.153,8.153,0,0,0,1.83-2.3c.11-.21.22-.41.32-.63a11.822,11.822,0,0,0,.67-1.8c.14-.51.23-.9.26-1.08.22-.89,1.12-1.2,2.8-.96a15.052,15.052,0,0,1,2.16.53,2.672,2.672,0,0,1,.26.09c.26.08.52.18.75.27.17.07.31.12.36.15a.89.89,0,0,0,.84-.03A.925.925,0,0,0,77.93,6.49ZM73.37,4.68c-2.53-.36-4.42.28-4.95,2.48-.03.17-.1.49-.22.91a10.826,10.826,0,0,1-.83,2.06,8.879,8.879,0,0,1-.58.91,3.387,3.387,0,0,0-.72.4.835.835,0,0,0-.16.12,3.305,3.305,0,0,0-.75.83,3.592,3.592,0,0,0-.43.88,3.383,3.383,0,0,0-.18,1.1,1.34,1.34,0,0,1-.01.2,2.216,2.216,0,0,1-2.2,2.01h-.28a4.522,4.522,0,0,0-1.87.41,4.731,4.731,0,0,0-1.45,1.09,4.394,4.394,0,0,0-3.31-1.5H53.22a4.37,4.37,0,0,0-3.28,1.47.138.138,0,0,0-.04.03,3.032,3.032,0,0,0-.59-.54c0-.02-.02-.03-.03-.04a4.36,4.36,0,0,0-2.7-.92H44.37a4.242,4.242,0,0,0-1.81.4c-.02,0-.03.01-.05.02a4.124,4.124,0,0,0-1.08.71,4.765,4.765,0,0,0-4.04-2.23h-.75a5.1,5.1,0,0,0-1.11.11,7.722,7.722,0,0,1,4.88-2.29h.07a5.441,5.441,0,0,1,.57-.03h2.76a5.287,5.287,0,0,0,.8-.06h.03a6.073,6.073,0,0,0,5.1-4.69,2.832,2.832,0,0,0,.08-.4,4.94,4.94,0,0,0,.08-.95,1.651,1.651,0,0,1,.58-1.25c.04-.02.07-.06.11-.07a1.651,1.651,0,0,1,.96-.32h3.33a2.759,2.759,0,0,0,2.76-2.76.567.567,0,0,1,.46-.55.308.308,0,0,1,.1-.01h7.46c.17,0,3.433.352,3.433.352A9.887,9.887,0,0,1,74.83,4.99,13.622,13.622,0,0,0,73.37,4.68Z"/>
  </g>
</svg>
