<svg xmlns="http://www.w3.org/2000/svg" viewBox="0 0 117.285 49.431">
  <title>Risorsa 24</title>
  <path d="M116.3,47.446h-1.126V15.6h.068a.99.99,0,1,0,0-1.979h-5.93l2.21-1.34a.989.989,0,1,0-1.016-1.7l-5.051,3.038H101.9l2.219-1.34a.987.987,0,0,0,.341-1.357,1,1,0,0,0-1.357-.341l-5.051,3.038H94.5l2.219-1.34a.977.977,0,0,0,.332-1.357.994.994,0,0,0-1.357-.341l-5.051,3.038H87.1l2.21-1.34a.989.989,0,0,0-1.015-1.7l-5.052,3.038H79.288a.99.99,0,1,0,0,1.979h.068v6.477h-21.2a1,1,0,0,0-.836.452v1.075a1,1,0,0,0,.836.453h.06V47.446H57.6c-.094-1.425-.188-2.841-.281-4.266-.734-11.349-1.468-22.629-2.21-33.995,1.134,0,2.158.017,3.174-.009,1.246-.017,1.638-.546,1.263-1.706-.538-1.656-1.11-3.294-1.664-4.941-.5-1.5-.529-1.519-2.1-1.527-.6,0-1.238.145-1.528-.674-.059-.18-.529-.3-.81-.3C50.8,0,48.151,0,45.506.029c-.324.008-.828.2-.93.444C44.32,1.053,43.91,1,43.45,1c-2.8-.009-5.606,0-8.405,0C28.756,1,22.476,1.01,16.187.985a2.455,2.455,0,0,1-.93-.333c-.41-.2-.811-.606-1.22-.615C11.485-.022,8.934,0,6.383.02c-.291,0-.768.06-.854.239C5.051,1.283,4.173.993,3.388.993A1.328,1.328,0,0,0,1.963,2.051C1.408,3.826.776,5.575.188,7.342-.256,8.656.137,9.168,1.57,9.185c.981.008,1.971,0,3.021,0C3.754,22.027,2.927,34.732,2.1,47.455a6.954,6.954,0,0,1-.759.042c-.691-.017-1.323.145-1.34.948-.008.878.683.981,1.391.972,1.374-.008,2.739.009,4.113.009,1.228-.009,1.433-.154,1.7-1.374q1.907-8.869,3.8-17.74,1.767-8.192,3.558-16.366a.928.928,0,0,1,.615-.606c1.075-.06,2.167-.025,3.43-.025,0,.913-.051,1.7.008,2.466A2.58,2.58,0,0,0,20,17.965a1.107,1.107,0,0,1,.657,1.178c-.017,2.517.017,5.043-.025,7.56a2.3,2.3,0,0,1-.436,1.254c-1.024,1.365-2.133,2.671-3.165,4.036a2.548,2.548,0,0,0-.512,1.34c-.051,2.517-.043,5.043-.017,7.56.008,1,.358,1.34,1.373,1.34q3.687.026,7.382,0c1.109,0,1.407-.333,1.407-1.477.009-2.423.035-4.855-.017-7.278a2.887,2.887,0,0,0-.529-1.519c-1-1.348-2.1-2.62-3.114-3.951a2.175,2.175,0,0,1-.427-1.169q-.064-3.916,0-7.841a1.325,1.325,0,0,1,.5-.931,3.2,3.2,0,0,0,1.544-2.807V13.315c6.724,0,13.286-.009,19.856.025.23,0,.589.393.657.657.341,1.323.6,2.663.887,3.994q2.086,9.688,4.182,19.369c.8,3.669,1.578,7.339,2.423,10.991.094.392.606,1.015.922,1.032,1.271.068,62.742.043,62.742.043a.99.99,0,0,0,0-1.98ZM2.33,7.128c.426-1.3.767-2.577,1.279-3.78.12-.281.8-.316,1.391-.529-.1,1.63-.187,2.944-.281,4.309Zm3,40.318H4.045c.153-2.406.307-4.77.46-7.219H6.886C6.357,42.693,5.845,45.048,5.325,47.446Zm6.852-31.691C10.649,22.871,9.1,29.979,7.594,37.1c-.179.862-.512,1.229-1.4,1.093a11.462,11.462,0,0,0-1.553-.018c.589-9.01,1.169-17.919,1.749-26.9h6.741C12.808,12.811,12.5,14.279,12.177,15.755Zm1.16-6.536h-6.8C6.69,6.8,6.843,4.423,7,1.957h6.34Zm2.056-6.178H44.3V7.094H15.393Zm9.344,31.333c.034,1.911.017,3.831.017,5.811H18.525V33.913c1.928,0,3.848-.009,5.777.026A.608.608,0,0,1,24.737,34.374Zm-1.109-2.458H19.54c.709-.879,1.314-1.647,2.04-2.551C22.262,30.21,22.894,31,23.628,31.916ZM22.552,15.678a1.308,1.308,0,0,1-1.049.743,1.417,1.417,0,0,1-.947-.9,10.089,10.089,0,0,1-.043-2.168h2.219A11.256,11.256,0,0,1,22.552,15.678Zm-7.346-4.394c.051-.657.1-1.289.153-2.014H44.311c.06.666.12,1.306.188,2.014Zm41.128-7.39C56.607,4.961,57,6,57.367,7.128H54.986c-.094-1.322-.188-2.671-.282-4.019C55.575,2.811,56.1,2.973,56.334,3.894ZM46.359,1.966h6.323c.162,2.415.324,4.787.487,7.244h-6.81Zm5.871,35.48q-1.5-6.708-2.944-13.431-1.279-5.952-2.56-11.9c-.051-.238-.085-.486-.136-.8h6.715c.58,8.9,1.161,17.809,1.749,26.879a17.135,17.135,0,0,1-2.218-.034C52.6,38.12,52.29,37.727,52.23,37.446Zm2.142,9.992c-.521-2.372-1.033-4.745-1.562-7.211h2.364c.162,2.4.324,4.762.486,7.211Zm19.7.008H65.482V45.2h8.592Zm0-4.232H65.482V40.97h8.592Zm0-4.224H65.482V36.746h8.592Zm5.282,8.456h-3.3v-10.7h.068a.994.994,0,0,0,0-1.988H63.434a.994.994,0,0,0,0,1.988H63.5v10.7H60.2V24.058H79.356Zm33.833-4.232h-4.36v-4.36h4.36Zm0-6.34h-4.36v-4.36h4.36Zm0-6.34h-4.36V26.165h4.36Zm0-6.34h-4.36v-4.36h4.36Zm0-6.348H95.15a.989.989,0,0,0-.989.989V44.212a.99.99,0,0,0,.989.99h18.039v2.244H81.344V15.6h31.845ZM102.48,36.874v-4.36h4.36v4.36Zm4.36,1.98v4.36h-4.36v-4.36Zm-4.36-8.32V26.165h4.36v4.369Zm0-6.34v-4.36h4.36v4.36Zm-6.34,12.68v-4.36H100.5v4.36Zm4.361,1.98v4.36H96.14v-4.36Zm-4.361-8.32V26.165H100.5v4.369Zm0-6.34v-4.36H100.5v4.36Z"/>
</svg>
