<svg xmlns="http://www.w3.org/2000/svg" viewBox="0 0 116.809 56.183">
  <defs>
    <style>
      .a {
        fill: #010101;
      }

      .b {
        font-size: 6.043px;
        fill: #231f20;
        font-family: GillSans-ExtraBold, GillSans ExtraBold;
      }
    </style>
  </defs>
  <title>Risorsa 21</title>
  <g>
    <g>
      <g>
        <path class="a" d="M115.817,54.2h-1.124V22.352h.066a.989.989,0,1,0,0-1.978h-5.935l2.215-1.334a.99.99,0,1,0-1.02-1.7l-5.048,3.032h-3.549l2.215-1.334a.989.989,0,1,0-1.015-1.7l-5.053,3.032H94.02l2.22-1.334a.99.99,0,0,0-1.02-1.7l-5.053,3.032H86.623l2.215-1.334a.99.99,0,1,0-1.02-1.7L82.77,20.374H78.813a.989.989,0,1,0,0,1.978h.066v6.477H74.471L73.46,7.572a.991.991,0,0,0-.991-.944H66.13a.992.992,0,0,0-.992.944L64.127,28.829H57.67a.992.992,0,1,0,0,1.983h.066V54.2h-.617V32.373a.952.952,0,0,0-1.328-.873l-12,5.144V32.373a.951.951,0,0,0-1.329-.873L29.315,37.132H26.657V29.878a2.266,2.266,0,0,0-2.263-2.264H21.3a2.263,2.263,0,0,0-2.259,2.264v7.254H15.165l-1.84-24.82a.95.95,0,0,0-.949-.878H6.663a.953.953,0,0,0-.949.878L3.877,37.132H2.857a.951.951,0,0,0-.944.85L.006,55.115a.953.953,0,0,0,.949,1.058H38.083l77.734.01a.99.99,0,1,0,0-1.979ZM20.945,29.878a.359.359,0,0,1,.356-.361h3.093a.357.357,0,0,1,.356.361v7.254h-3.8ZM7.55,13.337h3.943l1.76,23.8H5.785Zm3.877,40.934H7.616V48.558h3.811Zm1.9,0V47.6a.953.953,0,0,0-.953-.949H6.663a.952.952,0,0,0-.949.949v6.667h-3.7L3.707,39.04H15.332l.754,6.771.939,8.46Zm15.231,0H18.942L17.248,39.04H28.56Zm8.569,0H35.222V49.512h1.907Zm4.759,0H39.032V48.558a.954.954,0,0,0-.954-.954h-3.8a.954.954,0,0,0-.954.954v5.713H30.463V38.712l11.425-4.891Zm8.565,0h-1.9V49.512h1.9Zm4.759,0H52.36V48.558a.954.954,0,0,0-.954-.954H47.6a.953.953,0,0,0-.949.954v5.713H43.791V38.712l11.421-4.891ZM67.074,8.611h4.45l.11,2.245H66.965Zm-.2,4.228h4.858l.105,2.244H66.765Zm-.2,4.228h5.257l.56,11.762H66.111ZM73.593,54.2H65.005V51.955h8.588Zm0-4.232H65.005V47.728h8.588Zm0-4.228H65.005V43.5h8.588Zm5.286,8.46h-3.3V43.5h.066a.992.992,0,1,0,0-1.983H62.955a.992.992,0,0,0,0,1.983h.067V54.2h-3.3V30.812h19.16Zm33.831-4.232h-4.361V45.611h4.361Zm0-6.344h-4.361v-4.36h4.361Zm0-6.339h-4.361V32.924h4.361Zm0-6.344h-4.361v-4.36h4.361Zm0-6.344H94.67a.988.988,0,0,0-.987.992V50.964a.987.987,0,0,0,.987.991h18.04V54.2H80.862V22.352H112.71Zm-10.7,19.027v-4.36h4.361v4.36Zm4.361,1.983v4.361h-4.361V45.611Zm-4.361-8.322V32.924h4.361v4.365Zm0-6.344v-4.36h4.361v4.36ZM95.661,43.628v-4.36h4.361v4.36Zm4.361,1.983v4.361H95.661V45.611Zm-4.361-8.322V32.924h4.361v4.365Zm0-6.344v-4.36h4.361v4.36Z"/>
        <path class="a" d="M10.818,9.463c.065-.025.2-.073.379-.136.313-.106.658-.212,1.023-.312A13.032,13.032,0,0,1,14.4,8.6c1.687-.154,2.586.2,2.758,1.1a9.673,9.673,0,0,0,.2,1.082,12.142,12.142,0,0,0,.869,2.487c1.153,2.38,2.984,3.869,5.576,3.869A17.821,17.821,0,0,0,26.791,17a5.657,5.657,0,0,0,2.98-1.1A11.355,11.355,0,0,0,33.9,18.685a5.505,5.505,0,0,0,2.282.368,8.7,8.7,0,0,0,5.32-2.116,13.82,13.82,0,0,0,1.42-1.3,6.655,6.655,0,0,0,4.642,1.518c.332-.009.569-.011.8-.017,7.121-.162,10.767-8.667,5.836-13.776-.113-.117-.2-.2-.255-.25a.952.952,0,0,0-1.589.708c0,2.491-.584,3.856-1.478,4.45a1.889,1.889,0,0,1-1.21.323L49.5,8.576c-1.783,0-3.611-1.634-5.147-4.038a11.441,11.441,0,0,0-3.244-3.415A5.122,5.122,0,0,0,38.023.009a8.408,8.408,0,0,0-5.718,2.146c-.2.183-.391.366-.561.547a3.951,3.951,0,0,0-1.908-1.361,6.435,6.435,0,0,0-2.231-.38,13.5,13.5,0,0,0-5.489,1.033,7.56,7.56,0,0,0-1.522.871H19.04A10.647,10.647,0,0,0,11.483,5.5,7.072,7.072,0,0,0,9.569,8.277.952.952,0,0,0,10.818,9.463ZM19.04,4.768h1.9a.953.953,0,0,0,.668-.273,4.73,4.73,0,0,1,1.275-.76,11.633,11.633,0,0,1,4.721-.87,4.643,4.643,0,0,1,1.578.266,1.629,1.629,0,0,1,1.277,1.637.952.952,0,0,0,1.809.416,3.975,3.975,0,0,1,.288-.467,6.594,6.594,0,0,1,1.015-1.143,6.523,6.523,0,0,1,4.5-1.661l.174-.016c-.008,0,.121.016.338.078a5.4,5.4,0,0,1,1.462.731,9.554,9.554,0,0,1,2.7,2.856c1.847,2.89,4.066,4.885,6.686,4.918a3.777,3.777,0,0,0,2.5-.627A5.236,5.236,0,0,0,54.017,6.4a6.317,6.317,0,0,1-5.7,8.83q-.349.008-.723.008l-.141.01a4.139,4.139,0,0,1-1.294-.112,5.331,5.331,0,0,1-2.191-1.105c-.156-.128-.31-.268-.46-.418a.952.952,0,0,0-1.429.094c-.074.1-.229.282-.456.526a11.974,11.974,0,0,1-1.307,1.212,6.809,6.809,0,0,1-4.145,1.7l-.16.013a3.692,3.692,0,0,1-1.471-.264,9.482,9.482,0,0,1-3.408-2.326l-.952-.952-1.9-1.9a.952.952,0,0,0-1.347,1.346L28.4,14.524a4.343,4.343,0,0,1-1.88.588,15.578,15.578,0,0,1-2.54.133c-.069,0-.118,0-.137,0-1.8,0-3.042-1.011-3.906-2.8a10.229,10.229,0,0,1-.73-2.094,8.5,8.5,0,0,1-.174-.928c-.418-2.216-2.272-2.95-4.813-2.718a13.129,13.129,0,0,0-1.478.227A8.781,8.781,0,0,1,19.04,4.768Z"/>
        <path class="a" d="M20.944,51.414a.952.952,0,0,0,.952-.952V42.846a.952.952,0,1,0-1.9,0v7.616A.952.952,0,0,0,20.944,51.414Z"/>
        <path class="a" d="M25.7,51.414a.952.952,0,0,0,.952-.952V42.846a.952.952,0,1,0-1.9,0v7.616A.952.952,0,0,0,25.7,51.414Z"/>
        <path class="a" d="M34.271,44.75h3.808a.952.952,0,0,0,.952-.952V39.991a.952.952,0,0,0-.952-.952H34.271a.952.952,0,0,0-.952.952V43.8A.952.952,0,0,0,34.271,44.75Zm.952-3.808h1.9v1.9h-1.9Z"/>
        <path class="a" d="M47.6,44.75h3.808a.952.952,0,0,0,.952-.952V39.991a.952.952,0,0,0-.952-.952H47.6a.952.952,0,0,0-.952.952V43.8A.952.952,0,0,0,47.6,44.75Zm.952-3.808h1.9v1.9h-1.9Z"/>
      </g>
      <g>
        <path class="a" d="M62.956,39.269h4.229a.991.991,0,0,0,0-1.982H62.956a.991.991,0,0,0,0,1.982Z"/>
        <path class="a" d="M71.414,39.269h4.228a.991.991,0,1,0,0-1.982H71.414a.991.991,0,1,0,0,1.982Z"/>
        <path class="a" d="M62.956,35.04h4.229a.991.991,0,0,0,0-1.982H62.956a.991.991,0,0,0,0,1.982Z"/>
        <path class="a" d="M71.414,35.04h4.228a.991.991,0,1,0,0-1.982H71.414a.991.991,0,1,0,0,1.982Z"/>
      </g>
    </g>
    <text class="b" transform="translate(85.534 29.525)">T<tspan x="0.255" y="7.251">E</tspan><tspan x="-0.123" y="14.502">C</tspan><tspan x="-0.5" y="21.753">H</tspan></text>
  </g>
</svg>
