<svg xmlns="http://www.w3.org/2000/svg" viewBox="0 0 49.521 49.522">
  <defs>
    <style>
      .a {
        fill: #010101;
      }
    </style>
  </defs>
  <title>Risorsa 33</title>
  <g>
    <g>
      <rect class="a" x="3.903" y="31.521" width="1.516" height="6.817"/>
      <rect class="a" x="6.934" y="31.521" width="1.516" height="6.817"/>
      <rect class="a" x="9.965" y="31.521" width="1.509" height="6.817"/>
    </g>
    <path class="a" d="M48.011,6.972h-.59L34.4.082a.754.754,0,0,0-.59-.04L6.031,10.082h-2.2a.694.694,0,0,0-.51.21l-3.11,3.1a.706.706,0,0,0-.15.79.72.72,0,0,0,.67.45h4.7v7.8a2.3,2.3,0,0,0,1.54,2.16v.82h-5.3a.768.768,0,0,0-.76.77v14.39a.758.758,0,0,0,.76.75h12.12a.758.758,0,0,0,.76-.75V26.182a.768.768,0,0,0-.76-.77h-5.3v-.84a2.282,2.282,0,0,0,1.49-2.14v-7.8h.83a.725.725,0,0,0,0-1.45h-.83v-1.65h23.01l1.65,1.65H13.9a.725.725,0,0,0,0,1.45h17.26l1.29,5.8a1.452,1.452,0,0,0,.89,1.07v23.46h-.83a.734.734,0,0,0-.73.73v2.38h-.82a.717.717,0,0,0-.72.72.726.726,0,0,0,.72.73h10.85a.734.734,0,0,0,.73-.73.726.726,0,0,0-.73-.72h-.82v-2.38a.734.734,0,0,0-.73-.73h-.82V21.422a1.515,1.515,0,0,0,.78-1.31v-5.48h7.87a1.512,1.512,0,0,0,1.43-1.5V8.482A1.515,1.515,0,0,0,48.011,6.972Zm-42.58,6.21H2.471l1.66-1.65h1.3Zm7.6,26.63H2.431v-9.85h10.6Zm0-12.88v1.52H2.431v-1.52ZM7.7,23.262a.832.832,0,0,1-.82-.83.825.825,0,0,1,1.65,0A.834.834,0,0,1,7.7,23.262Zm.83-2.95a2.207,2.207,0,0,0-1.65,0v-5.68h1.65Zm0-7.13H6.881v-1.65h1.65Zm24.81-3.1H10.3l23.04-8.32Zm4.65,31.59v3.29h-2.48Zm-3.2,1.84v-3.29h2.48Zm.72-4.75,2.48-3.3v3.3Zm-.72-1.45v-3.3h2.48Zm.72-4.75,2.48-3.3v3.3Zm-.72-1.45v-3.3h2.48Zm.72-4.75,2.48-3.3v3.3Zm-.72-1.45v-3.3h2.48Zm-.88-4.76a.055.055,0,0,1-.05-.03L33.5,18.5h2.89a.717.717,0,0,0,.72-.72v-3.15h1.65v5.48a.046.046,0,0,1-.05.04Zm2.11-7.64,1.97-2.63v3.3h-1.3Zm1.97-5.54h-2.48l2.48-3.29Zm-3.2-5.04,1.93,1.03-1.93,2.57Zm0,6.5h2.48l-2.29,3.04-.19-.19Zm-1.61,8.63-.54-2.43h3.02v2.43Zm6.36,29.35v1.66h-6.3v-1.66Zm1.55-37.93v4.7h-1.65V4.392l4.88,2.58h-1.73A1.513,1.513,0,0,0,41.091,8.482Zm6.98,1.6h-2.38a.734.734,0,0,0-.73.73.726.726,0,0,0,.73.72h2.38v1.6a.056.056,0,0,1-.06.05h-5.47v-1.65h.05a.717.717,0,0,0,.72-.72.726.726,0,0,0-.72-.73h-.05v-1.6a.047.047,0,0,1,.05-.05h5.42a.056.056,0,0,1,.06.05Z"/>
  </g>
</svg>
