<svg xmlns="http://www.w3.org/2000/svg" viewBox="0 0 58.07 62.094">
  <defs>
    <style>
      .a {
        fill: #010101;
      }
    </style>
  </defs>
  <title>Risorsa 17</title>
  <g>
    <path class="a" d="M54.005,47.882H51.12A29.055,29.055,0,0,0,8.506,8.448,28.678,28.678,0,0,0,0,28.925,29.051,29.051,0,0,0,6.952,47.882H4.066a.735.735,0,0,0-.735.735V61.359a.735.735,0,0,0,.735.735H54.005a.735.735,0,0,0,.735-.735V48.617A.735.735,0,0,0,54.005,47.882Zm-7.015,0L49.957,42.7l1.435,2.464a27.929,27.929,0,0,1-2.245,2.72Zm-34.355,0L9.264,41.963H20.726L17.39,47.882Zm16.4-41.737,5.831,9.962H23.335ZM22.1,15.314l-5.759-9.93h11.44ZM50.054,39.74,44.286,29.66H55.743ZM30.3,29.66H41.759L36.07,39.74Zm-13.983,0H27.776l-5.69,10.08Zm12.71-2.2-5.814-9.887H34.738Zm6.954-9.1,5.754,9.829H30.308ZM27.75,28.189H16.327L22,18.41Zm16.539,0,5.678-9.879,5.756,9.879Zm-1.276-.729-5.784-9.883H48.692ZM30.326,5.44H41.754l-5.675,9.829ZM15.045,27.469,9.2,17.577H20.783ZM8.016,18.46l5.747,9.729H2.347Zm5.776,11.2L8.1,39.74,2.335,29.66Zm1.264.752,5.767,10.081H9.366Zm13.983,0,5.768,10.081H23.349Zm13.984,0L48.79,40.493H37.333Zm13.483.887a27.37,27.37,0,0,1-4.2,12.514l-1.455-2.5Zm-5.69-14.452,1.48-2.586a27.378,27.378,0,0,1,4.193,12.324Zm-13.523-.74,5.769-9.993,5.822,9.993Zm-7-12.138L31.648,1.6A27.381,27.381,0,0,1,40.5,3.969ZM17.614,3.914a27.514,27.514,0,0,1,8.807-2.322l1.353,2.322Zm3.242,12.193H9.377L15.051,6.1ZM1.568,26.606A27.131,27.131,0,0,1,5.734,14.214l1.527,2.622ZM7.21,41.14,5.755,43.794A27.573,27.573,0,0,1,1.57,31.282Zm14.78,1.574,2.966,5.168H19.078Zm4.661,5.168-3.4-5.919H34.7l-3.361,5.919Zm9.322-5.176,2.992,5.176H33.034Zm4.69,5.176-3.422-5.919H48.684L45.3,47.882ZM51.376,12.909l-1.315,2.3-5-8.589A27.8,27.8,0,0,1,51.376,12.909ZM30.014,1.489l-.967,1.69-.985-1.69c.324-.011.647-.019.973-.019S29.689,1.478,30.014,1.489Zm-20.472,8a27.915,27.915,0,0,1,3.617-3.034L8.107,15.367l-1.455-2.5A27.682,27.682,0,0,1,9.542,9.49ZM6.681,45.162l1.331-2.428,2.931,5.148H8.925A27.681,27.681,0,0,1,6.681,45.162ZM53.27,60.624H4.8V49.352H53.27V60.624Z"/>
    <path class="a" d="M6.8,53.3H51.271a.735.735,0,0,0,0-1.47H6.8a.735.735,0,1,0,0,1.47Z"/>
    <path class="a" d="M6.8,58.142H51.271a.735.735,0,0,0,0-1.47H6.8a.735.735,0,1,0,0,1.47Z"/>
  </g>
</svg>
