<svg xmlns="http://www.w3.org/2000/svg" viewBox="0 0 48.604 48.602">
  <defs>
    <style>
      .a {
        fill: #010101;
      }
    </style>
  </defs>
  <title>Risorsa 31</title>
  <g>
    <path class="a" d="M47.134,6.852h-.58L33.774.082a.733.733,0,0,0-.58-.04L5.914,9.892H3.754a.712.712,0,0,0-.5.21l-3.04,3.04a.712.712,0,0,0,.5,1.22h4.61v7.66a2.245,2.245,0,0,0,1.53,2.12v1.03a.085.085,0,0,1-.02.06,2.235,2.235,0,1,0,2.96,2.11.71.71,0,0,0-1.42,0,.81.81,0,0,1-1.62,0,.8.8,0,0,1,.55-.76,1.469,1.469,0,0,0,.97-1.41v-1.04a2.227,2.227,0,0,0,1.52-2.11v-7.66h.81a.715.715,0,0,0,0-1.43h-.81v-1.62h22.59L34,12.932H13.654a.715.715,0,1,0,0,1.43h16.93l1.26,5.69a1.491,1.491,0,0,0,.88,1.05v23.04h-.81a.706.706,0,0,0-.71.71v2.33h-.81a.71.71,0,0,0,0,1.42h10.65a.71.71,0,1,0,0-1.42h-.81v-2.33a.706.706,0,0,0-.71-.71h-.81V21.022a1.473,1.473,0,0,0,.76-1.29v-5.37H47.2a1.479,1.479,0,0,0,1.4-1.47V8.322A1.472,1.472,0,0,0,47.134,6.852Zm-41.81,6.08H2.434l1.62-1.62h1.27Zm2.24,9.9a.81.81,0,1,1,.81-.81A.813.813,0,0,1,7.564,22.832Zm.81-2.89a2.206,2.206,0,0,0-.81-.16,2.166,2.166,0,0,0-.81.16v-5.58h1.62Zm0-7.01H6.754v-1.62h1.62Zm24.35-3.04H10.1l22.62-8.17ZM38,14.362h.05v5.38a.046.046,0,0,1-.05.04h-4.72a.055.055,0,0,1-.05-.03l-.35-1.59h2.84a.706.706,0,0,0,.71-.71v-3.09Zm-.71,26.54v3.24h-2.43Zm-3.15,1.81v-3.24h2.43Zm.72-4.66,2.43-3.24v3.24Zm-.72-1.43v-3.24h2.43Zm.72-4.66,2.43-3.24v3.24Zm-.72-1.42V27.3h2.43Zm.72-4.67,2.43-3.24v3.24Zm-.72-1.42v-3.24h2.43Zm1.21-12.17,1.94-2.59v3.24h-1.28Zm1.94-5.43h-2.43l2.43-3.24Zm-3.15-4.96,1.9,1.01-1.9,2.52Zm0,6.38h2.43l-2.24,2.99-.19-.19Zm-1.57,8.47-.53-2.38H35v2.38Zm6.24,28.82v1.62h-6.19v-1.62Zm1.52-37.24v4.61h-1.57v.01h-.05V4.312l4.79,2.54H41.8A1.472,1.472,0,0,0,40.334,8.322Zm6.85,1.57h-2.33a.71.71,0,0,0,0,1.42h2.33v1.58a.046.046,0,0,1-.05.04h-5.38v-1.62h.05a.71.71,0,1,0,0-1.42h-.05V8.322a.054.054,0,0,1,.05-.05h5.33a.047.047,0,0,1,.05.05Z"/>
    <path class="a" d="M27.957,45.439H26.409l-.127-1.266h1.359V41.642H26.029L25.9,40.377h1.422V37.846H25.65l-.127-1.265h1.485V34.05H25.27l-.127-1.266h1.233V30.253H24.89l-.126-1.265H22.23l.126,1.265H16.475l.127-1.265H14.068l-.127,1.265H12.456v2.531h1.232l-.126,1.266H11.823v2.531h1.485l-.126,1.265H11.507v2.531h1.422L12.8,41.642H11.19v2.531h1.359l-.126,1.266H10.874v2.53h1.3l-.064.633H14.64l.064-.633h9.424l.063.633h2.534l-.063-.633h1.3Zm-15.724,1.9h-.726V46.071h.852Zm.379-3.8h-.789V42.275h.916Zm14.08-5.061v1.265h-.853l-.126-1.265Zm-.316-3.8v1.266H25.46l-.127-1.266Zm-.633-3.8v1.266H25.08l-.126-1.266Zm-9.521,1.9h.663v-.632h-.6l.127-1.266H22.42l.126,1.266H17.518v.632H22.61l.126,1.266H16.1Zm-.19,1.9H22.8l.127,1.266h-7.02Zm-.7,6.96.127-1.265h7.906l.126,1.265Zm8.222.633.127,1.265H15.146l.127-1.265Zm-8.032-2.531.127-1.265h7.526l.126,1.265Zm.19-1.9.126-1.265h7.147l.127,1.265Zm-2.627-5.694V30.886h.789l-.127,1.266Zm-.633,3.8V34.682H13.5l-.126,1.266Zm-.316,3.8V38.479h.979l-.127,1.265Zm1.928,8.225H12.805L14.64,29.621H15.9Zm.7-.632.126-1.266h7.686v-.632H14.957l.126-1.266h8.665l.127,1.266h-.663v.632h.726l.127,1.266Zm10,.632L22.929,29.621h1.262l1.835,18.348Zm1.328-5.694h.916V43.54h-.789Zm1.233,5.062H26.6l-.127-1.266h.853Z"/>
  </g>
</svg>
