<svg xmlns="http://www.w3.org/2000/svg" viewBox="0 0 22.057 21.188">
  <defs>
    <style>
      .a {
        fill: #010101;
        stroke: #231f20;
        stroke-miterlimit: 10;
        stroke-width: 0.5px;
      }
    </style>
  </defs>
  <title>Risorsa 29</title>
  <path class="a" d="M21.728,6.138V6.13L21.807,2a.487.487,0,0,0-.363-.481L16.7.268h-.011a.572.572,0,0,0-.057-.011l-.017,0h-.063a.42.42,0,0,0-.062.007l-.018,0-.05.013-.009,0L10.253,2.357,7.7,2.667a.493.493,0,0,0-.269.122L.564,9A.485.485,0,0,0,.406,9.4l.245,2.657-.4,5.56v.009a.4.4,0,0,0,0,.049v.015a.54.54,0,0,0,.008.058l0,.008a.41.41,0,0,0,.014.05l.005.014a.532.532,0,0,0,.021.05l0,.005a.433.433,0,0,0,.031.051l.009.012a.307.307,0,0,0,.028.035l.013.015L.392,18c.009.009.018.016.027.024l.008.008a.548.548,0,0,0,.049.035l0,0,4.507,2.794.008,0a.375.375,0,0,0,.044.024l.012,0q.029.012.057.021l.009,0,.05.011.017,0a.546.546,0,0,0,.057,0h0a.331.331,0,0,0,.044,0l6.177-.561h0a.461.461,0,0,0,.05-.007l.009,0,.04-.01.013,0,.034-.013.014-.007.031-.015.015-.009.027-.017.017-.013.022-.018.018-.016.009-.008.01-.011.016-.018.018-.023.008-.01L21.637,6.4l0,0,.011-.016.011-.017.009-.018.009-.018.009-.018.008-.02.006-.017.01-.033,0-.007c0-.013.006-.026.008-.039V6.186l0-.033Zm-.965-.584-.64-.1a.488.488,0,0,0-.148.964l.408.063L11.359,19.137,9.3,17.081l2.709-2.709a.5.5,0,0,0,.107-.161l2.272-5.6,2.086-2.731,1.859.286a.627.627,0,0,0,.074.005.488.488,0,0,0,.074-.97l-1.7-.261.235-3.583,3.809,1ZM1.517,17.566,7.783,11.3l.091.3a.488.488,0,0,0,.935-.278l-.191-.639,4.494-1.516-1.86,4.58L9.927,15.077l-.645-2.161a.487.487,0,0,0-.934.278l.8,2.668-.874.874h0l-3.1,3.1Zm7.1.205L10.34,19.5l-3.8.346ZM7.968,3.617l1.62-.2L8.931,4.985,5.566,7.766a.488.488,0,1,0,.621.752L9.645,5.66a.476.476,0,0,0,.139-.187l.943-2.247,5.307-1.793-.246,3.745L13.667,7.955,7.861,9.915l-.012,0-.032.013L7.8,9.94l-.032.017-.014.009-.033.023L7.711,10c-.014.012-.028.024-.041.037L1.318,16.386,1.612,12.3l3.3-2.724a.488.488,0,0,0-.622-.752L1.541,11.092,1.4,9.557Z"/>
</svg>
