<svg xmlns="http://www.w3.org/2000/svg" viewBox="0 0 14.251 18.308">
  <defs>
    <style>
      .a {
        fill: #010101;
      }
    </style>
  </defs>
  <title>Risorsa 30</title>
  <g>
    <path class="a" d="M7.893.333a1.05,1.05,0,0,0-1.534,0C5.707,1.081,0,7.741,0,11.317a7.068,7.068,0,0,0,7.126,6.991,7.067,7.067,0,0,0,7.125-6.991C14.251,7.741,8.544,1.081,7.893.333ZM7.126,16.271a5.093,5.093,0,0,1-5.091-4.954C2.035,9.422,4.9,5.3,7.126,2.58c2.226,2.714,5.09,6.84,5.09,8.737A5.092,5.092,0,0,1,7.126,16.271Z"/>
    <path class="a" d="M7.126,14.236a1.018,1.018,0,0,0,0-2.036.971.971,0,0,1-1.017-.85,1.018,1.018,0,1,0-2.034.082A2.985,2.985,0,0,0,7.126,14.236Z"/>
  </g>
</svg>
