<svg xmlns="http://www.w3.org/2000/svg" viewBox="0 0 96.15 72.854">
  <defs>
    <style>
      .a {
        fill: #010101;
      }
    </style>
  </defs>
  <title>Risorsa 34</title>
  <g>
    <path class="a" d="M42.5,31.574H36.89v-1.01H35.28v1.01H29.67a.8.8,0,0,0-.8.8v15.24a.8.8,0,0,0,.8.8H42.5a.8.8,0,0,0,.8-.8V32.374A.8.8,0,0,0,42.5,31.574Zm-.8,15.24H30.47V36.384H41.7Zm0-12.03H30.47v-1.61H41.7Z"/>
    <path class="a" d="M49.53,7.074,15.05.014a.673.673,0,0,0-.2-.01H10.09c-.01,0-.03.01-.04.01a.037.037,0,0,0-.03.01.09.09,0,0,0-.05.01.037.037,0,0,0-.03.01c-.01,0-.02.01-.04.01a.037.037,0,0,1-.03.01.052.052,0,0,1-.04.02c-.01.01-.02.01-.03.02s-.02.01-.03.02-.03.01-.04.02a.01.01,0,0,1-.01.01L.31,7.214a.01.01,0,0,0-.01.01c-.01.01-.02.01-.03.02l-.03.03c-.01.01-.02.01-.02.02l-.04.04-.01.02a.138.138,0,0,0-.03.04c-.01.01-.01.01-.01.02s-.02.03-.03.04a.031.031,0,0,0-.01.02c-.01.02-.02.03-.03.05a.037.037,0,0,1-.01.03c0,.01-.01.03-.01.04s-.01.02-.01.03-.01.03-.01.04-.01.02-.01.03a.075.075,0,0,1-.01.05v3.23a.781.781,0,0,0,.78.78H3.13V14.1a.8.8,0,0,0,.79.79H7.05a.785.785,0,0,0,.79-.79v-2.35H9.4v49.37H7.84a.785.785,0,0,0-.79.79v5.48H5.48a1.571,1.571,0,0,0-1.56,1.57v2.35a.79.79,0,0,0,.78.79H20.38a.79.79,0,0,0,.78-.79v-2.35a1.573,1.573,0,0,0-1.57-1.57H18.02v-5.48a.783.783,0,0,0-.78-.79H15.67V11.754h19.6v14.11H33.7a.792.792,0,0,0-.62.3.771.771,0,0,0-.14.67l.78,3.14a.792.792,0,0,0,.76.59h3.14a.781.781,0,0,0,.76-.59l.78-3.14a.771.771,0,0,0-.14-.67.792.792,0,0,0-.62-.3H36.83v-9.22a6.474,6.474,0,0,0,5.49,2.95c4.32,0,7.84-3.87,7.84-8.62V7.844A.782.782,0,0,0,49.53,7.074ZM10.97,1.564h3.14v5.49H10.97Zm0,7.06h3.14v1.56H10.97Zm0,3.13h3.14v2.46l-3.14-2.09Zm0,2.25,3.14,2.09V17.6l-3.14,2.09Zm0,7.58,3.14-2.1v5.7l-3.14-2.09Zm0,3.39,3.14,2.09v1.51l-3.14,2.09Zm0,7.58,3.14-2.09v5.69l-3.14-2.09Zm0,3.39,3.14,2.09v1.51l-3.14,2.09Zm0,7.58,3.14-2.09v5.69l-3.14-2.09Zm0,3.39L14.11,49v1.52l-3.14,2.09Zm0,7.58,3.14-2.09v5.69L10.97,56Zm0,3.4,3.14,2.09v1.14H10.97ZM3.13,10.184H1.57V8.624H3.13Zm3.14,3.14H4.7v-4.7H6.27ZM3.13,7.054l6.27-4.7v4.7Zm4.71,3.13V8.624H9.4v1.56Zm11.75,58.78v1.57H5.48v-1.57Zm-3.13-6.27v4.7H8.62v-4.7Zm-.79-60.95,25.96,5.31H15.67ZM37.4,27.424l-.4,1.57H35.09l-.39-1.57Zm4.92-9.4c-3.02,0-5.19-2.54-5.46-6.27H48.55C48.2,15.274,45.54,18.024,42.32,18.024Zm6.27-7.84H15.67V8.624H48.59Z"/>
    <rect class="a" x="32" y="37.885" width="1.604" height="7.219"/>
    <rect class="a" x="35.209" y="37.885" width="1.604" height="7.219"/>
    <rect class="a" x="38.417" y="37.885" width="1.604" height="7.219"/>
    <path class="a" d="M94.63,29.764h-.61l-13.18-6.98a.74.74,0,0,0-.6-.04L52.09,32.9H49.87a.709.709,0,0,0-.52.22l-3.14,3.14a.721.721,0,0,0-.16.8.73.73,0,0,0,.67.45h4.77v7.9a2.315,2.315,0,0,0,1.57,2.19v1.07a.085.085,0,0,1-.02.06,2.308,2.308,0,1,0,3.06,2.18.735.735,0,0,0-1.47,0,.845.845,0,0,1-.84.84.837.837,0,0,1-.26-1.63,1.515,1.515,0,0,0,1-1.45V47.6a2.315,2.315,0,0,0,1.57-2.19v-7.9h.83a.735.735,0,1,0,0-1.47H56.1v-1.67H79.4l1.67,1.67h-21a.735.735,0,0,0,0,1.47H77.55l1.3,5.88a1.5,1.5,0,0,0,.91,1.07v23.78h-.84a.734.734,0,0,0-.73.73v2.41h-.84a.735.735,0,0,0,0,1.47H88.34a.735.735,0,1,0,0-1.47h-.83v-2.41a.736.736,0,0,0-.74-.73h-.83V44.394a1.515,1.515,0,0,0,.78-1.33v-5.55H94.7a1.526,1.526,0,0,0,1.45-1.52v-4.71A1.526,1.526,0,0,0,94.63,29.764Zm-43.14,6.28H48.5l1.67-1.67h1.32Zm2.3,10.21a.835.835,0,1,1,.84-.84A.839.839,0,0,1,53.79,46.254Zm.84-2.98a2.259,2.259,0,0,0-1.67,0v-5.76h1.67Zm0-7.23H52.96v-1.67h1.67ZM79.76,32.9H56.42l23.34-8.43Zm5.45,4.61h.04v5.55a.047.047,0,0,1-.05.05H80.34a.046.046,0,0,1-.05-.04l-.37-1.63h2.93a.736.736,0,0,0,.73-.74v-3.19h1.63Zm-.74,27.38v3.35H81.96Zm-3.24,1.88v-3.34h2.5Zm.73-4.81,2.51-3.35v3.35Zm-.73-1.47v-3.35h2.5Zm.73-4.82,2.51-3.34v3.34Zm-.73-1.47v-3.34h2.5Zm.73-4.81,2.51-3.34v3.34Zm-.73-1.47v-3.34h2.5Zm1.24-12.56,2-2.66v3.34H83.15Zm2-5.6H81.96l2.51-3.34Zm-3.24-5.11,1.95,1.03-1.95,2.61Zm0,6.58h2.5l-2.31,3.08-.19-.19Zm-1.63,8.74-.55-2.46h3.06v2.46Zm6.44,29.74v1.67H79.66v-1.67Zm1.57-38.43v4.76H85.94v-8.9l4.94,2.62H89.13A1.519,1.519,0,0,0,87.61,31.284Zm7.07,1.62H92.27a.735.735,0,0,0,0,1.47h2.41v1.62a.054.054,0,0,1-.05.05H89.08v-1.67h.05a.735.735,0,0,0,0-1.47h-.05v-1.62a.047.047,0,0,1,.05-.05h5.5a.054.054,0,0,1,.05.05Z"/>
  </g>
</svg>
