<svg xmlns="http://www.w3.org/2000/svg" viewBox="0 0 108.835 55.362">
  <defs>
    <style>
      .a {
        fill: #010101;
      }
    </style>
  </defs>
  <title>Risorsa 23</title>
  <g>
    <g>
      <path class="a" d="M108.03,23.333h-3.24V21.71a.807.807,0,0,0-.811-.8h-1.617V19.282a.808.808,0,0,0-.812-.806H98.316a.808.808,0,0,0-.811.806v1.623H95.888a.81.81,0,0,0-.811.8v1.623H62.347V22.11H46.872V16.587H44.66V22.11H38.025V16.587H35.814V22.11H29.179V16.587H26.973V22.11H20.338V16.587H18.126V22.11H11.491v6.635H13.7V24.322H60.136V53.067l-1.445-.005H38.375V53.04L8.18,53.006V33.169H57.924V30.957H5.968V53.006L2.634,53l.833-38.626H7.441l.7,14.426,2.211-.111L8.952,0H1.567L.422,53H0v2.211l62.347.067v-27.1h6.835v1.623a.807.807,0,0,0,.811.8h3.234v1.623H67.565a.807.807,0,0,0-.811.806V36.88h14.57V33.041a.811.811,0,0,0-.812-.806H74.844V30.612h3.24a.81.81,0,0,0,.811-.8V28.184H95.077v1.623a.81.81,0,0,0,.811.8h1.617V50.528H93.282a.806.806,0,0,0-.634.789v3.234a.812.812,0,0,0,.812.811h12.947a.808.808,0,0,0,.811-.811V51.317a.8.8,0,0,0-.628-.789h-4.228V30.612h1.617a.807.807,0,0,0,.811-.8V28.184h3.24a.806.806,0,0,0,.8-.806V24.139A.806.806,0,0,0,108.03,23.333ZM3.729,2.212H6.846l.272,5.529H3.612Zm-.167,7.74H7.224l.111,2.212H3.517Zm65.62,16.615H62.347V24.95h6.835ZM79.7,33.852v1.617h-.922v-.928H77.162v.928H70.844v-.934H69.227v.934h-.856V33.852ZM77.273,29H70.8V24.95h6.474Zm17.8-2.428H78.9V24.95H95.077Zm4.051-6.474h1.617v.812H99.128Zm6.473,32.03v1.622H94.271V52.123Zm-6.473-1.595V30.612h1.617V50.528ZM103.173,29H96.7V22.522h6.474Zm4.045-2.428H104.79V24.95h2.428Z"/>
      <path class="a" d="M89.4,39.175H76.456a.809.809,0,0,0-.811.812V52.123a.808.808,0,0,0,.811.811h.806v2.428h1.622V52.934h8.091v2.428h1.617V52.934H89.4a.812.812,0,0,0,.812-.811V39.987A.813.813,0,0,0,89.4,39.175Zm-.811,12.142h-1.65l.033-1.606-1.617-.033-.033,1.639H80.5V49.694H78.884v1.623H77.262v-3.24h11.33Zm0-4.857H77.262V40.792h11.33Z"/>
      <rect class="a" x="15.916" y="26.534" width="2.211" height="2.211"/>
      <rect class="a" x="20.338" y="26.534" width="2.211" height="2.211"/>
      <rect class="a" x="24.76" y="26.534" width="2.211" height="2.211"/>
      <rect class="a" x="29.182" y="26.534" width="2.211" height="2.211"/>
      <rect class="a" x="33.604" y="26.534" width="2.211" height="2.211"/>
      <rect class="a" x="38.026" y="26.534" width="2.211" height="2.211"/>
      <rect class="a" x="42.448" y="26.534" width="2.211" height="2.211"/>
      <rect class="a" x="46.87" y="26.534" width="2.211" height="2.211"/>
      <rect class="a" x="51.292" y="26.534" width="2.211" height="2.211"/>
      <rect class="a" x="55.714" y="26.534" width="2.211" height="2.211"/>
      <rect class="a" x="10.388" y="35.378" width="2.211" height="13.266"/>
      <rect class="a" x="15.916" y="35.378" width="2.211" height="13.266"/>
      <rect class="a" x="21.443" y="35.378" width="2.211" height="13.266"/>
      <rect class="a" x="26.971" y="35.378" width="2.211" height="13.266"/>
      <rect class="a" x="32.498" y="35.378" width="2.211" height="13.266"/>
    </g>
    <path class="a" d="M56.385,49.267H54.934l-.116-1.184H56.09V45.721H54.584l-.122-1.183H55.79V42.17H54.229l-.117-1.178H55.5V38.625H53.873l-.117-1.178h1.151V35.08H53.518L53.4,33.9H51.034l.116,1.184H45.66l.117-1.184H43.41l-.117,1.184H41.9v2.367h1.15l-.117,1.178H41.315v2.367H42.7l-.116,1.178H41.015v2.368h1.328l-.117,1.183H40.72v2.362h1.273l-.123,1.184H40.426v2.361h1.211l-.061.595h2.367L44,51.628h8.8l.061.595h2.368l-.062-.595h1.212ZM41.693,51.039h-.678V49.856h.8Zm.461-4.606-.106,1.061h-.733V46.31h.85ZM55.2,42.765v1.184h-.794l-.123-1.184Zm-.294-3.545V40.4h-.856l-.117-1.178Zm-.595-3.551v1.184H53.7l-.116-1.184Zm-8.891,1.778h.617v-.594h-.556l.117-1.184h5.612l.117,1.184H46.633v.594h4.756l.117,1.178h-6.2Zm-.178,1.773h6.324l.117,1.178H45.127Zm-.65,6.5.117-1.183H52.1l.122,1.183Zm7.68.589.011.123.111,1.061h-7.98l.106-1.061.011-.123Zm-7.5-2.361.117-1.184h7.029l.122,1.184Zm.178-1.779.117-1.178h6.679l.117,1.178Zm-2.456-5.317V35.669h.739l-.117,1.184ZM41.9,40.4V39.22h.972L42.759,40.4Zm-.3,3.551V42.765h.912L42.4,43.949Zm2.317,2.484-.516,5.2H42.232l.516-5.195.223-2.212.972-9.73h1.178l-.972,9.73Zm.134,4.606.122-1.183h7.179v-.589H44.238l.122-1.184h8.091l.116,1.184H51.95v.589h.678l.117,1.183Zm9.341.589-.523-5.195-.222-2.212-.972-9.73h1.183l.973,9.73.222,2.212.517,5.2Zm1.25-5.195-.011-.123H55.5v1.184h-.739Zm1.139,4.606h-.678L55,49.856h.794Z"/>
  </g>
</svg>
