<svg xmlns="http://www.w3.org/2000/svg" viewBox="0 0 19.339 24.843">
  <defs>
    <style>
      .a {
        fill: #010101;
      }
    </style>
  </defs>
  <title>Risorsa 11</title>
  <g>
    <path class="a" d="M10.71.452a1.425,1.425,0,0,0-2.082,0C7.745,1.467,0,10.505,0,15.356a9.59,9.59,0,0,0,9.669,9.487,9.591,9.591,0,0,0,9.67-9.487C19.339,10.505,11.594,1.467,10.71.452ZM9.669,22.079a6.91,6.91,0,0,1-6.907-6.723c0-2.57,3.887-8.17,6.907-11.854,3.021,3.682,6.908,9.28,6.908,11.854A6.911,6.911,0,0,1,9.669,22.079Z"/>
    <path class="a" d="M9.669,19.317a1.382,1.382,0,1,0,0-2.763A1.317,1.317,0,0,1,8.289,15.4a1.381,1.381,0,1,0-2.76.11A4.049,4.049,0,0,0,9.669,19.317Z"/>
  </g>
</svg>
