<svg xmlns="http://www.w3.org/2000/svg" viewBox="0 0 82.604 79.89">
  <defs>
    <style>
      .a {
        fill: none;
        stroke: #231f20;
        stroke-miterlimit: 10;
        stroke-width: 3px;
      }

      .b {
        font-size: 7.159px;
        fill: #231f20;
        font-family: Futura-Bold, Futura;
        font-weight: 700;
      }

      .c {
        fill: #010101;
      }
    </style>
  </defs>
  <title>banca</title>
  <g>
    <path class="a" d="M1.5,33.9V52.78L1.6,33.9Z"/>
    <path class="a" d="M49.3,58.3V77.76l-16,.14V58.3a7.919,7.919,0,0,1,.99-3.84A8,8,0,0,1,49.3,58.3Z"/>
    <path class="a" d="M55.06,11.68v.38L41.27,19.67,27.54,11.91v-.23c0-5.6,6.19-10.18,13.76-10.18a16.438,16.438,0,0,1,9.72,2.99A9.071,9.071,0,0,1,55.06,11.68Z"/>
    <g>
      <path class="a" d="M24.37,57.91v14.4l-16,.1V57.91a4.445,4.445,0,0,1,.15-1.16c.74-2.71,3.99-4.76,7.85-4.76a9.511,9.511,0,0,1,5.65,1.74A5.266,5.266,0,0,1,24.37,57.91Z"/>
      <path class="a" d="M74.23,57.91v14.4l-16,.1V57.91c0-3.26,3.6-5.92,8-5.92a9.511,9.511,0,0,1,5.65,1.74,5.647,5.647,0,0,1,2.21,3.09A4.4,4.4,0,0,1,74.23,57.91Z"/>
    </g>
    <text class="b" transform="translate(32.475 11.933) scale(0.813 1)">BANK</text>
    <path class="c" d="M49.234,39.386l-1.042-5.039a.317.317,0,0,0-.166-.232.218.218,0,0,0-.242.049l-3.125,3.024a.335.335,0,0,0-.072.114l-.009.014-.691,1.931.926-10.15a.373.373,0,0,0,0-.067.076.076,0,0,0,0-.015v-.006a.415.415,0,0,0-.036-.124l-.013-.025a.3.3,0,0,0-.077-.093l-3.126-2.351a.212.212,0,0,0-.276.01l-3.125,2.688a.327.327,0,0,0-.069.09l-.011.022a.4.4,0,0,0-.032.115l0,.006s0,.01,0,.015a.379.379,0,0,0,0,.058l.456,7.363L36.385,34.51a.22.22,0,0,0-.21-.073.27.27,0,0,0-.18.159l-2.344,5.039a.407.407,0,0,0-.036.142.423.423,0,0,0,0,.05.4.4,0,0,0,.01.1l1.694,5.931h-.668v.672H46.117v-.672H45.6l3.6-6.181c0-.007,0-.015.008-.022a.407.407,0,0,0,.031-.091c0-.013.006-.024.008-.038A.421.421,0,0,0,49.234,39.386Zm-1.822-4.021-1.326,4.887-.947-2.688ZM41.438,27.1l2.693,2.026L42.363,31.41H39.986l-1.294-1.947Zm-2.8,10.708h0l.279.3-2.208,2.071-.2-4.66ZM36.006,35.88l.193,4.477-1.929-.746Zm.213,9.975H35.88L34.3,40.323l1.982.767,1.385,4.765Zm2.865,0h-.861l-1.43-4.917,2.291-2.15Zm.521,0V38.129a.455.455,0,0,0-.015-.091c0-.016,0-.034-.009-.049a.337.337,0,0,0-.069-.118l-.452-.486L38.627,30.4l.985,1.483.756,13.975Zm1.842,0H40.89l-.745-13.773h2.047ZM42.723,31.9l1.485-1.915L43.183,41.214l-1.135,3.173ZM42.1,45.855l1.578-4.407h0l1.139-3.183,1.014,2.876-1.95,4.715Zm2.849,0h-.477l1.838-4.444,1.857-1.089Zm1.619-5.334,1.343-4.947.767,3.71Z"/>
    <path class="a" d="M81.1,25.33,56.35,11.35l-1.29.71L41.27,19.67l10.02,5.66-.04,8.57-.02,2.56-.08,16.57-2.78,1.53a8,8,0,0,1,.93,3.74V77.76l-16,.14V58.3a7.919,7.919,0,0,1,.99-3.84l-2.98-1.68.08-16.19.02-2.69.04-8.82,9.82-5.41L27.54,11.91l-1-.56L1.64,25.08,1.6,33.9,1.5,52.78V78.39H81.1V33.9h-.04ZM24.37,72.31l-16,.1V57.91a4.445,4.445,0,0,1,.15-1.16c.74-2.71,3.99-4.76,7.85-4.76a9.511,9.511,0,0,1,5.65,1.74,5.266,5.266,0,0,1,2.35,4.18Zm0-25.62-16,.1V32.29c0-3.26,3.6-5.92,8-5.92a9.511,9.511,0,0,1,5.65,1.74,5.266,5.266,0,0,1,2.35,4.18Zm33.86-14.4c0-3.26,3.6-5.92,8-5.92a9.511,9.511,0,0,1,5.65,1.74,5.266,5.266,0,0,1,2.35,4.18v14.4l-16,.1Zm16,40.02-16,.1V57.91c0-3.26,3.6-5.92,8-5.92a9.511,9.511,0,0,1,5.65,1.74,5.647,5.647,0,0,1,2.21,3.09,4.4,4.4,0,0,1,.14,1.09Z"/>
    <path class="a" d="M24.37,32.29v14.4l-16,.1V32.29c0-3.26,3.6-5.92,8-5.92a9.511,9.511,0,0,1,5.65,1.74A5.266,5.266,0,0,1,24.37,32.29Z"/>
    <path class="a" d="M51.29,25.33l-.04,8.57-.02,2.56-.08,16.57-2.78,1.53a7.992,7.992,0,0,0-14.08-.1l-2.98-1.68.08-16.19.02-2.69.04-8.82,9.82-5.41Z"/>
    <path class="a" d="M74.23,32.29v14.4l-16,.1V32.29c0-3.26,3.6-5.92,8-5.92a9.511,9.511,0,0,1,5.65,1.74A5.266,5.266,0,0,1,74.23,32.29Z"/>
  </g>
</svg>
