<svg xmlns="http://www.w3.org/2000/svg" viewBox="0 0 179.932 89.966">
  <defs>
    <style>
      .a {
        fill: #fff;
      }
    </style>
  </defs>
  <title>depositocarburantegrande</title>
  <g>
    <g>
      <rect class="a" x="89.966" width="89.966" height="89.966"/>
      <rect class="a" width="89.966" height="89.966"/>
    </g>
    <g>
      <path d="M164.491,54.66a1.9,1.9,0,0,1-.618-1.615q.015-11.46-.009-22.92a1.593,1.593,0,0,1,.817-1.567,3.36,3.36,0,0,0,.351-5.521,3.336,3.336,0,0,1-1.425-2.585,9.607,9.607,0,0,0-.333-1.539,14.836,14.836,0,0,0-3.135-5.759,21.732,21.732,0,0,0-5.027-3.829,19,19,0,0,0-12.344-1.083c-6.708,1.5-11.022,6.461-11.991,13.227a1.4,1.4,0,0,1-.7,1.14,3.465,3.465,0,0,0-.038,6.053c.324.228.675.361.666.893-.029,3.222-.01,6.433-.01,9.778-2.461-1.007-2.461-1.007-2.461-3.383,0-.532.019-1.064-.009-1.6-.039-.865-.447-1.368-1.378-1.349-.856.009-1.711-.029-2.566.009-.637.019-.884-.228-.865-.865.038-.978.029-1.967-.009-2.945a7.143,7.143,0,0,0-5.977-6.9c-3.564-.57-7.174-.152-10.757-.219l-5.34-.018c-1.311-.01-2.623-.058-3.924.009a7.4,7.4,0,0,0-7.032,6.062,23.808,23.808,0,0,0-.124,4.039,1.409,1.409,0,0,1-.722,1.378,3.418,3.418,0,0,0-.038,5.9,1.442,1.442,0,0,1,.76,1.358q-.028,11.716,0,23.414a1.292,1.292,0,0,1-.7,1.254,3.463,3.463,0,0,0-.019,5.977,1.391,1.391,0,0,1,.722,1.388c-.038,1.748-.038,3.506,0,5.264.01.713-.057,1.159-.978,1.093a1.553,1.553,0,0,0-.656.076,4.253,4.253,0,0,0-.846-.067,30.062,30.062,0,0,0-3.192.019c-1.093.1-1.321-.294-1.321-1.34q.057-19.185.028-38.379c0-2.366,0-2.366,2.376-2.528.047-.009.085,0,.133-.009A1.221,1.221,0,0,0,87.1,35.7c0-.8-.523-1.188-1.312-1.273-.817-.095-1.938.428-2.385-.285-.389-.618-.1-1.654-.114-2.509v-.5c0-2.965,0-2.984-2.974-3.079-.656-.019-.9-.181-.874-.865.038-1.492.009-2.983.009-4.475,0-2.138-.209-2.357-2.309-2.357H19.828c-1.406.029-1.767.409-1.777,1.853-.009,1.2-.009,2.385-.009,3.582,0,2.186,0,2.214-2.148,2.233-1.188.01-1.729.523-1.691,1.7.028.732,0,1.454,0,2.176,0,2.366,0,2.366-2.376,2.537a1.156,1.156,0,0,0-.256.01,1.214,1.214,0,0,0-1.179,1.264,1.2,1.2,0,0,0,1.188,1.254,4.763,4.763,0,0,0,1.273.01c1.179-.21,1.388.313,1.378,1.4C14.193,48.645,14.2,58.927,14.2,69.2c0,3.031-.019,6.053.019,9.084.009.713-.19.979-.931.941-1.226-.057-2.471-.019-3.706-.01-1.359.01-1.758.4-1.768,1.73-.019,1.662-.009,3.325-.009,4.988,0,.124,0,.238.009.352H164.443c1.521,0,1.834-.3,1.834-1.739q.015-12.815,0-25.618A5.452,5.452,0,0,0,164.491,54.66ZM73.031,26.819a20.7,20.7,0,0,0,0-3.07c-.028-.684.238-.921.884-.836.124.01.256,0,.39,0,2.594-.019,2.594-.019,2.594,2.556s-.01,2.537-2.594,2.594C73.326,28.082,72.927,27.854,73.031,26.819ZM64.08,23.607c-.009-.58.257-.722.77-.7.807.028,1.615.009,2.622.009.846.143,2.233-.494,2.842.247.513.618.171,1.948.18,2.965.01,1.91,0,1.91-1.967,1.91-1.235,0-2.47-.019-3.706.009-.551.01-.75-.171-.741-.731Q64.137,25.459,64.08,23.607Zm-8.942,1.216c-.009-1.91,0-1.91,1.967-1.91,1.236,0,2.471.019,3.706-.009.551-.01.751.171.742.731-.029,1.236-.038,2.471,0,3.706.009.589-.248.722-.77.7-.808-.028-1.616-.009-2.623-.009-.846-.143-2.233.494-2.841-.247C54.806,27.17,55.148,25.84,55.138,24.823ZM44.9,23.607c-.019-.589.257-.7.77-.7,2.043.019,4.086.028,6.129,0,.608-.01.826.19.807.8-.038,1.2-.047,2.385,0,3.582.019.646-.266.779-.836.76-1.026-.028-2.043-.009-3.069-.009s-2.043-.019-3.069.009c-.551.019-.741-.18-.732-.731Q44.939,25.459,44.9,23.607Zm-6.927-.694c1.15,0,2.3.038,3.449-.009.694-.038,1.036.152.941.912-.038.333,0,.675-.01,1.017-.028,1.016.324,2.347-.19,2.964-.608.723-2,.105-2.841.238-3.373,0-3.373,0-3.373-3.136C35.944,22.913,35.944,22.913,37.968,22.913Zm-9.037,0c1.2,0,2.385.029,3.583-.009.627-.019.931.123.893.836-.048,1.188-.029,2.375,0,3.573.009.551-.19.75-.741.731-.808-.038-1.616-.009-2.623-.009-.846-.124-2.186.466-2.87-.228-.608-.627-.161-1.948-.171-2.955C26.974,22.913,26.993,22.913,28.931,22.913Zm-8.124.19c.855-.418,2.062-.152,3.117-.19.494-.009.522.314.513.675v1.919c.009,2.547,0,2.49-2.623,2.556-1.036.029-1.359-.3-1.226-1.282.057-.419-.019-.846.01-1.274C20.674,24.671,20.2,23.4,20.807,23.1Zm-1.483,7.488q29.99,0,59.988-.028c1.188-.01,1.492.313,1.445,1.463-.086,2.4-.019,2.4-2.4,2.4H48.687c-10.234,0-20.468-.01-30.7.028-1.027,0-1.274-.285-1.255-1.273C16.787,30.591,16.74,30.591,19.324,30.591Zm50.6,30.7c-1.055-.019-2.414.465-3.069-.209s-.181-2.024-.19-3.079c-.029-3.107-.01-3.107,3.183-3.022,1.017,0,2.366-.389,2.965.105.712.6.218,1.995.228,3.041C73.079,61.3,73.06,61.321,69.924,61.293ZM73.06,40.236c0,3.155,0,3.155-3.155,3.155-.684,0-1.368-.057-2.043.009-.9.095-1.3-.133-1.235-1.15.095-1.492.047-2.983.019-4.475-.019-.608.18-.817.8-.8,1.615.028,3.231.038,4.856,0,.646-.019.788.256.76.826C73.031,38.611,73.06,39.428,73.06,40.236ZM64.128,77.988c0,1.027-.3,1.245-1.283,1.245q-22.449-.042-44.889,0c-.931,0-1.226-.19-1.226-1.178q.057-19.955,0-39.91c0-.978.285-1.187,1.217-1.178,7.506.038,15,.019,22.51.019,7.46,0,14.929.019,22.388-.019.96-.009,1.283.2,1.283,1.235Q64.071,58.1,64.128,77.988Zm2.537-28.906c-.038-3.145-.01-3.164,3.155-3.126,1.045.01,2.432-.484,3.04.228.513.6.162,1.939.2,2.955v.124c0,3.079,0,3.1-3.107,3.069-1.055-.009-2.405.456-3.079-.19S66.674,50.128,66.665,49.082Zm6.195,29.9c-.617.7-2,.209-3.05.218-3.155.038-3.183.019-3.145-3.136.009-1.045-.475-2.413.218-3.059.675-.637,2.024-.181,3.079-.181,3.1-.028,3.1-.009,3.1,3.069v.133h.047C73.05,77.038,73.383,78.378,72.86,78.977Zm.01-8.942c-.684.684-2.024.095-2.813.219-3.4,0-3.43,0-3.392-3.165.009-1.045-.485-2.432.228-3.04.6-.514,1.938-.19,2.955-.19s2.347-.333,2.955.18c.722.608.219,2,.238,3.041C73.06,68.087,73.487,69.408,72.87,70.035Zm7.887,7.887c.009,1.093-.3,1.406-1.35,1.311a25.372,25.372,0,0,0-3.059-.019c-.552.019-.808-.161-.742-.722.019-.209,0-.428,0-.637,0-13.179.019-26.349-.028-39.52-.01-1.159.313-1.5,1.416-1.358,1.207.142,2.831-.533,3.535.275.6.694.2,2.271.2,3.459.01,5.834,0,11.678,0,17.522C80.728,64.79,80.709,71.356,80.757,77.922Zm83.268-18.815c.038,3.184.01,6.367.01,9.56s-.048,6.366.028,9.549c.019,1.169-.675.932-1.34.979-.75.048-1.178-.028-1.178-1.007.047-5.635.029-11.27.029-16.9,0-2.6-.837-3.439-3.44-3.439-1.635,0-3.269-.057-4.894.019-.979.057-1.216-.267-1.226-1.217-.019-1.007.238-1.321,1.273-1.283,2.329.086,4.657.019,6.994.029A3.434,3.434,0,0,1,164.025,59.107ZM92.492,72.857c-.038-1.055.675-.808,1.226-.8.522.019,1.3-.333,1.245.76-.048.931-.01,1.872-.01,2.813a20.842,20.842,0,0,0,.019,2.318C95.1,79,94.687,79.233,93.7,79.224c-.97-.01-1.264-.266-1.217-1.236C92.558,76.287,92.549,74.568,92.492,72.857Zm4.789-.247a1.251,1.251,0,0,1,.694-1.159A3.457,3.457,0,0,0,98,65.531a1.449,1.449,0,0,1-.722-1.387q.028-11.631,0-23.272A1.562,1.562,0,0,1,98.07,39.4a3.389,3.389,0,0,0,.1-5.683,1.9,1.9,0,0,1-.893-1.91c-.009-3.135.076-2.622,2.661-2.641,2.29-.019,4.58,0,6.86,0,2.7,0,5.4.028,8.087-.019,1.045-.019,1.5.313,1.482,1.387-.076,3.05.361,2.414-2.432,2.461-2.262.038-2.452.076-2.271,2.366.152,1.958-.457,2.974-2.224,4.058-6.481,3.962-9.673,9.92-9.654,17.55a19.342,19.342,0,0,0,4.219,11.992,2.035,2.035,0,0,1,.494,1.321c-.019,2.651-.038,5.3.009,7.963.01.76-.228.979-.978.96-1.8-.048-3.592-.038-5.388-.01-.618.01-.874-.171-.865-.817C97.319,76.459,97.31,74.53,97.281,72.61Zm35.643-42.143c-.028-1.13.352-1.33,1.387-1.311,4.324.048,8.648.019,12.981.019,4.409,0,8.818.019,13.227-.019.826,0,1.111.19,1.111,1.074q-.042,10.9,0,21.8c0,.884-.228,1.036-1.092,1.007-2.528-.085-5.055-.047-7.583-.028a1.622,1.622,0,0,1-1.606-.779,3.428,3.428,0,0,0-5.768.028,1.511,1.511,0,0,1-1.492.751c-1.3-.038-2.765.351-3.867-.124-1.207-.513-.9-2.261-1.378-3.42a20.957,20.957,0,0,0-5.074-7.545,2.271,2.271,0,0,1-.827-1.9C132.981,36.844,133.01,33.651,132.924,30.467Zm-9.873,43.72a17.888,17.888,0,0,1-19.565-10.528c-.446-1.036-.256-1.188.789-1.188,6.775.038,13.56.019,20.335.019a7.091,7.091,0,0,0,1.1-.028c.342-.048,5.017.038,5.511.028,1.511-.009,3.022.038,4.533-.019.921-.028,1.036.209.665,1.026A17.528,17.528,0,0,1,123.051,74.187Zm9.94-2.109v6.585a.487.487,0,0,1-.266.494,2.024,2.024,0,0,1-2.642-1.235c-.969-2.509-.409-4.3,2.147-5.34A5.053,5.053,0,0,0,132.991,72.078Zm-7.65,7.108h-5.4c-2.366,0-4.732-.019-7.1.009-.741.01-1.178-.019-.836-.988.285-.836.038-2.072.684-2.518s1.625.342,2.48.532a20.455,20.455,0,0,0,11.213-.523c.731-.247.893-.057,1.064.561C128.3,79.186,128.306,79.186,125.341,79.186Zm-18.567-1.777c-.029-1.73-.01-3.469-.01-5.445.865.608,1.445,1.045,2.053,1.444,1.625,1.074,1.634,1.074,1.216,3.022a19.193,19.193,0,0,0-.37,1.91c-.067.694-.409.865-1.046.855C106.356,79.148,106.8,79.357,106.774,77.409Zm28.6-7.07a2.174,2.174,0,0,1,.513-1.435,18.551,18.551,0,0,0,3.677-7.9c.143-.722.466-1.036,1.236-.96a15.441,15.441,0,0,0,2.2.01,2.888,2.888,0,0,1,2.946,1.244,3.279,3.279,0,0,0,5.34-.313,1.857,1.857,0,0,1,1.882-.941c1.672.057,3.344.048,5.017,0,.722-.009,1.007.181,1.007.96q-.043,8.637,0,17.275c.009.808-.314.922-1,.912-3.639-.028-7.269-.009-10.908-.009s-7.27-.019-10.9.019c-.807.009-1.035-.228-1.026-1.027C135.414,75.565,135.4,72.952,135.376,70.339Zm8.932-12.5c-.608.029-1.216.01-1.825.01h-.855c-1.6,0-1.9-.419-1.587-2.005.095-.476.371-.447.694-.447,1.178,0,2.357.028,3.535-.01.912-.028.712.628.646,1.084C144.859,56.96,145.391,57.8,144.308,57.834Zm2.955-3.668a1.14,1.14,0,0,1,1.292-1.178,1.122,1.122,0,0,1,1.112,1.216c.019.779.01,1.549.01,2.328-.01.817.009,1.635-.01,2.452a1.133,1.133,0,0,1-1.159,1.178,1.1,1.1,0,0,1-1.235-1.1C147.225,57.425,147.216,55.791,147.263,54.166Zm-9.645-.247a17.7,17.7,0,0,1,0,5.35c-.114.713-.361.988-1.083.969-1.758-.038-3.516-.009-5.274-.009-.636.009-5.264.028-5.616.028q-2.451-.029-4.9-.028h-6.49c-3.592,0-7.193-.019-10.785.009-.789.01-1.1-.161-1.235-1.036a19.186,19.186,0,0,1,.038-5.473c.095-.675.389-.779.95-.779q16.662.014,33.334,0C137.295,52.94,137.5,53.216,137.618,53.919Zm-4.485-32.754a12.481,12.481,0,0,1,6.091-9.037,16.518,16.518,0,0,1,15.441-.351c.342.171,3.478,2.584,3.7,2.85.152.19.313.38.456.57a13.321,13.321,0,0,1,2.613,5.987c.123.693.009.9-.732.9q-13.427-.027-26.844,0C133.086,22.086,133.019,21.849,133.133,21.165ZM130.6,25.621a1.151,1.151,0,0,1,1.178-1.168c.285-.019.57-.019.855-.019h29.258c.323,0,.646,0,.969.028a1.13,1.13,0,0,1,1.112,1.1,1.157,1.157,0,0,1-1.055,1.283,7,7,0,0,1-1.092.048H132.81a8.5,8.5,0,0,1-1.093-.038A1.171,1.171,0,0,1,130.6,25.621Zm-2.87,14.852a18.018,18.018,0,0,1,8.628,8.99c.428.959.323,1.254-.8,1.244-5.235-.038-10.462-.019-15.688-.019-5.188,0-10.376-.019-15.565.019-1,.01-1.311-.1-.826-1.2a18.186,18.186,0,0,1,8.162-8.8,5.617,5.617,0,0,1,2.8-.675c3.763.038,7.516.029,11.279.01A4.282,4.282,0,0,1,127.726,40.473Zm-2.746-5.2c1.112-.019.9.646.9,1.263,0,.637.181,1.312-.912,1.255-1.711-.095-3.431-.029-5.141-.029-1.682,0-3.354-.057-5.027.019-1.083.057-.912-.617-.921-1.264s-.124-1.263.94-1.244C118.205,35.333,121.6,35.342,124.98,35.276ZM92.5,29.793a5.149,5.149,0,0,1,5.274-5.378c1.178-.029,2.366,0,3.554-.019.266,0,5.217-.029,5.4-.01.323.029.646.019.97.019,2.784,0,5.558-.047,8.343.019A5.118,5.118,0,0,1,121.16,29.7c.01.731-.047,1.473.01,2.2.076.856-.228,1.112-1.093,1.131-.988.019-1.587-.142-1.378-1.321a7.981,7.981,0,0,0,.01-1.349,3.237,3.237,0,0,0-3.5-3.516c-1.226-.028-2.452-.009-3.678-.009-4.247,0-8.494-.01-12.751,0-2.623.009-3.82,1.206-3.83,3.8v1.719c0,.3-.047.523-.409.628-1.368.418-2.043-.057-2.043-1.473Zm-2.356,6.7c.019-.789.57-1.207,1.4-1.2q2.194.014,4.39,0c.826-.01,1.4.408,1.406,1.187.019.846-.6,1.274-1.454,1.274-.731-.01-1.463,0-2.2,0s-1.463.009-2.195-.01A1.21,1.21,0,0,1,90.145,36.492Zm4.837,27.462c.009.978-.428,1.045-1.179,1-.674-.038-1.34.181-1.321-.978.067-3.839.019-7.678.019-11.517,0-3.8.048-7.6-.019-11.393-.019-1.046.447-1.1,1.245-1.093.779.009,1.264.019,1.255,1.074Q94.91,52.5,94.982,63.954Zm-4.847,4.551a1.118,1.118,0,0,1,1.112-1.226c1.654-.047,3.326-.057,4.989,0A1.117,1.117,0,0,1,97.348,68.5a1.168,1.168,0,0,1-1.283,1.178c-.77.009-1.539,0-2.309,0-.466,0-.931.009-1.4.009-.342,0-.694-.009-1.045-.019A1.145,1.145,0,0,1,90.135,68.505Z"/>
      <path d="M57.791,58.59c-2.347-3.24-4.637-6.509-6.965-9.759-.979-1.368-1.815-1.378-2.775-.038q-3.606,5.017-7.184,10.073A8.729,8.729,0,0,0,39.2,63.731c-.152,5.255,4.523,9.635,10.367,9.635a6.5,6.5,0,0,0,2.043-.247C58.161,71.789,62.228,64.7,57.791,58.59Zm-8.134,9.654c-.836.01-1.435-.351-1.482-1.216A1.211,1.211,0,0,1,49.41,65.7,2.627,2.627,0,0,0,52,63.075a1.181,1.181,0,0,1,1.368-1.188c.865.086,1.2.7,1.159,1.929C54.484,65.878,52.09,68.244,49.657,68.244Z"/>
      <path d="M41.182,48.112c-1.313-1.813-2.594-3.641-3.9-5.458-.547-.765-1.015-.771-1.551-.021q-2.017,2.805-4.018,5.633a4.881,4.881,0,0,0-.935,2.72,5.534,5.534,0,0,0,5.8,5.389,3.636,3.636,0,0,0,1.142-.138C41.389,55.493,43.663,51.528,41.182,48.112Zm-4.549,5.4c-.468,0-.8-.2-.829-.681a.677.677,0,0,1,.69-.744A1.468,1.468,0,0,0,37.94,50.62a.662.662,0,0,1,.765-.665c.484.048.67.394.648,1.079A2.9,2.9,0,0,1,36.633,53.511Z"/>
      <path d="M20.6,66.907c0-1.743.011-3.485,0-5.227-.009-.933.3-1.653,1.329-1.626.949.024,1.233.723,1.231,1.6q-.018,5.418,0,10.836c0,.884-.316,1.556-1.265,1.565S20.6,73.407,20.6,72.516C20.61,70.646,20.6,68.776,20.6,66.907Z"/>
      <path d="M21.87,57.459c-.768-.114-1.272-.524-1.241-1.32a1.251,1.251,0,0,1,2.5.016C23.138,56.951,22.64,57.356,21.87,57.459Z"/>
    </g>
  </g>
</svg>
