<svg xmlns="http://www.w3.org/2000/svg" viewBox="0 0 89.966 89.966">
  <defs>
    <style>
      .a {
        fill: #fff;
      }

      .b {
        fill: #231f20;
      }
    </style>
  </defs>
  <title>depositolocomotive</title>
  <g>
    <rect class="a" width="89.966" height="89.966"/>
    <g>
      <g>
        <g>
          <path class="b" d="M71.683,14.268a1.552,1.552,0,0,0-1.139-1.679Q57.862,7.71,45.215,2.783a2.212,2.212,0,0,0-1.75-.012Q30.8,7.687,18.124,12.577a1.592,1.592,0,0,0-1.151,1.785c.047,1.949.011,3.9.011,5.86,0,2.782,0,2.841,2.807,2.782,1.174-.011,1.468.341,1.456,1.492q-.053,8.174-.023,16.323V64.058h1.714V40.819q0-10.939-.023-21.866a1.552,1.552,0,0,1,1.127-1.761c6.482-2.443,12.929-4.944,19.376-7.457a2.479,2.479,0,0,1,1.879.023q9.546,3.717,19.106,7.363a1.618,1.618,0,0,1,1.256,1.809c-.059,4.979-.023,9.946-.023,14.925v30.2H67.35V42.1h.012V25.893c0-2.771,0-2.806,2.712-2.842,1.081-.011,1.633-.352,1.609-1.538C71.636,19.094,71.648,16.675,71.683,14.268Zm-1.726,3.5c0,.705-.047,1.4.012,2.09.082,1.01-.141,1.515-1.351,1.492-1.115-.024-1.28-.458-1.28-1.421,0-3.5-.023-3.511-3.264-4.768-6.2-2.395-12.4-4.756-18.589-7.151a2.946,2.946,0,0,0-2.278-.024q-10.394,4.033-20.8,8a1.574,1.574,0,0,0-1.2,1.762c.059.786-.035,1.585.024,2.372.07.892-.224,1.256-1.163,1.221-.8-.047-1.456,0-1.4-1.151.083-1.667.048-3.347.012-5.014a1.193,1.193,0,0,1,.916-1.315q11.961-4.6,23.885-9.265a2.419,2.419,0,0,1,1.879.094c7.7,2.994,15.4,5.988,23.122,8.924,1.139.423,1.668.987,1.48,2.208A13.489,13.489,0,0,0,69.957,17.767Z"/>
          <path class="b" d="M59.353,29.146V64.058H57.979V29.275c0-4.826-6.106-8.736-13.645-8.736s-13.657,3.91-13.657,8.736V64.058H29.3V29.146a5.215,5.215,0,0,1,.035-.611c.458-5.342,7-9.57,14.984-9.57s14.538,4.228,15,9.57A5.441,5.441,0,0,1,59.353,29.146Z"/>
        </g>
        <rect class="b" x="43.905" y="19.496" width="0.845" height="44.562"/>
      </g>
      <g>
        <rect class="b" x="22.245" y="67.588" width="3.875" height="16.75"/>
        <rect class="b" x="16.176" y="67.588" width="3.875" height="16.75"/>
        <rect class="b" x="10.106" y="67.588" width="3.875" height="16.75"/>
        <rect class="b" x="4.037" y="67.588" width="3.875" height="16.75"/>
        <rect class="b" x="28.314" y="67.588" width="3.875" height="16.75"/>
        <rect class="b" x="34.383" y="67.588" width="3.875" height="16.75"/>
        <rect class="b" x="40.453" y="67.588" width="3.875" height="16.75"/>
        <rect class="b" x="46.522" y="67.588" width="3.875" height="16.75"/>
        <rect class="b" x="52.591" y="67.588" width="3.875" height="16.75"/>
        <rect class="b" x="58.66" y="67.588" width="3.875" height="16.75"/>
        <rect class="b" x="64.73" y="67.588" width="3.875" height="16.75"/>
        <rect class="b" x="70.799" y="67.588" width="3.875" height="16.75"/>
        <rect class="b" x="76.868" y="67.588" width="3.875" height="16.75"/>
        <rect class="b" x="82.937" y="67.588" width="3.875" height="16.75"/>
        <g>
          <rect class="b" x="1.843" y="80.525" width="86.785" height="1.625"/>
          <rect class="b" x="1.843" y="69.775" width="86.785" height="1.625"/>
        </g>
      </g>
    </g>
  </g>
</svg>
