<svg xmlns="http://www.w3.org/2000/svg" viewBox="0 0 89.966 89.966">
  <defs>
    <style>
      .a {
        fill: #fff;
      }
    </style>
  </defs>
  <title>depositocarburante</title>
  <g>
    <rect class="a" width="89.966" height="89.966"/>
    <g>
      <path d="M83.932,80a29.561,29.561,0,0,0-3.193.019c-1.092.1-1.32-.3-1.32-1.34q.057-19.185.028-38.38c0-2.366,0-2.366,2.376-2.528.047-.009.085,0,.133-.009a1.22,1.22,0,0,0,1.3-1.273c0-.8-.523-1.188-1.312-1.274-.817-.095-1.938.428-2.385-.285-.389-.617-.1-1.653-.114-2.508v-.5c0-2.965,0-2.984-2.974-3.079-.656-.019-.9-.18-.874-.864.038-1.492.009-2.984.009-4.476,0-2.138-.209-2.357-2.309-2.357H15.991c-1.406.029-1.767.409-1.777,1.853-.009,1.2-.009,2.385-.009,3.583,0,2.185,0,2.214-2.148,2.233-1.188.009-1.729.522-1.691,1.7.028.731,0,1.454,0,2.176,0,2.366,0,2.366-2.376,2.537a1.155,1.155,0,0,0-.256.009A1.215,1.215,0,0,0,6.555,36.5a1.2,1.2,0,0,0,1.188,1.254,4.722,4.722,0,0,0,1.273.01c1.179-.209,1.388.314,1.378,1.4-.038,10.272-.028,20.553-.028,30.825,0,3.031-.019,6.053.019,9.084.009.713-.19.979-.932.941-1.225-.057-2.47-.019-3.706-.009-1.358.009-1.757.4-1.767,1.729-.019,1.663-.009,3.326-.009,4.989,0,.123,0,.237.009.351H85.842q.015-2.608,0-5.216C85.833,80.362,85.462,80.01,83.932,80Zm-14.738-52.4a20.684,20.684,0,0,0,0-3.069c-.028-.684.238-.922.884-.836.123.009.256,0,.39,0,2.594-.019,2.594-.019,2.594,2.556s-.01,2.537-2.594,2.594C69.489,28.869,69.09,28.641,69.194,27.605Zm-8.951-3.212c-.009-.579.257-.722.77-.7.807.029,1.615.01,2.622.01.846.142,2.233-.5,2.842.247.513.617.171,1.948.18,2.964.01,1.91,0,1.91-1.967,1.91-1.235,0-2.47-.019-3.706.01-.551.009-.75-.171-.741-.732Q60.3,26.247,60.243,24.393ZM51.3,25.61c-.009-1.91,0-1.91,1.967-1.91,1.236,0,2.471.019,3.706-.01.551-.009.751.171.741.732-.028,1.235-.037,2.47,0,3.706.01.589-.247.722-.769.7-.808-.029-1.616-.01-2.623-.01-.846-.142-2.233.494-2.841-.247C50.969,27.957,51.311,26.626,51.3,25.61ZM41.058,24.393c-.019-.589.257-.7.77-.7,2.043.019,4.086.029,6.129,0,.608-.009.826.19.807.8-.038,1.2-.047,2.385,0,3.583.019.646-.266.779-.836.76-1.026-.029-2.043-.01-3.069-.01s-2.043-.019-3.069.01c-.551.019-.741-.181-.732-.732Q41.1,26.247,41.058,24.393ZM34.131,23.7c1.15,0,2.3.038,3.449-.01.694-.038,1.036.152.941.912-.038.333,0,.675-.01,1.017-.028,1.017.323,2.347-.19,2.965-.608.722-1.995.1-2.841.237-3.373,0-3.373,0-3.373-3.135C32.107,23.7,32.107,23.7,34.131,23.7Zm-9.037,0c1.2,0,2.385.028,3.583-.01.627-.019.931.124.893.836-.048,1.188-.029,2.376,0,3.573.009.551-.19.751-.741.732-.808-.038-1.616-.01-2.623-.01-.846-.123-2.186.466-2.87-.228-.608-.627-.161-1.948-.171-2.955C23.137,23.7,23.156,23.7,25.094,23.7Zm-8.124.19c.855-.418,2.062-.152,3.116-.19.5-.01.523.313.514.674v1.92c.009,2.546,0,2.489-2.623,2.556-1.036.028-1.359-.3-1.226-1.283.057-.418-.019-.846.01-1.273C16.837,25.458,16.362,24.184,16.97,23.89Zm-1.483,7.487q29.989,0,59.988-.028c1.188-.01,1.492.313,1.445,1.463-.086,2.4-.019,2.4-2.4,2.4H44.849c-10.233,0-20.467-.009-30.7.029-1.027,0-1.274-.285-1.255-1.273C12.95,31.377,12.9,31.377,15.487,31.377Zm50.6,30.7c-1.055-.019-2.414.466-3.069-.209s-.181-2.024-.19-3.078c-.029-3.108-.01-3.108,3.183-3.022,1.017,0,2.366-.39,2.965.1.712.6.218,2,.228,3.041C69.242,62.089,69.223,62.108,66.087,62.079Zm3.136-21.057c0,3.155,0,3.155-3.155,3.155-.684,0-1.368-.057-2.043.009-.9.1-1.3-.133-1.235-1.149.095-1.492.047-2.984.019-4.476-.019-.608.18-.817.8-.8,1.615.028,3.231.038,4.856,0,.646-.019.788.256.76.827C69.194,39.4,69.223,40.215,69.223,41.022ZM60.291,78.775c0,1.026-.3,1.245-1.283,1.245q-22.449-.043-44.889,0c-.931,0-1.226-.19-1.226-1.179q.057-19.954,0-39.909c0-.979.285-1.188,1.217-1.179,7.506.038,15,.019,22.51.019,7.46,0,14.929.019,22.388-.019.96-.009,1.283.2,1.283,1.236Q60.234,58.887,60.291,78.775Zm2.537-28.906c-.038-3.145-.01-3.164,3.155-3.126,1.045.009,2.432-.485,3.04.228.513.6.162,1.938.2,2.955v.123c0,3.079,0,3.1-3.108,3.07-1.054-.01-2.4.456-3.078-.19S62.837,50.914,62.828,49.869Zm6.195,29.894c-.617.7-2,.209-3.05.219-3.155.038-3.183.019-3.145-3.136.009-1.045-.475-2.414.218-3.06.675-.637,2.024-.18,3.079-.18,3.1-.029,3.1-.01,3.1,3.069v.133h.047C69.213,77.825,69.546,79.164,69.023,79.763Zm.01-8.942c-.684.685-2.024.095-2.813.219-3.4,0-3.43,0-3.392-3.164.009-1.046-.485-2.433.228-3.041.6-.513,1.938-.19,2.955-.19s2.347-.333,2.955.18c.722.609.219,2,.238,3.041C69.223,68.873,69.65,70.194,69.033,70.821Zm7.887,7.887c.009,1.093-.3,1.407-1.35,1.312A25.183,25.183,0,0,0,72.51,80c-.551.019-.807-.162-.741-.723.019-.209,0-.427,0-.636,0-13.18.019-26.35-.028-39.52-.01-1.16.313-1.5,1.416-1.359,1.206.142,2.831-.532,3.535.276.6.693.2,2.271.2,3.458.01,5.835,0,11.679,0,17.523C76.891,65.576,76.872,72.142,76.92,78.708Z"/>
      <path d="M53.278,54.981c-2.347-3.24-4.637-6.509-6.965-9.759-.979-1.368-1.815-1.378-2.775-.038Q39.932,50.2,36.354,55.257a8.732,8.732,0,0,0-1.672,4.865c-.152,5.255,4.523,9.635,10.367,9.635a6.5,6.5,0,0,0,2.043-.247C53.648,68.18,57.715,61.091,53.278,54.981Zm-8.134,9.654c-.836.01-1.435-.351-1.482-1.216a1.211,1.211,0,0,1,1.235-1.33,2.627,2.627,0,0,0,2.585-2.623,1.181,1.181,0,0,1,1.368-1.188c.865.086,1.2.7,1.159,1.929C49.971,62.269,47.577,64.635,45.144,64.635Z"/>
      <path d="M16.767,67.693c0-1.742.011-3.484,0-5.226-.009-.933.3-1.653,1.329-1.627.949.025,1.233.723,1.231,1.6q-.018,5.418,0,10.836c0,.883-.316,1.556-1.265,1.565s-1.295-.647-1.291-1.538C16.773,71.432,16.767,69.563,16.767,67.693Z"/>
      <path d="M18.033,58.245c-.768-.114-1.272-.524-1.241-1.32a1.166,1.166,0,0,1,1.32-1.21,1.157,1.157,0,0,1,1.181,1.226C19.3,57.738,18.8,58.142,18.033,58.245Z"/>
    </g>
  </g>
</svg>
