<svg xmlns="http://www.w3.org/2000/svg" viewBox="0 0 179.932 89.966">
  <defs>
    <style>
      .a {
        fill: #fff;
      }

      .b {
        fill: #010101;
      }
    </style>
  </defs>
  <title>magazzinogrande</title>
  <g>
    <g>
      <rect class="a" x="89.966" width="89.966" height="89.966"/>
      <rect class="a" width="89.966" height="89.966"/>
    </g>
    <g>
      <g>
        <path d="M18.041,55.862c-.071.351-.132.664-.18.944-.016.094-.032.184-.045.271s-.026.167-.036.245a2.7,2.7,0,0,0,0,1.07.914.914,0,0,0,.083.2l0,0a.8.8,0,0,0,.077.109.814.814,0,0,0,.19.152c.029.016.058.032.09.048a6.521,6.521,0,0,0,2.272.209q12.549-.009,25.107-.019h.01c.348,0,.693-.035,1.063-.068L47.057,59V55.862Zm-.093,6.429v3.19H47.041v-3.19Zm.039,6.451v3.207H47.054v0h0v-3.2ZM18,75.194a9.884,9.884,0,0,0-.2,2.5c.006.016.006.032.01.045a.623.623,0,0,0,.022.09.8.8,0,0,0,.081.2.665.665,0,0,0,.122.158c.367.354,1.151.354,2.639.354H47.054v0h0V75.194Zm41.968-6.461v3.216H89.048V68.733Zm.023-12.907v3.191H89.083v0h0V55.826Zm29.148,6.781a.217.217,0,0,0-.023-.071c-.032-.071-.1-.152-.164-.268H59.99v3.316H86.379c1.46,0,2.208,0,2.559-.351a.68.68,0,0,0,.168-.254l0,0,.029-.077a1.384,1.384,0,0,0,.045-.177,2.029,2.029,0,0,0,.026-.206A13.115,13.115,0,0,0,89.138,62.607Zm-.016,12.809c0-.032-.036-.064-.1-.138-.019-.026-.045-.055-.071-.09H60.035V78.52h1.721l24.617.019C89.46,78.539,89.46,78.539,89.122,75.416ZM18,75.194a9.884,9.884,0,0,0-.2,2.5c.006.016.006.032.01.045a.623.623,0,0,0,.022.09.8.8,0,0,0,.081.2.665.665,0,0,0,.122.158c.367.354,1.151.354,2.639.354q12.39,0,24.782,0h1.6V75.194Zm-.012-6.452v3.2h29.07v-3.2Zm-.036-6.451v3.19h29.09v-3.19Zm.094-6.429c-.071.351-.133.664-.184.944-.016.094-.032.184-.045.271s-.026.167-.036.245a2.839,2.839,0,0,0,0,1.07.914.914,0,0,0,.083.2l0,0a.8.8,0,0,0,.077.109.814.814,0,0,0,.19.152c.029.016.058.032.09.048a6.521,6.521,0,0,0,2.272.209q12.549-.009,25.107-.019h.01c.348,0,.693-.035,1.063-.068.123-.012.249-.022.377-.032V55.862Zm41.948-.036v3.188H89.086V55.826Zm29.145,6.781a.217.217,0,0,0-.023-.071c-.032-.071-.1-.152-.164-.268H59.99v3.316H86.379c1.46,0,2.208,0,2.559-.351a.68.68,0,0,0,.168-.254l0,0,.029-.077a1.384,1.384,0,0,0,.045-.177,2.029,2.029,0,0,0,.026-.206A13.115,13.115,0,0,0,89.138,62.607ZM59.967,68.733v3.213H89.048V68.733Zm29.155,6.683c0-.032-.036-.064-.1-.138-.019-.026-.045-.055-.071-.09H60.038V78.52h1.718l24.617.019C89.46,78.539,89.46,78.539,89.122,75.416Z"/>
        <path d="M104.974,35.179c.348-1.324-.671-1.756-1.712-2.056-.154-.045-.3-.122-.451-.17Q78.985,25.272,55.146,17.636a5.921,5.921,0,0,0-3.367.045Q28,25.246,4.271,32.949c-1.073.348-2.62.535-2.2,2.182s1.85.983,3.113.838v1.924c0,10.36.007,39.9.007,40.543.026,1.157-.029,3.1.448,3.1,32.654,0,64.2,0,96.851,0,.425,0,.989.126,1.257-.093.519-.419,1.147-1.019,1.2-1.592.035-.381-.79-.97-1.344-1.238a5.471,5.471,0,0,0-1.756-.2s-.016-41.681-.016-42.428c.341.055.554.08.76.125C103.594,36.32,104.651,36.417,104.974,35.179ZM47.057,78.536h0v0H20.677c-1.488,0-2.272,0-2.639-.354a.665.665,0,0,1-.122-.158.8.8,0,0,1-.081-.2.623.623,0,0,1-.022-.09c0-.013,0-.029-.01-.045a9.884,9.884,0,0,1,.2-2.5H47.057ZM17.948,65.481v-3.19H47.041v3.19Zm29.109,6.465h0v0H17.987V68.742h29.07Zm0-12.949-.377.029c-.37.033-.715.068-1.063.068h-.01q-12.553.02-25.107.019a6.521,6.521,0,0,1-2.272-.209c-.032-.016-.061-.032-.09-.048a.814.814,0,0,1-.19-.152.519.519,0,0,1-.077-.109l0,0a.744.744,0,0,1-.083-.2,2.7,2.7,0,0,1,0-1.07c.01-.078.023-.158.036-.245s.029-.177.045-.271c.048-.28.109-.593.18-.944H47.057Zm41.894,3.271c.064.116.132.2.164.268a.217.217,0,0,1,.023.071,13.115,13.115,0,0,1,.071,1.908,2.029,2.029,0,0,1-.026.206,1.384,1.384,0,0,1-.045.177l-.029.077,0,0a.68.68,0,0,1-.168.254c-.351.351-1.1.351-2.559.351H59.99V62.268ZM59.99,59.017V55.826h29.1v3.188h0v0Zm29.058,9.716v3.216H59.967V68.733Zm-2.675,9.806L61.756,78.52H60.035V75.188H88.951c.026.035.052.064.071.09.064.074.1.106.1.138C89.46,78.539,89.46,78.539,86.373,78.539Zm12.513-32.5q-.009,15.222-.013,30.447v1.94h-6.7V55.446c0-2.433-.349-2.8-2.785-2.8q-14.9-.01-29.8,0c-2.407,0-2.758.364-2.758,2.829q-.011,10.553-.007,21.1v1.837H50.2V76.383q0-10.633,0-21.266c0-2.033-.425-2.468-2.452-2.468q-15.222-.015-30.447,0c-2.014,0-2.44.458-2.44,2.481q-.009,10.794-.006,21.588c0,.564-.048,1.131-.081,1.821-1.65,0-3.148-.048-4.64.013-1.27.055-2.2-.026-2.063-1.743.023-.323.091-29.629.055-40.473a1.636,1.636,0,0,1,1.367-1.9C23.7,29.888,37.886,25.257,52.1,20.707a4.824,4.824,0,0,1,2.771-.013c13.5,4.308,26.967,8.733,40.479,13,2.333.737,4.2,1.343,3.622,4.369C98.941,38.244,98.886,45.5,98.886,46.036Z"/>
        <path d="M92.178,41.793a1.808,1.808,0,0,0-2.065-2.072Q74.5,39.71,58.892,39.714A1.826,1.826,0,0,0,56.83,41.8c0,1.608-.023,3.22-.013,4.828.013,2.2.429,2.616,2.649,2.62q7.483.014,14.966,0v.013c5.095,0,10.193.009,15.288,0,1.994-.006,2.446-.48,2.455-2.474C92.182,45.119,92.149,43.456,92.178,41.793ZM66.443,46.066h-6.4V42.9h6.4Zm12.9.023H69.672V42.908h9.674Zm9.739-.039h-6.51V42.879h6.51Z"/>
        <path d="M50.2,42.157c-.029-1.982-.481-2.433-2.508-2.439-4.666-.016-9.329,0-13.995,0q-8.126,0-16.252,0c-2.114,0-2.575.46-2.584,2.513q-.01,2.253,0,4.5c.009,2.063.461,2.517,2.575,2.52,4.988.013,9.974,0,14.962,0v-.013c5.095,0,10.19.009,15.285,0,2.053-.007,2.488-.432,2.517-2.421C50.217,45.267,50.214,43.71,50.2,42.157ZM24.43,46.047H17.982V42.892H24.43Zm12.907-.01H27.688V42.856h9.649ZM47,46.069H40.6V42.9H47Z"/>
        <path class="a" d="M47.054,75.194v3.345H20.677c-1.488,0-2.272,0-2.639-.354a.665.665,0,0,1-.122-.158.8.8,0,0,1-.081-.2.623.623,0,0,1-.022-.09c0-.013,0-.029-.01-.045a10.087,10.087,0,0,1,.2-2.5Z"/>
        <path class="a" d="M86.373,78.539,61.756,78.52H60.035V75.188H88.948c.029.035.051.064.074.09.064.074.1.106.1.138C89.46,78.539,89.46,78.539,86.373,78.539Z"/>
        <rect class="a" x="17.987" y="68.742" width="29.068" height="3.206"/>
        <rect class="a" x="59.967" y="68.736" width="29.081" height="3.213"/>
        <path class="a" d="M47.057,55.862V59l-.377.029c-.37.033-.715.068-1.063.068h-.01q-12.549.015-25.107.019a6.521,6.521,0,0,1-2.272-.209c-.032-.016-.061-.032-.09-.048a.814.814,0,0,1-.19-.152.8.8,0,0,1-.077-.109l0,0a.914.914,0,0,1-.083-.2,2.7,2.7,0,0,1,0-1.07c.01-.078.023-.158.036-.245s.029-.177.045-.271c.048-.28.109-.593.18-.944Z"/>
        <rect class="a" x="59.99" y="55.826" width="29.093" height="3.19"/>
        <rect class="a" x="17.948" y="62.291" width="29.093" height="3.19"/>
        <path class="a" d="M89.209,64.515c-.007.074-.016.141-.026.206s-.029.122-.045.177l-.029.077,0,0a.787.787,0,0,1-.168.254c-.351.351-1.1.351-2.559.351H59.99V62.268H88.951c.064.116.132.2.164.268a.366.366,0,0,1,.02.071A13.845,13.845,0,0,1,89.209,64.515Z"/>
        <path class="a" d="M79.345,46.088H69.673v-3.18h9.672Z"/>
        <path class="a" d="M82.574,46.049v-3.17h6.51v3.17Z"/>
        <path class="a" d="M66.444,42.9v3.169h-6.4V42.9Z"/>
        <path class="a" d="M27.69,42.855h9.647v3.182H27.69Z"/>
        <path class="a" d="M17.98,42.891h6.45v3.156H17.98Z"/>
        <path class="a" d="M40.6,46.069V42.9h6.394v3.171Z"/>
      </g>
      <path class="b" d="M173.756,40.019a29.184,29.184,0,0,0-6.544-6.739c-5.185-3.931-14.456-8.616-29.2-8.616S114,29.349,108.817,33.28C102.8,37.844,100.1,43,100.1,45.2V79.963a1.58,1.58,0,0,0,1.58,1.578h72.679a1.58,1.58,0,0,0,1.578-1.578V45.2A10.68,10.68,0,0,0,173.756,40.019ZM110.728,35.8c4.794-3.637,13.421-7.973,27.286-7.973S160.505,32.16,165.3,35.8c4.476,3.4,6.568,6.862,7.23,8.522a32.831,32.831,0,0,0-5.267-5.468c-5.208-4.31-14.511-9.448-29.249-9.448s-24.04,5.138-29.249,9.448a32.738,32.738,0,0,0-5.266,5.468C104.16,42.659,106.251,39.193,110.728,35.8ZM136.434,78.38H114.315V59.421h22.119V78.38Zm25.279,0h-22.12V59.421h22.12Zm3.161,0V57.842a1.58,1.58,0,0,0-1.583-1.578H112.735a1.579,1.579,0,0,0-1.58,1.578V78.38h-7.9V51.523c0-.85,1.881-5.569,7.524-10.238,4.808-3.979,13.436-8.721,27.234-8.721s22.426,4.742,27.235,8.721c5.642,4.669,7.521,9.388,7.521,10.238V78.38Z"/>
      <g>
        <path class="b" d="M158.551,62.706h-15.8c-.873,0-1.579.529-1.579,1.178s.706,1.182,1.579,1.182h15.8c.875,0,1.583-.529,1.583-1.182S159.426,62.706,158.551,62.706Z"/>
        <path class="b" d="M158.551,68.357h-15.8c-.873,0-1.579.529-1.579,1.178s.706,1.182,1.579,1.182h15.8c.875,0,1.583-.529,1.583-1.182S159.426,68.357,158.551,68.357Z"/>
        <path class="b" d="M158.551,74.008h-15.8c-.873,0-1.579.528-1.579,1.178s.706,1.182,1.579,1.182h15.8c.875,0,1.583-.529,1.583-1.182S159.426,74.008,158.551,74.008Z"/>
      </g>
      <g>
        <path class="b" d="M133.271,62.706h-15.8c-.872,0-1.578.529-1.578,1.178s.706,1.182,1.578,1.182h15.8c.875,0,1.583-.529,1.583-1.182S134.146,62.706,133.271,62.706Z"/>
        <path class="b" d="M133.271,68.357h-15.8c-.872,0-1.578.529-1.578,1.178s.706,1.182,1.578,1.182h15.8c.875,0,1.583-.529,1.583-1.182S134.146,68.357,133.271,68.357Z"/>
        <path class="b" d="M133.271,74.008h-15.8c-.872,0-1.578.528-1.578,1.178s.706,1.182,1.578,1.182h15.8c.875,0,1.583-.529,1.583-1.182S134.146,74.008,133.271,74.008Z"/>
      </g>
      <path class="b" d="M155.394,40.463h-34.76a1.58,1.58,0,0,0-1.579,1.58v6.32a1.579,1.579,0,0,0,1.579,1.579h34.76a1.58,1.58,0,0,0,1.579-1.579v-6.32A1.581,1.581,0,0,0,155.394,40.463Zm-18.96,6.32H122.215v-3.16h14.219Zm17.377,0H139.593v-3.16h14.218v3.16Z"/>
    </g>
  </g>
</svg>
