<svg xmlns="http://www.w3.org/2000/svg" viewBox="0 0 55.093 55.091">
  <defs>
    <style>
      .a {
        fill: #010101;
      }
    </style>
  </defs>
  <title>Risorsa 14</title>
  <path class="a" d="M53.427,7.767h-.658L38.283.093a.827.827,0,0,0-.657-.045L6.7,11.213H4.255a.8.8,0,0,0-.566.238L.243,14.9a.805.805,0,0,0,.566,1.382H6.035v8.683a2.544,2.544,0,0,0,1.734,2.4v1.168a.094.094,0,0,1-.023.068A2.534,2.534,0,1,0,11.1,30.992a.805.805,0,0,0-1.61,0,.918.918,0,1,1-1.836,0,.912.912,0,0,1,.623-.861,1.666,1.666,0,0,0,1.1-1.6V27.354A2.525,2.525,0,0,0,11.1,24.962V16.279h.918a.81.81,0,0,0,0-1.62H11.1V12.822H36.707l1.837,1.837H15.477a.81.81,0,1,0,0,1.62h19.19l1.428,6.45a1.69,1.69,0,0,0,1,1.19V50.035h-.918a.8.8,0,0,0-.8.805v2.641h-.918a.8.8,0,0,0,0,1.61H46.524a.805.805,0,0,0,0-1.61h-.919V50.84a.8.8,0,0,0-.8-.805h-.918V23.829a1.671,1.671,0,0,0,.861-1.463V16.279h8.762a1.676,1.676,0,0,0,1.587-1.666V9.433A1.669,1.669,0,0,0,53.427,7.767ZM6.035,14.659H2.759L4.6,12.822h1.44ZM8.574,25.88a.918.918,0,1,1,.918-.918A.921.921,0,0,1,8.574,25.88ZM9.492,22.6a2.507,2.507,0,0,0-.918-.181,2.458,2.458,0,0,0-.918.181V16.279H9.492Zm0-7.945H7.656V12.822H9.492Zm27.6-3.446H11.453l25.64-9.261Zm5.985,5.066h.056v6.1a.051.051,0,0,1-.056.045h-5.35a.062.062,0,0,1-.057-.034l-.4-1.8h3.219a.8.8,0,0,0,.8-.8v-3.5Zm-.8,30.084v3.672H39.519ZM38.7,48.414V44.742h2.755Zm.817-5.282,2.754-3.672v3.672ZM38.7,41.511V37.839h2.755Zm.817-5.282,2.754-3.672v3.672ZM38.7,34.62V30.947h2.755Zm.817-5.294,2.754-3.672v3.672ZM38.7,27.717V24.044h2.755Zm1.372-13.795,2.2-2.936v3.673H40.822Zm2.2-6.155H39.519l2.754-3.673ZM38.7,2.145,40.856,3.29,38.7,6.146Zm0,7.231h2.755l-2.539,3.39L38.7,12.55Zm-1.779,9.6-.6-2.7h3.355v2.7ZM44,51.645v1.836H36.979V51.645ZM45.719,9.433v5.226h-1.78v.011h-.056V4.888l5.429,2.879H47.385A1.669,1.669,0,0,0,45.719,9.433Zm7.764,1.78H50.842a.8.8,0,1,0,0,1.609h2.641v1.791a.051.051,0,0,1-.056.046h-6.1V12.822h.057a.8.8,0,1,0,0-1.609h-.057V9.433a.061.061,0,0,1,.057-.057h6.042a.053.053,0,0,1,.056.057Z"/>
</svg>
