<svg xmlns="http://www.w3.org/2000/svg" viewBox="0 0 311.2 394.365">
  <defs>
    <style>
      .a {
        fill: none;
        stroke: #231f20;
        stroke-miterlimit: 10;
        stroke-width: 19px;
      }
    </style>
  </defs>
  <title>Risorsa 12</title>
  <g>
    <path class="a" d="M155.6,259.63a19.913,19.913,0,0,1-20.85-17.42,20.872,20.872,0,1,0-41.71,1.67,61.19,61.19,0,0,0,62.56,57.49,20.87,20.87,0,1,0,0-41.74Zm0,0a19.913,19.913,0,0,1-20.85-17.42,20.872,20.872,0,1,0-41.71,1.67,61.19,61.19,0,0,0,62.56,57.49,20.87,20.87,0,1,0,0-41.74Z"/>
    <path class="a" d="M171.33,16.32a21.55,21.55,0,0,0-31.46,0C126.52,31.66,9.5,168.22,9.5,241.52A144.9,144.9,0,0,0,155.6,384.86,144.908,144.908,0,0,0,301.7,241.52C301.7,168.22,184.68,31.66,171.33,16.32ZM155.6,301.37a61.19,61.19,0,0,1-62.56-57.49,20.872,20.872,0,1,1,41.71-1.67,19.913,19.913,0,0,0,20.85,17.42,20.87,20.87,0,1,1,0,41.74Z"/>
    <path class="a" d="M176.47,280.5a20.865,20.865,0,0,1-20.87,20.87,61.19,61.19,0,0,1-62.56-57.49,20.872,20.872,0,1,1,41.71-1.67,19.913,19.913,0,0,0,20.85,17.42A20.865,20.865,0,0,1,176.47,280.5Z"/>
  </g>
</svg>
