<svg xmlns="http://www.w3.org/2000/svg" viewBox="0 0 48.606 48.65">
  <defs>
    <style>
      .a {
        fill: #010101;
      }
    </style>
  </defs>
  <title>Risorsa 32</title>
  <g>
    <path class="a" d="M.6,48.075a.575.575,0,0,0,.575.575H19.548a.574.574,0,0,0,.505-.3L31.536,27.1a.579.579,0,0,0,.069-.273V22.8a.6.6,0,0,0-.029-.172c-.006-.016-.013-.031-.02-.046a.578.578,0,0,0-.031-.072c-.008-.013-.019-.023-.027-.035a.574.574,0,0,0-.124-.127c-.013-.011-.027-.021-.041-.031a.573.573,0,0,0-.158-.07h-.014a.614.614,0,0,0-.128-.016H14.954a.572.572,0,0,0-.5.3L.668,47.8A.577.577,0,0,0,.6,48.075ZM8.4,36.016h3.86L9.445,41.184H5.585ZM22.186,29.7H26.62L23.8,34.867H19.367Zm-4.128,5.168H14.2L17.018,29.7h3.859Zm5.117,1.149-2.82,5.168H15.922l2.819-5.168Zm-8.562,5.168h-3.86l2.819-5.168h3.86ZM11.85,29.7h3.859L12.89,34.867H9.031Zm7.305-6.317-2.819,5.169h-3.86L15.3,23.382Zm5.168,0L21.5,28.551h-3.86l2.819-5.169Zm5.743,0-2.819,5.169H22.813l2.819-5.169ZM18.219,47.5,30.459,25.06v1.622L19.2,47.5Zm-5.743,0L15.3,42.333h4.434L16.91,47.5Zm-5.168,0,2.819-5.168h3.859L11.167,47.5Zm-5.169,0,2.819-5.168h3.86L6,47.5Z"/>
    <path class="a" d="M.054,13.922a.712.712,0,0,0,.658.439H5.327V22.02a2.237,2.237,0,0,0,1.522,2.117v1.038a.12.12,0,0,1-.015.059A2.234,2.234,0,1,0,9.8,27.347a.712.712,0,0,0-1.424,0A.81.81,0,1,1,7.3,26.579a1.461,1.461,0,0,0,.969-1.4V24.137A2.237,2.237,0,0,0,9.8,22.02V14.361h.81a.712.712,0,0,0,0-1.424H9.8v-1.62H32.379L34,12.937H13.649a.712.712,0,0,0,0,1.424H30.581l1.266,5.7a1.465,1.465,0,0,0,.876,1.043V44.138h-.81a.712.712,0,0,0-.712.712v2.332h-.81a.712.712,0,1,0,0,1.424H41.045a.712.712,0,0,0,0-1.424h-.81V44.85a.712.712,0,0,0-.712-.712h-.81V21.026a1.474,1.474,0,0,0,.761-1.289V14.361h7.659a.585.585,0,0,0,.073,0,1.472,1.472,0,0,0,1.4-1.469V8.322a1.474,1.474,0,0,0-1.473-1.473h-.584L33.768.083a.712.712,0,0,0-.575-.041L5.914,9.893H3.756a.708.708,0,0,0-.5.209L.209,13.146A.712.712,0,0,0,.054,13.922ZM36.043,2.9l-1.9,2.527V1.9Zm1.246,3.951h-2.43l2.43-3.24Zm-.712,1.424-2.24,2.988-.19-.19v-2.8Zm.712,4.664H36.013l-.659-.659L37.289,9.7Zm.719,1.424h.042v5.376a.049.049,0,0,1-.049.049H33.285a.048.048,0,0,1-.048-.038l-.352-1.582h2.833a.712.712,0,0,0,.712-.712V14.361h1.578Zm-.719,14.361v3.24h-2.43ZM34.147,42.714v-3.24h2.43ZM37.289,40.9v3.24h-2.43Zm-2.43-2.848,2.43-3.24v3.24Zm-.712-1.424v-3.24h2.43Zm0-6.088V27.3h2.43Zm.712-4.664,2.43-3.24v3.24Zm-.712-1.424V21.21h2.43Zm7.61-16.128a.049.049,0,0,1,.049-.049h5.327a.049.049,0,0,1,.049.049V9.893H44.85a.712.712,0,1,0,0,1.424h2.332v1.571a.049.049,0,0,1-.049.049H41.757v-1.62h.049a.712.712,0,0,0,0-1.424h-.049Zm-3.044,4.615V7.562h0V4.312l4.793,2.537h-1.7a1.475,1.475,0,0,0-1.473,1.473v4.615h-1.62Zm.1,32.625v1.62H32.625v-1.62Zm-3.8-31.2v2.381H32.569l-.529-2.381Zm-24.9-4.468L32.723,1.726V9.9l-.049,0H10.107ZM8.371,14.361v5.578a2.221,2.221,0,0,0-1.62,0V14.361ZM6.751,22.02a.81.81,0,1,1,.81.81A.811.811,0,0,1,6.751,22.02Zm0-10.7h1.62v1.62H6.751Zm-4.32,1.62,1.62-1.62H5.327v1.62Z"/>
  </g>
</svg>
