<svg xmlns="http://www.w3.org/2000/svg" viewBox="0 0 45.346 45.349">
  <defs>
    <style>
      .a {
        fill: #010101;
      }
    </style>
  </defs>
  <title>Risorsa 26</title>
  <g>
    <path class="a" d="M35.52,3.779a6.047,6.047,0,1,0,6.046,6.047A6.047,6.047,0,0,0,35.52,3.779Zm0,10.582a4.535,4.535,0,1,1,4.535-4.535A4.535,4.535,0,0,1,35.52,14.361Z"/>
    <rect class="a" x="34.764" width="1.512" height="2.267"/>
    <rect class="a" x="34.764" y="17.384" width="1.512" height="2.267"/>
    <rect class="a" x="25.694" y="9.07" width="2.267" height="1.512"/>
    <rect class="a" x="43.078" y="9.07" width="2.267" height="1.512"/>
    <rect class="a" x="28.617" y="2.546" width="1.512" height="2.267" transform="translate(6.001 21.848) rotate(-45)"/>
    <rect class="a" x="40.909" y="14.837" width="1.512" height="2.267" transform="translate(0.911 34.139) rotate(-45)"/>
    <rect class="a" x="28.239" y="15.214" width="2.267" height="1.512" transform="translate(-2.689 25.447) rotate(-45)"/>
    <rect class="a" x="40.532" y="2.924" width="2.267" height="1.512" transform="translate(9.602 30.54) rotate(-45)"/>
    <path class="a" d="M40.718,44.231,22.579,10.975a.754.754,0,0,0-.664-.393H.752a.806.806,0,0,0-.169.021H.565a.727.727,0,0,0-.207.093.552.552,0,0,0-.055.04A.832.832,0,0,0,.14,10.9c-.011.016-.025.029-.035.046a.619.619,0,0,0-.041.1.657.657,0,0,0-.026.061A.754.754,0,0,0,0,11.331v5.3a.755.755,0,0,0,.091.36L15.2,44.953a.756.756,0,0,0,.665.4H40.055a.755.755,0,0,0,.663-1.118Zm-6.472-8.707h-5.08l-3.71-6.8h5.08ZM16.107,27.21H10.271l-3.71-6.8H12.4Zm-1.988-6.8H19.2l3.71,6.8h-5.08Zm2.812,8.314,3.71,6.8H14.806l-3.711-6.8Zm1.723,0h5.08l3.71,6.8h-5.08ZM29.711,27.21h-5.08l-3.71-6.8H26ZM21.466,12.093l3.71,6.8H20.1l-3.711-6.8Zm-6.8,0,3.71,6.8h-5.08l-3.71-6.8Zm-6.8,0,3.711,6.8H5.736l-3.71-6.8Zm8.461,31.745L1.508,16.437V14.3l16.11,29.536Zm3.019,0-3.711-6.8h5.836l3.71,6.8Zm7.558,0-3.71-6.8h5.079l3.711,6.8Zm6.8,0-3.71-6.8h5.08l3.71,6.8Z"/>
  </g>
</svg>
