<svg xmlns="http://www.w3.org/2000/svg" viewBox="0 0 51.197 38.398">
  <defs>
    <style>
      .a {
        fill: #010101;
      }
    </style>
  </defs>
  <title>Risorsa 15</title>
  <g>
    <path class="a" d="M49.729,10.367a19.687,19.687,0,0,0-4.419-4.55C41.81,3.163,35.551,0,25.6,0S9.386,3.163,5.888,5.817C1.827,8.9,0,12.378,0,13.866V37.332A1.066,1.066,0,0,0,1.066,38.4H50.132A1.067,1.067,0,0,0,51.2,37.332V13.866A7.2,7.2,0,0,0,49.729,10.367ZM7.178,7.516c3.236-2.455,9.06-5.383,18.421-5.383S40.782,5.061,44.02,7.516A14.99,14.99,0,0,1,48.9,13.27a22.129,22.129,0,0,0-3.556-3.692C41.829,6.668,35.548,3.2,25.6,3.2S9.369,6.668,5.853,9.578A22.077,22.077,0,0,0,2.3,13.27,14.955,14.955,0,0,1,7.178,7.516ZM24.532,36.264H9.6v-12.8H24.532v12.8Zm17.066,0H26.665v-12.8H41.6Zm2.134,0V22.4a1.067,1.067,0,0,0-1.069-1.066H8.533A1.067,1.067,0,0,0,7.466,22.4V36.264H2.133V18.133c0-.574,1.271-3.76,5.08-6.912,3.246-2.686,9.07-5.888,18.386-5.888s15.14,3.2,18.386,5.888c3.809,3.152,5.078,6.338,5.078,6.912V36.264Z"/>
    <path class="a" d="M21.733,28.8H11.067a1.067,1.067,0,1,0,0,2.134H21.733a1.067,1.067,0,0,0,0-2.134Z"/>
    <path class="a" d="M21.733,25.6H11.067a1.067,1.067,0,1,0,0,2.134H21.733a1.067,1.067,0,0,0,0-2.134Z"/>
    <path class="a" d="M21.733,32H11.067a1.068,1.068,0,0,0,0,2.135H21.733a1.068,1.068,0,0,0,0-2.135Z"/>
    <path class="a" d="M39.973,28.8H29.308a1.067,1.067,0,0,0,0,2.134H39.973a1.067,1.067,0,1,0,0-2.134Z"/>
    <path class="a" d="M39.973,25.6H29.308a1.067,1.067,0,0,0,0,2.134H39.973a1.067,1.067,0,1,0,0-2.134Z"/>
    <path class="a" d="M39.973,32H29.308a1.068,1.068,0,0,0,0,2.135H39.973a1.068,1.068,0,1,0,0-2.135Z"/>
    <path class="a" d="M37.332,10.666H13.866A1.067,1.067,0,0,0,12.8,11.733V16a1.067,1.067,0,0,0,1.067,1.067H37.332A1.067,1.067,0,0,0,38.4,16V11.733A1.067,1.067,0,0,0,37.332,10.666Zm-12.8,4.267h-9.6V12.8h9.6Zm11.732,0h-9.6V12.8h9.6v2.134Z"/>
  </g>
</svg>
