<svg xmlns="http://www.w3.org/2000/svg" viewBox="0 0 61.633 61.577">
  <defs>
    <style>
      .a {
        fill: #010101;
      }
    </style>
  </defs>
  <title>Risorsa 13</title>
  <g>
    <path class="a" d="M61.392,59.772V47.358H48.753V45.552H46.947v1.806H43.336V45.552H41.53v1.806H31.6V59.772H27.032l-.908-15.113a21.866,21.866,0,0,0,5.289-1.432l-.685-1.67a20.09,20.09,0,0,1-4.712,1.294L25.142,28.3,26.6,31.3l17.721,3.4,1.355-3.156-19.4-8.329a3.375,3.375,0,0,0-.145-1.53l5.331-2.607,3.4-17.721L31.71,0,23.382,19.4a3.38,3.38,0,0,0-1.531.145l-2.607-5.33-17.721-3.4L.168,13.97,19.57,22.3a3.38,3.38,0,0,0,.146,1.531l-5.331,2.607-3.4,17.721,3.157,1.355,6.6-15.386L20,42.844a20.111,20.111,0,0,1-2.165-.443l-.46,1.747a22.146,22.146,0,0,0,2.519.5l-.883,15.119H0v1.8H61.633v-1.8ZM43.309,32.489l-.07.162L27.83,29.692l-2.322-4.749c.02-.023.038-.047.057-.071ZM32.657,2.371l.162.07L29.861,17.85l-4.749,2.322c-.023-.02-.047-.039-.071-.058ZM21.473,22.133a1.579,1.579,0,1,1-.016,1.209A1.567,1.567,0,0,1,21.473,22.133Zm2.745,20.9c-.4.022-.8.035-1.2.035s-.817-.013-1.224-.037l.987-16.894q.067,0,.135,0c.094,0,.188,0,.282-.013ZM2.54,13.023l.07-.162L18.019,15.82l2.321,4.748-.057.071ZM13.192,43.14l-.163-.069,2.959-15.409,4.749-2.322c.023.02.047.039.071.058Zm7.627,16.632.093-1.58h1.659V56.386H21.017l.675-11.552c.443.026.886.041,1.33.041s.871-.014,1.3-.039l.694,11.55h-.644v1.806h.752l.095,1.58Zm35.156,0H51.461V57.289h4.514Zm3.612,0H57.781V55.483H49.655v4.289H33.405V49.163H59.587Z"/>
    <rect class="a" x="35.21" y="50.969" width="1.806" height="4.514"/>
    <rect class="a" x="38.822" y="50.969" width="1.806" height="4.514"/>
    <rect class="a" x="42.433" y="50.969" width="1.806" height="4.514"/>
    <rect class="a" x="46.044" y="50.969" width="1.806" height="1.806"/>
    <path class="a" d="M56.314,33.815A2.147,2.147,0,0,0,54.17,35.96a.339.339,0,0,1-.339.338H48.64A2.147,2.147,0,0,0,46.5,38.442v.452a.338.338,0,0,1-.338.339H43.674a2.146,2.146,0,0,0-2.144,2.144v2.595h1.8V41.377a.339.339,0,0,1,.339-.339h2.483A2.147,2.147,0,0,0,48.3,38.894v-.452a.339.339,0,0,1,.339-.338h5.191a2.147,2.147,0,0,0,2.144-2.144.339.339,0,0,1,.339-.339h5.319V33.815Z"/>
    <rect class="a" x="46.947" y="41.94" width="1.806" height="1.806"/>
    <path class="a" d="M59.587,23.884v1.354a.453.453,0,0,1-.452.452H51.913a2.26,2.26,0,0,0-2.258,2.257v.9a.451.451,0,0,1-.451.451,2.26,2.26,0,0,0-2.257,2.257v3.16h1.806v-3.16a.451.451,0,0,1,.451-.451,2.26,2.26,0,0,0,2.257-2.257v-.9a.452.452,0,0,1,.452-.451h7.222a2.26,2.26,0,0,0,2.257-2.258V23.884Z"/>
    <path class="a" d="M3.916,29.671l-1.7.615a21.985,21.985,0,0,0,1.011,2.353l1.614-.808A20.256,20.256,0,0,1,3.916,29.671Z"/>
    <path class="a" d="M35.269,38.964a20.466,20.466,0,0,1-2.309,1.513l.885,1.574A22.5,22.5,0,0,0,36.359,40.4Z"/>
    <path class="a" d="M38.291,36.154a20.492,20.492,0,0,1-1.438,1.48l1.229,1.322a22.252,22.252,0,0,0,1.566-1.611Z"/>
    <path class="a" d="M44.414,17.109l-1.746.46a20.462,20.462,0,0,1-.119,10.806l1.735.5a22.276,22.276,0,0,0,.13-11.764Z"/>
    <path class="a" d="M41.846,11.135l-1.535.95a20.322,20.322,0,0,1,1.512,2.965l1.671-.686A22.152,22.152,0,0,0,41.846,11.135Z"/>
    <path class="a" d="M23.022.636A22.1,22.1,0,0,0,16.2,1.709l.557,1.718A20.452,20.452,0,0,1,28.133,3.09l.453-1.748A22.211,22.211,0,0,0,23.022.636Z"/>
    <path class="a" d="M14.079,2.519a22.279,22.279,0,0,0-2.588,1.357l.943,1.54a20.251,20.251,0,0,1,2.375-1.245Z"/>
    <path class="a" d="M3.376,17.569l-1.746-.46A22.317,22.317,0,0,0,1.4,27.461l1.765-.382a20.485,20.485,0,0,1,.207-9.51Z"/>
  </g>
</svg>
