<svg xmlns="http://www.w3.org/2000/svg" viewBox="0 0 60.299 46.763">
  <defs>
    <style>
      .a, .b {
        fill: #010101;
      }

      .a {
        stroke: #231f20;
        stroke-miterlimit: 10;
        stroke-width: 0.5px;
      }
    </style>
  </defs>
  <title>Risorsa 20</title>
  <g>
    <path class="a" d="M36.248,15.434l0,0L34.7,13.086a.331.331,0,0,0-.388-.13l-3.137,1.128h0l0,0a.275.275,0,0,0-.036.015l-.01.006-.009,0-.024.017,0,0c-.011.009-.022.018-.031.027l-.009.009c-.009.009-.016.018-.024.027l0,0-2.647,3.535-1.312,1.158a.332.332,0,0,0-.1.172L25.5,25.181a.331.331,0,0,0,.068.289l1.16,1.393,1.916,3.267,0,.005.018.027.007.008a.193.193,0,0,0,.027.03l0,0a.2.2,0,0,0,.027.022l.008.006.03.02,0,0,.037.017.009,0,.029.009.013,0,.009,0,.024,0h.052l3.6-.17h.006l.034,0,.009,0a.26.26,0,0,0,.04-.01l.005,0a.327.327,0,0,0,.033-.014l.01,0a.233.233,0,0,0,.034-.02h0l.024-.018,3.242-2.693h0l.025-.024,0,0,.019-.022.005-.007.014-.021.006-.009.011-.02.005-.011.008-.02,0-.014.006-.018,0-.016,0-.008,0-.01,0-.016v-.029l.2-11.487v0s0-.009,0-.013v-.014l0-.014v-.013l0-.014,0-.014,0-.012L36.28,15.5l0-.005-.01-.025v0l0-.005-.011-.02Zm-.765.045-.4.191a.331.331,0,0,0,.288.6l.253-.122L35.447,26.7l-1.942-.359.473-2.559a.309.309,0,0,0,0-.132l-.882-4.008.117-2.331,1.15-.556a.383.383,0,0,0,.044-.025.332.332,0,0,0-.333-.572l-1.053.51-1.248-2.1,2.518-.905Zm-6.15,14.132,1.1-5.919.168.136a.332.332,0,0,0,.4.015.358.358,0,0,0,.07-.065.332.332,0,0,0-.05-.466l-.352-.284,1.931-2.579.723,3.28-.232,1.252-1.193-.962a.331.331,0,0,0-.416.516l1.472,1.187-.153.826h0l-.542,2.925Zm4.051-2.617,1.632.3-1.994,1.656Zm-5.81-7.675.832-.733.234,1.129-.813,2.852a.331.331,0,1,0,.637.182l.836-2.931a.329.329,0,0,0,.006-.159l-.337-1.62,2.28-3.047,1.3,2.191-.118,2.372-2.5,3.331,0,.008-.013.019-.006.011-.012.022,0,.01-.01.026,0,.007a.283.283,0,0,0-.009.037l-1.111,6-1.408-2.4.8-2.795a.331.331,0,0,0-.637-.182l-.664,2.328-.67-.805Z"/>
    <g>
      <path class="b" d="M10.953,18.145H8.244a1.178,1.178,0,1,0,0,2.356h2.709a1.178,1.178,0,1,0,0-2.356Z"/>
      <path class="b" d="M10.953,22.856H8.244a1.178,1.178,0,1,0,0,2.356h2.709a1.178,1.178,0,1,0,0-2.356Z"/>
      <path class="b" d="M10.953,27.567H8.244a1.178,1.178,0,1,0,0,2.355h2.709a1.178,1.178,0,1,0,0-2.355Z"/>
      <path class="b" d="M10.953,32.278H8.244a1.178,1.178,0,1,0,0,2.355h2.709a1.178,1.178,0,1,0,0-2.355Z"/>
      <path class="b" d="M59.683,15.932a1.177,1.177,0,0,0-1.2.048l-5.518,3.589V15.5h.968a.969.969,0,1,0,0-1.937H52.864a8.7,8.7,0,0,0-8.619-7.748,8.427,8.427,0,0,0-3.466.757A9.66,9.66,0,0,0,21.968,9.685H21a.969.969,0,1,0,0,1.938h.968v9.24L17.443,23.8c-.067-.845-1.766-21.919-1.783-22.122A1.177,1.177,0,0,0,14.486.6H4.711A1.179,1.179,0,0,0,3.537,1.681L0,45.491a1.179,1.179,0,0,0,1.174,1.272H59.121A1.177,1.177,0,0,0,60.3,45.586V16.967A1.18,1.18,0,0,0,59.683,15.932ZM5.8,2.953h7.6l.219,2.708H5.579ZM5.39,8.017h8.418l.218,2.708H5.171Zm-.409,5.064h9.236C14.3,14.09,16.248,38.274,16.362,39.7H2.834ZM2.455,44.408l.189-2.356H16.553l.19,2.356ZM42.308,30.993h-.969V15.5h9.686V32.93H42.308a.969.969,0,1,0,0-1.937ZM44.245,7.748a6.77,6.77,0,0,1,6.682,5.811H41.339V11.623h.969a.969.969,0,1,0,0-1.938h-.969a9.366,9.366,0,0,0-.119-1.177A6.606,6.606,0,0,1,44.245,7.748Zm-3.1,27.119h9.783a6.769,6.769,0,0,1-6.682,5.811A6.668,6.668,0,0,1,39.467,38.6,9.629,9.629,0,0,0,41.144,34.867Zm-9.49-32.93A7.756,7.756,0,0,1,39.4,9.685h-15.5A7.756,7.756,0,0,1,31.654,1.937Zm-7.748,9.686H39.4v19.37h-15.5ZM39.4,32.93a7.748,7.748,0,1,1-15.5,0ZM17.659,26.471l4.309-2.8v7.321H21a.969.969,0,1,0,0,1.937h.968a9.655,9.655,0,0,0,2.837,6.841l-.735,4.637H19.105Zm8.372,17.937.521-3.281a9.491,9.491,0,0,0,10.2,0l.52,3.281Zm13.207,0-.618-3.9a8.493,8.493,0,0,0,9.77,1.009l.494,2.889Zm18.706,0h-7.1l-.7-4.133a8.66,8.66,0,0,0,2.719-5.408H53.93a.969.969,0,1,0,0-1.937h-.968V22.379l4.982-3.24Z"/>
    </g>
  </g>
</svg>
