<svg xmlns="http://www.w3.org/2000/svg" viewBox="0 0 56.39 41.02">
  <defs>
    <style>
      .a {
        fill: #010101;
      }

      .b {
        fill: #231f20;
      }
    </style>
  </defs>
  <title>Risorsa 36</title>
  <g>
    <g>
      <ellipse class="a" cx="13.172" cy="12.683" rx="0.941" ry="0.746"/>
      <path class="a" d="M47.91,22l-6.6-5.22c1.83-.78,2.51-2.58,1.52-4.03a3.671,3.671,0,0,0-2.37-1.46V7.39c2.55-.41,4.19-2.38,3.67-4.4a3.569,3.569,0,0,0-1.08-1.72,1.126,1.126,0,0,0-1.33-.07.647.647,0,0,0-.08,1.06,1.925,1.925,0,0,1-.26,3.15,3.345,3.345,0,0,1-3.98-.2,1.934,1.934,0,0,1,.25-3.16,3.292,3.292,0,0,1,1.87-.55.864.864,0,0,0,.94-.75A.864.864,0,0,0,39.52,0a4.851,4.851,0,0,0-4.37,2.37L12.97,8.96a5.268,5.268,0,0,0-3.33,1.26.644.644,0,0,0,.09,1.05,1.11,1.11,0,0,0,1.32-.07,3.376,3.376,0,0,1,3.99-.19,1.924,1.924,0,0,1,.25,3.15,3.36,3.36,0,0,1-3.99.2,2.071,2.071,0,0,1-.95-1.68.857.857,0,0,0-.94-.74.857.857,0,0,0-.94.74,2.957,2.957,0,0,0,.06.52.929.929,0,0,0-.05.1L5.92,24.48c-.1.41.24.79.75.87a.97.97,0,0,0,.17.01.912.912,0,0,0,.93-.61l2.15-9.38a5.35,5.35,0,0,0,3.2,1.04l-.84,12.68H6.77l.49-2.1c.08-.41-.28-.79-.79-.85a.931.931,0,0,0-1.06.58l-.55,2.37H3.76a.857.857,0,0,0-.94.75v6.71A2.577,2.577,0,0,0,0,38.79a2.577,2.577,0,0,0,2.82,2.23H13.17a.765.765,0,1,0,0-1.49H2.82a.765.765,0,1,1,0-1.49H15.99a.767.767,0,1,1,0,1.49.765.765,0,1,0,0,1.49,2.587,2.587,0,0,0,2.83-2.23,2.587,2.587,0,0,0-2.83-2.24V29.84a.857.857,0,0,0-.94-.75h-.89l.87-12.98a4.318,4.318,0,0,0,2.52-2.08l9.2-3.48a.686.686,0,0,0,.45-.99,1.069,1.069,0,0,0-1.26-.35l-8.12,3.06a3.619,3.619,0,0,0-1.89-2.59L34.85,4.05a3.235,3.235,0,0,0,.62,1.56L28.76,8.14a.683.683,0,0,0-.43,1,.982.982,0,0,0,.84.42,1.057,1.057,0,0,0,.4-.08l7.22-2.72a5.294,5.294,0,0,0,1.79.63v4.55a.857.857,0,0,0,.94.74,1.72,1.72,0,0,1,1.88,1.49,1.928,1.928,0,0,1-3.76,0,.967.967,0,0,0-1.88,0,2.964,2.964,0,0,0,1.96,2.61L31.13,22l-.35.28h2.66l.35-.28,5.73-4.53L45.25,22l.35.28h2.66ZM14.11,36.55H4.7V33.57h6.59a.769.769,0,1,0,0-1.5H4.7V30.58h9.41Z"/>
      <ellipse class="a" cx="39.519" cy="3.734" rx="0.941" ry="0.746"/>
    </g>
    <path class="b" d="M55.63,22H23.73a.76.76,0,0,0-.76.76V34.91a.755.755,0,0,0,.22.54.572.572,0,0,1,.08.07.138.138,0,0,1,.04.03c.03.01.05.03.08.04s.03.02.04.02a.488.488,0,0,1,.07.03.235.235,0,0,1,.08.02h.03a.22.22,0,0,0,.08.01H55.63a.76.76,0,0,0,.76-.76V22.76A.76.76,0,0,0,55.63,22Zm-.76,12.15H24.49V23.52H54.87Z"/>
    <path class="b" d="M29.047,25.8v6.077a.76.76,0,0,1-1.519,0V25.8a.76.76,0,0,1,1.519,0Z"/>
    <path class="b" d="M33.6,25.8v6.077a.76.76,0,0,1-1.519,0V25.8a.76.76,0,0,1,1.519,0Z"/>
    <path class="b" d="M38.162,25.8v6.077a.76.76,0,0,1-1.519,0V25.8a.76.76,0,0,1,1.519,0Z"/>
    <path class="b" d="M42.719,25.8v6.077a.76.76,0,0,1-1.519,0V25.8a.76.76,0,0,1,1.519,0Z"/>
    <path class="b" d="M47.277,25.8v6.077a.76.76,0,0,1-1.519,0V25.8a.76.76,0,0,1,1.519,0Z"/>
    <path class="b" d="M51.834,25.8v6.077a.76.76,0,0,1-1.519,0V25.8a.76.76,0,0,1,1.519,0Z"/>
  </g>
</svg>
