<svg xmlns="http://www.w3.org/2000/svg" viewBox="0 0 66.593 66.174">
  <defs>
    <style>
      .a {
        fill: #fff;
      }

      .b {
        fill: #010101;
      }
    </style>
  </defs>
  <title>Risorsa 39</title>
  <g>
    <g>
      <path d="M52.022,5.515c.085,0,.17-.014.255-.022A2.739,2.739,0,0,0,52.145.021C50.928-.015,49.71,0,48.492.021A2.365,2.365,0,0,0,47.673.2q-15.327,6-30.656,12a3.773,3.773,0,0,0-2.166,2c-1.091,2.263-2.253,4.492-3.345,6.755a1.027,1.027,0,0,1-1.105.666c-2.206-.033-4.415-.022-6.623-.014-1.183,0-1.421.253-1.422,1.458,0,1.727,0,3.453,0,5.181,0,.268,0,.535,0,.812-.267.019-.408.029-.547.037C.723,29.159.494,29.4.49,30.5q0,1.53,0,3.057a.974.974,0,0,0,1.1,1.1c1.018,0,2.037,0,3.056,0,.809,0,1.616,0,2.384,0v2.014c-.552,0-1.03,0-1.509,0-2.118.01-3.158,1.056-3.16,3.188q0,5.9-.005,11.805c0,.3-.027.595-.042.9-.236.022-.376.048-.515.048-.632,0-1.291.071-1.274.88.019.849.7.881,1.364.876,1.529-.012,3.058,0,4.587,0,1.182,0,1.429-.245,1.432-1.454.007-2.661,0-5.321,0-7.983V42.2H19.3V52.259c0,2.109,0,2.109,2.1,2.109,1.415,0,2.83,0,4.245,0,.545,0,.958-.238.992-.82.037-.647-.392-.884-.975-.918-.274-.015-.549-.032-.885-.052v-.991c0-4.021.01-8.04,0-12.06a2.674,2.674,0,0,0-2.8-2.845c-.586-.012-1.173,0-1.8,0V34.66h5.34c.759,0,1.155-.345,1.145-1.132-.012-1.046,0-2.094,0-3.142,0-.965-.292-1.266-1.25-1.292-.661-.017-1.322,0-1.982,0,1.42-.911,2.9-1.588,4.315-2.378a10.986,10.986,0,0,0,2.383-1.7q8.776-8.7,17.488-17.464a10.35,10.35,0,0,0,.652-.838,3.782,3.782,0,0,1,.127.52c.005,5.776.014,11.55-.006,17.325a1.637,1.637,0,0,1-.371.895c-.951,1.232-1.957,2.421-2.891,3.664a2.249,2.249,0,0,0-.457,1.215c-.043,2.292-.024,4.585-.014,6.879,0,.925.286,1.194,1.227,1.2q3.356,0,6.71,0c1.094,0,1.288-.19,1.293-1.293.01-2.235.03-4.473-.014-6.708a2.407,2.407,0,0,0-.455-1.3c-.877-1.181-1.86-2.282-2.73-3.466a2.651,2.651,0,0,1-.511-1.44c-.038-5.549-.028-11.1-.031-16.645C50.14,5.61,50.14,5.612,52.022,5.515ZM13.427,21q1.542-3.1,3.1-6.2c.234-.471.5-.941,1.141-.773.615.161.671.669.668,1.215-.01,2.084-.005,4.169-.005,6.331H13.237A4.244,4.244,0,0,1,13.427,21ZM4.146,23.454H18.258v5.593H4.146ZM6.047,52.5c-.052.034-.1.086-.146.091-1.8.172-1.8.172-1.8-1.625q0-3.9-.006-7.8V42.17H6.047Zm17.009-.891c.015.824-.218,1.139-1.035,1.018a6.688,6.688,0,0,0-.943-.007V42.177h1.966V43.2C23.042,46,23.007,48.8,23.056,51.605ZM21.69,38.418a1.447,1.447,0,0,1,1.087.443,2.363,2.363,0,0,1,.172,1.361c-.007.086-.586.18-.9.181-2.857.014-5.713.009-8.57.009v-.007c-2.8,0-5.6.009-8.4-.012-.381,0-.967.275-.99-.521s.319-1.366.971-1.461a2.863,2.863,0,0,1,.425-.012C10.887,38.4,16.289,38.39,21.69,38.418ZM8.881,36.629V34.717h1.891v1.912Zm3.7-.011V34.724h1.948v1.894Zm3.8-.006V34.7h1.9v1.912ZM24.9,30.965v1.894c-.295.015-.594.048-.891.048q-10.227,0-20.453-.012c-1.4,0-1.318.283-1.314-1.4,0-.163.03-.328.051-.535Zm-4.8-3.323v-.931c0-3.736.026-7.47-.007-11.2a18.134,18.134,0,0,0-.367-2.466L44.374,3.385C36.286,11.464,28.237,19.506,20.093,27.642Zm32,8.976H46.445V30.963h5.649Zm-.989-7.609H47.453l1.811-2.281Zm-4.4-23.1c-5.6,5.756-11.37,11.345-16.975,17.1a19.334,19.334,0,0,1-5.5,3.49l-.167-.153c2.148-2.129,4.3-4.249,6.44-6.384q8.766-8.754,17.51-17.527a2.008,2.008,0,0,1,1.711-.69c.7.056,1.413,0,2.12.021.652.022,1.208.244,1.194,1.015a.934.934,0,0,1-1.208.96C49.637,3.368,48.185,4.392,46.707,5.912Z"/>
      <path class="a" d="M4.146,23.454v5.593H18.258V23.454ZM8.59,26.818a1.935,1.935,0,0,1-2.177.022c-.169-.224-.286-.732-.158-.882a4.113,4.113,0,0,1,1-.706,6.188,6.188,0,0,1,1.052.241A.816.816,0,0,1,8.59,26.818Zm2.647.323c-.9,0-1.4-.32-1.33-.928.087-.778.668-.88,1.31-.873.909.01,1.345.311,1.33.939C12.532,26.867,12.119,27.139,11.237,27.141Zm3.841,0a1.182,1.182,0,0,1-.657-.066c-.287-.2-.719-.527-.7-.768.027-.319.394-.649.681-.895.139-.119.431-.054.589-.068.705.019,1.3.134,1.288.939C16.269,27.051,15.664,27.117,15.078,27.137Z"/>
      <path class="a" d="M24.064,26.345c2.147-2.127,4.3-4.248,6.44-6.383q8.766-8.754,17.51-17.527a2.007,2.007,0,0,1,1.71-.69c.7.056,1.414,0,2.121.021.652.021,1.206.244,1.193,1.015a.934.934,0,0,1-1.208.961c-2.193-.375-3.644.65-5.123,2.17-5.6,5.756-11.371,11.346-16.975,17.1a19.34,19.34,0,0,1-5.5,3.488Z"/>
      <path class="a" d="M2.289,30.964H24.9v1.9c-.3.016-.595.047-.893.047q-10.225,0-20.452-.011c-1.4,0-1.317.283-1.314-1.4C2.239,31.336,2.269,31.173,2.289,30.964Z"/>
      <path class="a" d="M13.478,40.4c-2.8,0-5.6.01-8.4-.011-.379,0-.966.275-.989-.522s.319-1.365.972-1.461a2.981,2.981,0,0,1,.423-.011c5.4,0,10.805-.009,16.207.018a1.451,1.451,0,0,1,1.086.444,2.371,2.371,0,0,1,.172,1.361c-.007.086-.586.18-.9.182-2.856.014-5.713.008-8.57.008Z"/>
      <path class="a" d="M46.445,30.964h5.649v5.654H46.445Z"/>
      <path class="a" d="M4.094,42.171H6.047V52.5c-.052.034-.1.088-.145.093-1.8.171-1.8.171-1.8-1.627q0-3.9-.007-7.8Z"/>
      <path class="a" d="M21.078,42.177h1.966V43.2c0,2.8-.037,5.6.012,8.406.015.824-.218,1.138-1.034,1.017a6.705,6.705,0,0,0-.944-.007Z"/>
      <path class="a" d="M10.772,36.629H8.882V34.717h1.89Z"/>
      <path class="a" d="M12.583,36.618V34.724H14.53v1.894Z"/>
      <path class="a" d="M16.382,34.7h1.9v1.91h-1.9Z"/>
      <path d="M7.261,25.252a6.121,6.121,0,0,1,1.051.241.818.818,0,0,1,.278,1.325,1.937,1.937,0,0,1-2.178.021c-.168-.224-.285-.73-.157-.881A4.1,4.1,0,0,1,7.261,25.252Z"/>
      <path d="M11.238,27.141c-.906,0-1.4-.32-1.331-.928.086-.778.667-.879,1.309-.873.91.01,1.347.311,1.331.939C12.531,26.867,12.119,27.139,11.238,27.141Z"/>
      <path d="M14.993,25.34c.7.019,1.3.134,1.288.94-.012.77-.616.838-1.2.857a1.186,1.186,0,0,1-.658-.066c-.288-.2-.718-.526-.7-.767.026-.321.393-.65.681-.9C14.542,25.29,14.836,25.353,14.993,25.34Z"/>
    </g>
    <path class="b" d="M33.209,63.8a3.4,3.4,0,0,1-2.36-1.032,1.189,1.189,0,0,0-1.659,0,3.535,3.535,0,0,1-1.85.987V60.781a5.676,5.676,0,0,0,2.68-1,5.6,5.6,0,0,0,3.189,1.023,1.189,1.189,0,0,0,0-2.378,3.4,3.4,0,0,1-2.36-1.031,1.188,1.188,0,0,0-1.659,0,3.55,3.55,0,0,1-1.85.988V53.1H24.962v0H1.189a1.189,1.189,0,1,0,0,2.378H24.962v7.7a4.2,4.2,0,0,1-.494-.412,1.187,1.187,0,0,0-1.4-.189,1.214,1.214,0,0,0-.257.189,3.213,3.213,0,0,1-4.721,0,1.188,1.188,0,0,0-1.659,0,3.4,3.4,0,0,1-2.36,1.033,3.4,3.4,0,0,1-2.36-1.032,1.188,1.188,0,0,0-1.659,0A3.4,3.4,0,0,1,7.689,63.8a3.4,3.4,0,0,1-2.36-1.033,1.189,1.189,0,0,0-1.66,0A3.4,3.4,0,0,1,1.309,63.8a1.189,1.189,0,1,0,0,2.377A5.607,5.607,0,0,0,4.5,65.151a5.614,5.614,0,0,0,3.19,1.023,5.616,5.616,0,0,0,3.19-1.022,5.487,5.487,0,0,0,6.38,0,5.485,5.485,0,0,0,6.38,0,5.489,5.489,0,0,0,6.381,0,5.615,5.615,0,0,0,3.189,1.022,1.189,1.189,0,1,0,0-2.377Z"/>
    <path class="b" d="M65.391,58.431A3.442,3.442,0,0,1,63,57.388a1.2,1.2,0,0,0-1.679,0,3.254,3.254,0,0,1-4.776,0,1.2,1.2,0,0,0-1.679,0,3.253,3.253,0,0,1-4.776,0,1.2,1.2,0,0,0-1.679,0,3.254,3.254,0,0,1-4.776,0,1.2,1.2,0,0,0-1.678,0,3.255,3.255,0,0,1-4.777,0,1.2,1.2,0,0,0-1.679,0,3.438,3.438,0,0,1-2.387,1.044,1.2,1.2,0,1,0,0,2.405A5.678,5.678,0,0,0,36.344,59.8a5.554,5.554,0,0,0,6.455,0,5.554,5.554,0,0,0,6.455,0,5.554,5.554,0,0,0,6.455,0,5.554,5.554,0,0,0,6.455,0,5.671,5.671,0,0,0,3.227,1.034,1.2,1.2,0,0,0,0-2.405Z"/>
  </g>
</svg>
