<svg xmlns="http://www.w3.org/2000/svg" viewBox="0 0 23.908 23.912">
  <defs>
    <style>
      .a {
        fill: #010101;
        stroke: #231f20;
        stroke-miterlimit: 10;
        stroke-width: 0.5px;
      }
    </style>
  </defs>
  <title>Risorsa 27</title>
  <path class="a" d="M23.647,15.367,22.086,9.514a.39.39,0,0,0-.611-.211l-4.682,3.512a.368.368,0,0,0-.107.132c0,.006-.01.01-.014.016l-1.035,2.243L17.024,3.417a.407.407,0,0,0,0-.078c0-.006,0-.011,0-.017l0-.007a.387.387,0,0,0-.054-.144l-.019-.029a.4.4,0,0,0-.115-.108L12.151.3a.393.393,0,0,0-.414.012L7.055,3.437a.392.392,0,0,0-.1.1.167.167,0,0,0-.017.026.366.366,0,0,0-.048.133l0,.007c0,.006,0,.012,0,.018a.372.372,0,0,0,0,.067l.684,8.551L4.4,9.7a.4.4,0,0,0-.315-.085.392.392,0,0,0-.269.185L.3,15.656a.262.262,0,0,0-.046.224.387.387,0,0,0,.014.112l2.539,6.89h-1v.78H18.978v-.78H18.2l5.384-7.18c.006-.008.006-.018.012-.026a.412.412,0,0,0,.047-.105.36.36,0,0,0,.012-.044A.394.394,0,0,0,23.647,15.367Zm-2.73-4.67-1.986,5.676-1.419-3.122ZM11.969,1.1,16,3.454,13.354,6.1H9.793L7.855,3.843ZM7.78,13.538h0l.417.349L4.891,16.292l-.3-5.412ZM3.832,11.3l.288,5.2-2.888-.866Zm.319,11.586H3.642L1.276,16.456l2.968.891,2.075,5.535Zm4.292,0H7.153L5.01,17.17l3.433-2.5Zm.78,0V13.907A.38.38,0,0,0,9.2,13.8a.525.525,0,0,0-.013-.057.376.376,0,0,0-.1-.137l-.676-.564-.65-8.117L9.234,6.649l1.132,16.233Zm2.759,0h-.834l-1.116-16H13.1ZM13.894,6.666l2.224-2.223L14.583,17.491l-1.7,3.685Zm-.939,16.216,2.363-5.12h0l1.706-3.7,1.519,3.341-2.921,5.477Zm4.267,0h-.715l2.753-5.163,2.783-1.264Zm2.426-6.2,2.011-5.746,1.149,4.309Z"/>
</svg>
