<svg xmlns="http://www.w3.org/2000/svg" viewBox="0 0 30.95 35.535">
  <defs>
    <style>
      .a {
        fill: #010101;
      }
    </style>
  </defs>
  <title>Risorsa 25</title>
  <path class="a" d="M30.95,29.8h-2.8l-.23-2.293h2.462V22.926h-2.92l-.229-2.293H29.8V16.048H26.769l-.229-2.292h2.691V9.17h-3.15l-.229-2.292h2.232V2.293H25.393L25.164,0H20.573l.23,2.293H10.148L10.377,0H5.786L5.557,2.293H2.866V6.878H5.1L4.869,9.17H1.719v4.586H4.41l-.229,2.292H1.146v4.585H3.723l-.23,2.293H.573v4.585H3.035L2.806,29.8H0v4.585H2.347l-.115,1.146H6.823l.115-1.146H24.012l.115,1.146h4.591L28.6,34.389H30.95ZM2.462,33.243H1.146V30.95H2.691Zm.687-6.878H1.719V24.072h1.66ZM28.658,17.2v2.292H27.113L26.884,17.2Zm-.574-6.878v2.292H26.425L26.2,10.317ZM26.938,3.439V5.732h-1.2l-.229-2.293ZM9.69,6.878h1.2V5.732H9.8l.229-2.293H20.917l.229,2.293h-9.11V6.878h9.226l.229,2.292H9.46Zm-.345,3.439h12.26l.229,2.292H9.116ZM8.084,22.926l.23-2.293H22.637l.229,2.293Zm14.9,1.146.23,2.293H7.74l.23-2.293ZM8.428,19.487,8.657,17.2H22.293l.229,2.292Zm.344-3.439L9,13.756H21.949l.229,2.292ZM4.012,5.732V3.439h1.43L5.213,5.732ZM2.866,12.609V10.317H4.754l-.229,2.292Zm-.573,6.878V17.2H4.067l-.23,2.292Zm3.493,14.9H3.5L6.823,1.146H9.11Zm1.267-1.146.229-2.293H21.207V29.8H7.4l.229-2.293h15.7l.23,2.293h-1.2V30.95h1.315l.23,2.293Zm18.111,1.146L21.84,1.146h2.287l3.324,33.243Zm2.407-10.317h1.66v2.293H27.8ZM29.8,33.243H28.488l-.229-2.293H29.8Z"/>
</svg>
