<svg xmlns="http://www.w3.org/2000/svg" viewBox="0 0 44.086 41.249">
  <defs>
    <style>
      .a {
        fill: #040305;
      }
    </style>
  </defs>
  <title>Risorsa 35</title>
  <g>
    <path class="a" d="M5.837,40.764l-.006-.01a6.875,6.875,0,0,0,2.539.5,6.959,6.959,0,0,0,6.907-6.128A7.927,7.927,0,0,1,9.1,34.933l-.2,1.557H4.028l1.031,2.98-2.1-3.484L7.8,35.314,7.78,34.173a8.021,8.021,0,0,1-3.4-6.547,8.114,8.114,0,0,1,.054-.9,6.959,6.959,0,0,0-4.371,7.44C.453,36.939,3.324,40,5.837,40.764Z"/>
    <path class="a" d="M21.856,24.86,44.086,1.31,20.056,17.84,25.716,0,13.606,16.92,11.586,5.86,8.876,18.25l-2.95-3.66V25.25c0,.38.01.73.02,1.07a8.157,8.157,0,0,0,1.8,5.57c.34.43.72.88,1.18,1.37a2.148,2.148,0,0,0,.35.32,6.25,6.25,0,0,0,3.41.99c.39.03.8.05,1.24.05s.91-.02,1.39-.04c.41-.02.83-.05,1.25-.09a77.393,77.393,0,0,0,10-1.72l4.93-1.22-9.66-1.69,14.07-5Zm-7.52,5.86,2.75.48,1.17.21,1.13.2,1.15.2c-.45.07-.93.15-1.41.22s-.99.13-1.49.19c-.6.07-1.19.13-1.77.17-.27.02-.53.03-.79.05-.39.02-.78.04-1.15.04-2.6,0-3.28-.52-3.43-.68-.34-.36-.62-.68-.87-.99-1.48-1.81-1.55-2.87-1.55-5.56V20.67l.11.14.68.84.67.84.48.59.19-.91.27-1.23.26-1.17.67-3.04.52,2.89.2,1.06.19,1.06.1.53.37-.52.71-.99.69-.96,5.4-7.56-2.75,8.69-.34,1.06-.34,1.09-.02.06.05-.04.9-.62.91-.62L28.7,14.5l-9.07,9.61-.79.83-.82.87L16.9,27h6.6l-3.07,1.09-1.11.4-1.15.41L14.1,30.34l-.63.23Z"/>
    <path class="a" d="M33.267,37.021l-15.339-.739,15,2.066C35.209,37.838,33.267,37.021,33.267,37.021Z"/>
    <path class="a" d="M6.844,6.7l1.223,8.312S7.756,5.565,7.888,4.5,6.319,3.12,6.844,6.7Z"/>
    <path class="a" d="M31.354,3.573l-7.832,9.3s9.962-9.328,11.25-10.188S34.723-.427,31.354,3.573Z"/>
  </g>
</svg>
