<svg xmlns="http://www.w3.org/2000/svg" viewBox="0 0 56.394 41.018">
  <defs>
    <style>
      .a {
        fill: #010101;
      }

      .b {
        fill: #231f20;
      }
    </style>
  </defs>
  <title>Risorsa 18</title>
  <g>
    <g>
      <ellipse class="a" cx="13.174" cy="12.678" rx="0.941" ry="0.746"/>
      <path class="a" d="M41.316,16.775c1.823-.778,2.5-2.581,1.52-4.025a3.735,3.735,0,0,0-2.374-1.468v-3.9c2.545-.412,4.188-2.382,3.669-4.4A3.516,3.516,0,0,0,43.05,1.263,1.122,1.122,0,0,0,41.722,1.2a.644.644,0,0,0-.084,1.053,1.932,1.932,0,0,1-.252,3.158,3.362,3.362,0,0,1-3.985-.2,1.931,1.931,0,0,1,.253-3.157,3.285,3.285,0,0,1,1.867-.558.861.861,0,0,0,.941-.746A.861.861,0,0,0,39.521,0a4.818,4.818,0,0,0-4.368,2.366L12.974,8.958a5.275,5.275,0,0,0-3.329,1.254.644.644,0,0,0,.084,1.053,1.121,1.121,0,0,0,1.327-.066,3.364,3.364,0,0,1,3.985-.2,1.932,1.932,0,0,1,.25,3.159,3.362,3.362,0,0,1-3.985.2,2.07,2.07,0,0,1-.955-1.678.86.86,0,0,0-.941-.745.86.86,0,0,0-.941.745,2.87,2.87,0,0,0,.066.513.519.519,0,0,0-.05.1L5.918,24.478c-.093.4.243.79.752.866a1.129,1.129,0,0,0,.173.013.91.91,0,0,0,.926-.613l2.152-9.381a5.375,5.375,0,0,0,3.2,1.044l-.84,12.679H6.775l.482-2.1c.08-.406-.271-.787-.785-.851a.95.95,0,0,0-1.065.585l-.546,2.371h-1.1a.86.86,0,0,0-.941.745v6.712A2.582,2.582,0,0,0,0,38.781a2.581,2.581,0,0,0,2.823,2.237H13.174a.766.766,0,1,0,0-1.492H2.823a.766.766,0,1,1,0-1.491H16a.766.766,0,1,1,0,1.491.766.766,0,1,0,0,1.492,2.581,2.581,0,0,0,2.823-2.237A2.582,2.582,0,0,0,16,36.543V29.831a.86.86,0,0,0-.941-.745h-.891L15.029,16.1a4.31,4.31,0,0,0,2.523-2.082l9.2-3.472a.689.689,0,0,0,.446-.995A1.062,1.062,0,0,0,25.943,9.2l-8.117,3.064a3.651,3.651,0,0,0-1.893-2.59L34.856,4.05A3.185,3.185,0,0,0,35.475,5.6L28.764,8.136a.685.685,0,0,0-.436,1,.987.987,0,0,0,.842.42,1.162,1.162,0,0,0,.4-.074l7.218-2.723a5.318,5.318,0,0,0,1.788.626v4.551a.86.86,0,0,0,.941.745A1.721,1.721,0,0,1,41.4,14.17a1.933,1.933,0,0,1-3.764,0,.966.966,0,0,0-1.882,0,2.959,2.959,0,0,0,1.969,2.6l-6.944,5.5h2.66l6.079-4.817L45.6,22.279h2.66Zm-27.2,19.768H4.705V33.56h6.587a.766.766,0,1,0,0-1.491H4.705V30.577h9.41Z"/>
      <ellipse class="a" cx="39.521" cy="3.729" rx="0.941" ry="0.746"/>
    </g>
    <path class="b" d="M55.634,21.994h-31.9a.76.76,0,0,0-.759.76V34.907a.757.757,0,0,0,.222.537.808.808,0,0,0,.083.072l.038.026a.68.68,0,0,0,.079.046l.042.019.069.026.073.018.038.007a.631.631,0,0,0,.076.008H55.634a.76.76,0,0,0,.76-.76V22.754A.761.761,0,0,0,55.634,21.994Zm-.759,12.154H24.491V23.513H54.875Z"/>
    <path class="b" d="M29.049,25.792v6.077a.76.76,0,0,1-1.519,0V25.792a.76.76,0,0,1,1.519,0Z"/>
    <path class="b" d="M33.606,25.792v6.077a.76.76,0,0,1-1.519,0V25.792a.76.76,0,0,1,1.519,0Z"/>
    <path class="b" d="M38.164,25.792v6.077a.76.76,0,0,1-1.519,0V25.792a.76.76,0,0,1,1.519,0Z"/>
    <path class="b" d="M42.721,25.792v6.077a.76.76,0,0,1-1.519,0V25.792a.76.76,0,0,1,1.519,0Z"/>
    <path class="b" d="M47.279,25.792v6.077a.76.76,0,0,1-1.519,0V25.792a.76.76,0,0,1,1.519,0Z"/>
    <path class="b" d="M51.836,25.792v6.077a.76.76,0,0,1-1.519,0V25.792a.76.76,0,0,1,1.519,0Z"/>
  </g>
</svg>
