<svg xmlns="http://www.w3.org/2000/svg" viewBox="0 0 55.975 56.598">
  <defs>
    <style>
      .a {
        fill: #fff;
      }

      .b {
        fill: #010101;
      }
    </style>
  </defs>
  <title>Risorsa 16</title>
  <g>
    <g>
      <path d="M4.646,32.284l-.072.015.072-.013c.016,0,.033,0,.049-.006A.389.389,0,0,0,4.646,32.284Zm9.516-3.117v1.6h0v-1.6Zm3.947,6.285v8.774h0V35.452ZM2.318,26.026h0ZM22.33,45.594a.166.166,0,0,1,.014.037.775.775,0,0,0,.083-.037Z"/>
      <path class="a" d="M3.878,19.714v4.7H15.74v-4.7Zm3.881,2.6q-.012.03-.027.06a.673.673,0,0,1-.073.115c-.014.019-.03.038-.045.055a1.753,1.753,0,0,1-1.431.24,1.033,1.033,0,0,1-.214-.076.534.534,0,0,1-.124-.082.421.421,0,0,1-.062-.065c-.141-.189-.241-.614-.133-.741a.556.556,0,0,1,.047-.05c.016-.017.033-.035.05-.05a1.211,1.211,0,0,1,.093-.082l.067-.051c.207-.151.436-.26.589-.36.135.03.252.052.355.07l.117.021.055.01.1.02a1.312,1.312,0,0,1,.259.082.769.769,0,0,1,.1.054.661.661,0,0,1,.086.064.5.5,0,0,1,.047.045.213.213,0,0,1,.021.022.519.519,0,0,1,.037.045.526.526,0,0,1,.055.081l.023.047c.007.015.012.029.017.043s.011.032.017.049a.32.32,0,0,1,.01.042.267.267,0,0,1,.008.048.125.125,0,0,1,0,.04v.018A.645.645,0,0,1,7.759,22.312Zm2.079.5a2.489,2.489,0,0,1-.334-.02.446.446,0,0,1-.051-.007,1.646,1.646,0,0,1-.194-.042,1.2,1.2,0,0,1-.176-.065c-.026-.013-.051-.026-.074-.04l0,0A.6.6,0,0,1,8.95,22.6a.639.639,0,0,1-.068-.059c-.009-.008-.017-.017-.025-.025l-.018-.022c-.01-.013-.02-.026-.029-.04a.387.387,0,0,1-.028-.047.47.47,0,0,1-.043-.107l-.013-.056a.677.677,0,0,1-.01-.122c0-.028,0-.057,0-.088.073-.654.562-.739,1.1-.734.056,0,.109,0,.16.006a.792.792,0,0,1,.1.009h.008c.04,0,.079.01.116.015s.056.009.083.016.053.011.077.019l.073.021a.88.88,0,0,1,.164.07.4.4,0,0,1,.056.034l.008,0a.6.6,0,0,1,.062.048.551.551,0,0,1,.13.163.3.3,0,0,1,.02.04.469.469,0,0,1,.042.128.266.266,0,0,1,.007.039.081.081,0,0,1,0,.027.44.44,0,0,1,.005.051.647.647,0,0,1,0,.1C10.926,22.583,10.58,22.812,9.838,22.813Zm4.24-.724a.929.929,0,0,1-.006.094V22.2c0,.017,0,.032-.007.048a.782.782,0,0,1-.043.156.2.2,0,0,1-.016.033.258.258,0,0,1-.03.054.337.337,0,0,1-.021.031l-.016.02-.021.026a.59.59,0,0,1-.179.127.237.237,0,0,1-.046.02l-.02.009a.533.533,0,0,1-.071.022.461.461,0,0,1-.073.019l-.1.019-.088.011h-.012c-.056.006-.114.009-.171.012l-.093,0-.127.006a.723.723,0,0,1-.426-.062c-.241-.171-.6-.442-.587-.645.023-.27.33-.545.573-.753.116-.1.363-.045.5-.057l.108,0,.053,0c.036,0,.07,0,.1.009h0l.1.011.048.008c.033,0,.064.011.094.018a.746.746,0,0,1,.413.219.528.528,0,0,1,.036.044.376.376,0,0,1,.031.05c.009.014.017.03.026.047a.666.666,0,0,1,.026.067c0,.02.012.042.017.064v0c0,.021.009.043.012.065a.627.627,0,0,1,.008.077c0,.025,0,.052,0,.079Z"/>
      <path class="a" d="M44.974,2.315v.023a.785.785,0,0,1-1.015.807c-1.845-.314-3.065.547-4.307,1.825C34.946,9.807,30.1,14.505,25.384,19.34c-.105.109-.213.213-.321.312-.049.045-.1.089-.147.132l-.1.085c-.073.062-.147.124-.223.184-.044.035-.089.073-.135.107-.092.07-.184.14-.277.2-.05.036-.1.072-.15.106-.136.094-.271.184-.409.27-.061.04-.124.079-.185.116l-.17.1-.091.052-.3.169c-.331.184-.667.358-1,.528l-.2.1c-.1.051-.2.1-.306.153l-.051.025c-.187.093-.374.186-.561.282l-.139-.127c1.8-1.79,3.616-3.572,5.414-5.366Q33.4,9.422,40.75,2.047a1.687,1.687,0,0,1,1.438-.58c.35.027.7.021,1.052.016.243,0,.487-.008.73,0a2.007,2.007,0,0,1,.264.024l.055.01c.022,0,.045.009.067.015a.736.736,0,0,1,.087.025.444.444,0,0,1,.061.022h0c.017.007.035.014.052.023l.016.007a.237.237,0,0,1,.047.026.677.677,0,0,1,.069.044.7.7,0,0,1,.061.05.468.468,0,0,1,.053.056.39.39,0,0,1,.046.061.647.647,0,0,1,.045.077c.01.023.02.046.029.072a.281.281,0,0,1,.01.031c.007.023.014.046.019.071v.008a.963.963,0,0,1,.014.1A.794.794,0,0,1,44.974,2.315Z"/>
      <path class="a" d="M21.32,26.026v1.593c-.124.006-.25.016-.374.025s-.251.014-.377.014H16.75q-2.437,0-4.878,0H9.2q-2.911,0-5.823-.006c-.388,0-.641.025-.8.009l-.056-.007-.008,0a.293.293,0,0,1-.092-.033l-.013-.008a.1.1,0,0,1-.021-.017l-.007-.006a.186.186,0,0,1-.026-.031l-.013-.02,0-.01a.192.192,0,0,1-.014-.033A.46.46,0,0,1,2.3,27.4a.17.17,0,0,1-.006-.035.211.211,0,0,1,0-.038l0-.042c0-.024,0-.051,0-.081s0-.077,0-.121c0-.157,0-.355,0-.6,0-.138.025-.274.043-.45h19Z"/>
      <path class="a" d="M19.683,33.808c-.006.073-.493.151-.757.153-2.4.011-4.8.007-7.2.007v-.007c-1.418,0-2.835,0-4.253,0H6.426q-.884,0-1.765-.009c-.319,0-.811.232-.831-.44,0-.022,0-.044,0-.067s0-.074,0-.111,0-.059.007-.087,0-.036.007-.054.008-.055.013-.08.015-.07.023-.1.019-.066.03-.1.023-.063.036-.093a1.012,1.012,0,0,1,.047-.093c.013-.023.027-.046.041-.067s.035-.049.053-.07a.15.15,0,0,1,.02-.023.806.806,0,0,1,.163-.141.387.387,0,0,1,.043-.027.734.734,0,0,1,.123-.059l.067-.023a.715.715,0,0,1,.07-.018l.072-.015a.389.389,0,0,1,.049,0,.846.846,0,0,1,.133-.006h.085c.029,0,.059,0,.089,0,4.541,0,9.082-.007,13.622.016a1.083,1.083,0,0,1,.125.007c.031,0,.064.008.1.014a.21.21,0,0,1,.05.009.58.58,0,0,1,.072.017l.057.014a1.494,1.494,0,0,1,.167.058.2.2,0,0,1,.04.018c.021.01.043.02.064.032l.046.025,0,0a.514.514,0,0,1,.054.037.191.191,0,0,1,.032.024.448.448,0,0,1,.04.036.4.4,0,0,1,.04.043l.024.035c.016.026.03.053.044.08a1,1,0,0,1,.057.156l.012.038.008.043c.006.023.01.047.015.072h0l.012.084A3.486,3.486,0,0,1,19.683,33.808Z"/>
      <rect class="a" x="39.432" y="26.026" width="4.748" height="4.752"/>
      <path class="a" d="M5.476,35.446v8.677a.242.242,0,0,0-.031.025l-.046.035-.026.015a.142.142,0,0,1-.02,0,7.331,7.331,0,0,1-.935.057h-.04l-.087-.01c-.016,0-.032,0-.046-.009a.3.3,0,0,1-.068-.019.249.249,0,0,1-.056-.021l-.009,0a.207.207,0,0,1-.052-.032.179.179,0,0,1-.039-.033.288.288,0,0,1-.04-.044.659.659,0,0,1-.04-.065v0a.79.79,0,0,1-.031-.08c-.007-.021-.013-.044-.019-.068s-.011-.05-.016-.078-.01-.072-.014-.112c-.021-.209-.021-.484-.021-.847q0-3.278-.006-6.553v-.835Z"/>
      <path class="a" d="M19.772,43.377c.013.692-.182.956-.869.855a5.623,5.623,0,0,0-.793-.006h0V35.452h1.653v.859q0,1.039-.007,2.078c0,1.159-.008,2.319,0,3.478,0,.059,0,.116,0,.174,0,.223,0,.446,0,.667S19.768,43.154,19.772,43.377Z"/>
      <rect class="a" x="7.858" y="29.182" width="1.589" height="1.606"/>
      <rect class="a" x="10.969" y="29.187" width="1.636" height="1.592"/>
      <rect class="a" x="14.162" y="29.167" width="1.598" height="1.605"/>
      <path d="M6.5,21.225a5.207,5.207,0,0,1,.883.2.687.687,0,0,1,.234,1.114,1.628,1.628,0,0,1-1.83.018c-.141-.188-.241-.614-.133-.741A3.5,3.5,0,0,1,6.5,21.225Z"/>
      <path d="M9.839,22.813c-.762,0-1.175-.269-1.119-.78.073-.654.561-.739,1.1-.734.765.008,1.132.262,1.118.79C10.926,22.583,10.579,22.811,9.839,22.813Z"/>
      <path d="M13,21.3c.592.016,1.093.113,1.083.79-.01.648-.518.7-1.011.72a1,1,0,0,1-.553-.055c-.242-.171-.6-.442-.587-.645.023-.269.331-.546.573-.753C12.616,21.257,12.863,21.31,13,21.3Z"/>
    </g>
    <g>
      <path class="b" d="M54.821,54.576a2.893,2.893,0,0,1-2.008-.878,1.012,1.012,0,0,0-1.411,0,2.732,2.732,0,0,1-4.013,0,1.012,1.012,0,0,0-1.413,0,2.733,2.733,0,0,1-4.014,0,1.009,1.009,0,0,0-1.41,0,2.733,2.733,0,0,1-4.014,0,1.012,1.012,0,0,0-1.411,0,2.734,2.734,0,0,1-4.015,0,1.01,1.01,0,0,0-1.411,0,2.889,2.889,0,0,1-2.008.878h0a2.9,2.9,0,0,1-1.76-.856,1,1,0,0,0-1.394,0,2.98,2.98,0,0,1-1.555.83v-2.5a4.768,4.768,0,0,0,2.252-.839,4.759,4.759,0,0,0,2.32.846,1.051,1.051,0,0,0,.283.04,4.771,4.771,0,0,0,2.713-.871,4.663,4.663,0,0,0,5.426,0,4.661,4.661,0,0,0,5.425,0,4.661,4.661,0,0,0,5.426,0,4.661,4.661,0,0,0,5.425,0,4.767,4.767,0,0,0,2.713.87,1.011,1.011,0,1,0,0-2.022,2.889,2.889,0,0,1-2.008-.878,1.012,1.012,0,0,0-1.411,0,2.733,2.733,0,0,1-4.014,0,1.011,1.011,0,0,0-1.412,0,2.733,2.733,0,0,1-4.014,0,1.01,1.01,0,0,0-1.411,0,2.732,2.732,0,0,1-4.013,0,1.012,1.012,0,0,0-1.411,0,2.735,2.735,0,0,1-4.016,0,1.009,1.009,0,0,0-1.41,0,2.906,2.906,0,0,1-1.948.876,2.868,2.868,0,0,1-1.966-.868,1,1,0,0,0-1.394,0,2.981,2.981,0,0,1-1.555.831V45.594h-.554a.775.775,0,0,1-.083.037.166.166,0,0,0-.014-.037h.1a.655.655,0,0,0,.356-.588.788.788,0,0,0-.06-.376.807.807,0,0,0-.76-.4l-.744-.045v-.832c0-3.38.009-6.758,0-10.137a2.249,2.249,0,0,0-2.354-2.392c-.492-.01-.986,0-1.512,0v-1.7H21.84c.638,0,.971-.29.963-.951-.01-.88,0-1.761,0-2.642,0-.811-.246-1.064-1.051-1.085-.556-.014-1.111,0-1.667,0,1.194-.765,2.436-1.335,3.627-2a9.216,9.216,0,0,0,2-1.432q7.375-7.311,14.7-14.679a8.671,8.671,0,0,0,.548-.7,3.058,3.058,0,0,1,.107.437c0,4.855.012,9.708-.006,14.562a1.364,1.364,0,0,1-.311.752c-.8,1.036-1.645,2.035-2.43,3.08a1.9,1.9,0,0,0-.384,1.021c-.036,1.927-.02,3.854-.012,5.782,0,.778.24,1,1.031,1.005q2.822,0,5.641,0c.919,0,1.082-.16,1.086-1.086.009-1.879.026-3.76-.011-5.639a2.026,2.026,0,0,0-.383-1.095c-.737-.993-1.563-1.918-2.295-2.913a2.224,2.224,0,0,1-.429-1.211c-.032-4.664-.023-9.327-.026-13.991,0-1.624,0-1.622,1.582-1.7.071,0,.143-.011.214-.018a2.3,2.3,0,0,0-.111-4.6c-1.023-.03-2.046-.016-3.07,0a1.961,1.961,0,0,0-.688.148Q27.582,5.211,14.7,10.256a3.172,3.172,0,0,0-1.82,1.679c-.917,1.9-1.894,3.775-2.812,5.677a.86.86,0,0,1-.928.56c-1.855-.027-3.711-.018-5.568-.011-.993,0-1.193.213-1.195,1.225,0,1.452,0,2.9,0,4.355,0,.226,0,.45,0,.683l-.46.031C1,24.509.808,24.714.805,25.64q0,1.285,0,2.569a.818.818,0,0,0,.921.925c.856,0,1.712,0,2.569,0,.68,0,1.358,0,2,0v1.692c-.464,0-.866,0-1.268,0a2.357,2.357,0,0,0-2.656,2.681q0,4.962,0,9.922c0,.25-.022.5-.035.756-.2.018-.316.04-.433.04-.484,0-.988.05-1.061.575a.85.85,0,0,0-.01.164.631.631,0,0,0,.363.634H1a1,1,0,1,0,0,2H20.982v6.47a3.534,3.534,0,0,1-.416-.347,1,1,0,0,0-1.393,0,2.7,2.7,0,0,1-3.968,0,1,1,0,0,0-1.4,0,2.849,2.849,0,0,1-1.983.868,2.862,2.862,0,0,1-1.985-.867,1,1,0,0,0-1.393,0,2.86,2.86,0,0,1-1.985.867,2.853,2.853,0,0,1-1.984-.868,1,1,0,0,0-1.395,0,2.849,2.849,0,0,1-1.983.868,1,1,0,1,0,0,2,4.7,4.7,0,0,0,2.68-.861,4.716,4.716,0,0,0,2.682.861,4.718,4.718,0,0,0,2.681-.859,4.609,4.609,0,0,0,5.362,0,4.608,4.608,0,0,0,5.364,0,4.61,4.61,0,0,0,5.363,0,4.777,4.777,0,0,0,2.18.831,1.035,1.035,0,0,0,.28.04,4.771,4.771,0,0,0,2.713-.871,4.663,4.663,0,0,0,5.426,0,4.661,4.661,0,0,0,5.425,0,4.661,4.661,0,0,0,5.426,0,4.661,4.661,0,0,0,5.425,0,4.772,4.772,0,0,0,2.713.87,1.011,1.011,0,1,0,0-2.022ZM19.755,41.867c0,.059,0,.116,0,.174,0,.223,0,.446,0,.667s.006.446.01.669c.013.692-.182.956-.869.855a5.623,5.623,0,0,0-.793-.006h0V35.452h1.653v.859q0,1.039-.007,2.078C19.752,39.548,19.748,40.708,19.755,41.867ZM44.18,30.779H39.432V26.026H44.18Zm-.831-6.395h-3.07L41.8,22.466C42.317,23.1,42.8,23.7,43.349,24.384ZM40.75,2.047a1.687,1.687,0,0,1,1.438-.58c.35.027.7.021,1.052.016.243,0,.487-.008.73,0a2.007,2.007,0,0,1,.264.024l.055.01c.022,0,.045.009.067.015a.736.736,0,0,1,.087.025c.021.006.041.015.061.022h0a.343.343,0,0,1,.052.023l.016.007a.237.237,0,0,1,.047.026.54.54,0,0,1,.069.044.7.7,0,0,1,.061.05.468.468,0,0,1,.053.056.39.39,0,0,1,.046.061.647.647,0,0,1,.045.077c.01.023.02.046.029.072a.281.281,0,0,1,.01.031c.007.023.014.046.019.071v.008a.963.963,0,0,1,.014.1.794.794,0,0,1,.006.11v.023a.785.785,0,0,1-1.015.807c-1.845-.314-3.065.547-4.307,1.825C34.946,9.807,30.1,14.505,25.384,19.34c-.105.109-.213.213-.321.312-.049.045-.1.089-.147.132l-.1.085c-.073.062-.147.124-.223.184-.044.035-.089.073-.135.107-.092.07-.184.14-.277.2-.05.036-.1.072-.15.106-.136.094-.271.184-.409.27-.061.04-.124.079-.185.116l-.17.1-.091.052c-.1.059-.2.115-.3.169-.331.184-.667.358-1,.528l-.2.1c-.1.051-.2.1-.306.153l-.051.025c-.187.1-.374.188-.56.283h0l-.139-.127c1.8-1.79,3.616-3.572,5.414-5.366Q33.4,9.422,40.75,2.047Zm-3.058.8c-6.8,6.791-13.564,13.551-20.41,20.389v-.782c0-3.14.022-6.279-.006-9.417a15.211,15.211,0,0,0-.308-2.074ZM11.679,17.651q1.3-2.607,2.605-5.208c.2-.395.422-.791.959-.649.517.135.564.562.561,1.021-.008,1.752,0,3.5,0,5.321H11.519A3.581,3.581,0,0,1,11.679,17.651Zm-7.8,2.063H15.74v4.7H3.878Zm-.5,7.935c-.388,0-.641.025-.8.009l-.056-.007-.008,0a.293.293,0,0,1-.092-.033l-.013-.008a.1.1,0,0,1-.021-.017l-.007-.006a.13.13,0,0,1-.026-.031l-.013-.02,0-.01a.192.192,0,0,1-.014-.033A.46.46,0,0,1,2.3,27.4a.17.17,0,0,1-.006-.035.211.211,0,0,1,0-.038l0-.042c0-.024,0-.051,0-.081s0-.077,0-.121c0-.157,0-.355,0-.6,0-.138.025-.274.043-.45h19v1.593c-.124.006-.25.016-.374.025s-.251.015-.375.015H16.75q-2.437,0-4.878,0H9.2Q6.291,27.655,3.38,27.649Zm10.782,3.123v-1.6h1.6v1.607h-1.6v0Zm-1.555-1.585v1.592H10.969V29.187Zm-3.16-.005v1.606H7.858V29.182ZM5.476,44.125a.355.355,0,0,0-.031.023l-.046.035a.116.116,0,0,1-.026.015.142.142,0,0,1-.02,0,7.331,7.331,0,0,1-.935.057h-.04l-.087-.01c-.016,0-.032,0-.046-.009a.3.3,0,0,1-.068-.019.249.249,0,0,1-.056-.021l-.009,0a.207.207,0,0,1-.052-.032.179.179,0,0,1-.039-.033.288.288,0,0,1-.04-.044.659.659,0,0,1-.04-.065v0a.38.38,0,0,1-.031-.08.45.45,0,0,1-.019-.068c-.007-.025-.011-.05-.016-.078s-.011-.072-.014-.112c-.021-.209-.021-.484-.021-.847q0-3.278-.006-6.553v-.835H5.476ZM4.661,33.952c-.319,0-.811.232-.831-.44,0-.022,0-.044,0-.067s0-.074,0-.111,0-.059.007-.087,0-.036.007-.054.008-.055.013-.08.015-.07.023-.1.019-.066.03-.1a.855.855,0,0,1,.036-.093,1.012,1.012,0,0,1,.047-.093c.013-.023.027-.046.041-.067s.035-.049.053-.07a.15.15,0,0,1,.02-.023.806.806,0,0,1,.163-.141.181.181,0,0,1,.043-.027.734.734,0,0,1,.123-.059.378.378,0,0,1,.067-.023.4.4,0,0,1,.07-.018l.072-.015a.389.389,0,0,1,.049,0,.846.846,0,0,1,.133-.006h.085c.029,0,.059,0,.089,0,4.541,0,9.082-.007,13.622.016a1.083,1.083,0,0,1,.125.007.826.826,0,0,1,.1.014.21.21,0,0,1,.05.009.58.58,0,0,1,.072.017.365.365,0,0,1,.057.014,1.494,1.494,0,0,1,.167.058.2.2,0,0,1,.04.018c.021.01.043.02.064.032l.046.025,0,0a.323.323,0,0,1,.054.037.191.191,0,0,1,.032.024.342.342,0,0,1,.04.036.4.4,0,0,1,.04.043.2.2,0,0,1,.025.035.883.883,0,0,1,.043.08,1,1,0,0,1,.057.156l.012.038.008.043c.006.023.01.047.015.072h0c.005.027.008.056.012.084a3.486,3.486,0,0,1,0,.67c-.006.073-.493.151-.757.153-2.4.011-4.8.007-7.2.007v-.006l-3.209,0c-.348,0-.7,0-1.044,0H6.426Q5.542,33.958,4.661,33.952ZM6.606,45.6c.311-.128.412-.405.428-.963,0-.05,0-.1,0-.159.006-2.236,0-4.472,0-6.71v-2.3h9.58v8.457c0,.277,0,.511.007.709.02.579.1.843.406.963Z"/>
      <path class="b" d="M22.427,45.594a.775.775,0,0,1-.083.037.166.166,0,0,0-.014-.037Z"/>
    </g>
  </g>
</svg>
