<svg xmlns="http://www.w3.org/2000/svg" viewBox="0 0 85.4 64.988">
  <title>Risorsa 13</title>
  <g>
    <path d="M78.616,30.557a5.755,5.755,0,0,1,3.72-3.524c.47-.123.524-.407.341-.861a4.056,4.056,0,0,0-1.535-1.787,1.155,1.155,0,0,1-.373-1.719,1.178,1.178,0,0,1,1.835-.234,5.573,5.573,0,0,1,2.713,4.689c.048,6.45.036,12.9.005,19.349A3.547,3.547,0,0,1,79.41,49.1c-.2-.166-.4-.343-.794-.688,0,.805.033,1.353-.008,1.9-.057.747.143,1.18,1,1.088,1.308-.14,1.779.579,1.749,1.776,0,.141,0,.282,0,.423.015,2.528.014,2.552,2.5,2.649,1.044.04,1.557.462,1.542,1.542q-.039,2.825,0,5.649c.016,1.055-.415,1.6-1.5,1.555-.282-.011-.565,0-.847,0H2.4c-2.374,0-2.389-.016-2.391-2.351,0-1.554.037-3.109-.011-4.661-.036-1.179.416-1.73,1.638-1.738,1.806-.013,1.806-.054,1.806-1.917q0-.706,0-1.412c0-.951.419-1.6,1.427-1.494,1.223.133,1.363-.454,1.36-1.474-.03-9.887-.019-19.774-.017-29.661,0-2.037.131-2.168,2.168-2.168q10.382,0,20.762,0c1.8,0,2.007.215,2.009,2.048,0,3.622,0,7.243.064,10.9a5.294,5.294,0,0,1,3.7-4.039c.481-.132.5-.479.312-.893a3.874,3.874,0,0,0-1.338-1.6c-.678-.474-1.151-1.068-.537-1.88.646-.853,1.363-.558,2.073-.022a5.561,5.561,0,0,1,2.44,4.549q.041,9.6,0,19.208a3.4,3.4,0,0,1-2.158,3.337c-1.713.744-3.1.129-4.376-1.238a4.735,4.735,0,0,0-.185,1.829c-.081.746.139,1.174,1,1.088,1.383-.139,1.792.621,1.8,1.882.013,2.977.044,2.9,3.007,3.008,1.4.05,1.8-.289,1.795-1.757q-.094-21.82,0-43.642c0-1.34-.4-1.6-1.651-1.6C26.55,9.33,16,9.311,5.458,9.309,3.452,9.309,3.2,9.053,3.2,7.031q-.006-2.4,0-4.8C3.2.232,3.437,0,5.489,0H49.556Q64.81,0,80.063,0c1.856,0,2.139.276,2.148,2.092q.012,2.542,0,5.085C82.2,9,81.9,9.308,80.082,9.308c-10.545,0-21.091.03-31.637-.031-1.4-.008-1.8.292-1.789,1.755q.093,21.821.015,43.642c0,1.156.155,1.668,1.506,1.612,2.72-.114,2.724-.025,2.731-2.743,0-1.927.01-1.966,1.9-2.141.6-.056.855-.259.832-.848-.015-.376,0-.753,0-1.129q0-14.407,0-28.813c0-2.461.047-2.5,2.562-2.5q10.1,0,20.2,0c2.031,0,2.212.176,2.214,2.148Q78.62,25.408,78.616,30.557Zm-49.8,5.325c0-4.661-.035-9.322.025-13.982.014-1.082-.318-1.335-1.357-1.326q-8.826.072-17.654,0c-.953-.006-1.294.221-1.29,1.241q.055,14.123,0,28.246c0,.987.294,1.29,1.278,1.283q8.826-.055,17.654,0c1.034.007,1.381-.269,1.368-1.346C28.782,45.3,28.814,40.59,28.814,35.882Zm27.2.145c0,4.657.032,9.315-.024,13.972-.013,1.066.31,1.36,1.355,1.352q8.82-.066,17.642,0c1.011.007,1.269-.343,1.266-1.306q-.043-14.109,0-28.218c0-1.009-.329-1.255-1.289-1.248-5.881.038-11.762.046-17.642-.006-1.061-.009-1.349.287-1.337,1.342C56.049,26.618,56.017,31.322,56.017,36.027ZM42.652,6.818h34.44c2.622,0,2.536,0,2.654-2.673.061-1.386-.358-1.69-1.7-1.687q-34.793.064-69.585.031c-2.769,0-2.693,0-2.794,2.821-.046,1.277.343,1.542,1.562,1.537C19.033,6.8,30.843,6.818,42.652,6.818ZM42.7,58.733q-19.416,0-38.833.007c-.452,0-1.143-.233-1.316.194a5.658,5.658,0,0,0-.09,3.185c.132.691.971.363,1.484.363q38.763.024,77.526.014a3.51,3.51,0,0,1,.423,0c.818.1,1.264-.176,1.151-1.082a3.5,3.5,0,0,1,0-.986c.219-1.333-.254-1.738-1.655-1.732C68.494,58.757,55.6,58.733,42.7,58.733Zm1.65-25.806c0-7.43-.038-14.86.034-22.289.014-1.385-.649-1.358-1.622-1.331-.951.027-1.748-.177-1.741,1.356q.1,22.077.01,44.156c-.006,1.453.665,1.414,1.691,1.425,1.06.011,1.685-.016,1.668-1.451C44.3,47.506,44.349,40.216,44.349,32.927ZM18.842,53.8v.026c-3.9,0-7.795.026-11.692-.022-.779-.01-1.263-.015-1.211.969.042.786-.082,1.445,1.114,1.411,2.863-.08,5.729-.025,8.594-.025,4.931,0,9.862-.03,14.793.02,1.175.011.933-.7.985-1.381.061-.791-.2-1.032-1.033-1.021C26.543,53.83,22.692,53.8,18.842,53.8Zm47.322-.007v.015c-3.906,0-7.812.028-11.717-.023-.806-.01-1.129.178-1.068,1,.051.682-.183,1.4.988,1.4q11.79-.054,23.581-.005c1.231,0,.834-.826.909-1.452.091-.754-.245-.948-.977-.942C73.975,53.812,70.069,53.794,66.164,53.794ZM31.159,35.136q0,3.163,0,6.328c0,.414-.095.887.359,1.135,1.44.786,1.718,2.1,1.721,3.581,0,.7.229,1.331,1.114,1.317s1.05-.586,1.046-1.335c-.015-2.72-.025-5.44.008-8.159.01-.747-.153-1.126-1-1.064A3.114,3.114,0,0,1,31.159,35.136Zm47.457-.227c0,2.51,0,4.525,0,6.54,0,.412-.106.891.338,1.146a3.519,3.519,0,0,1,1.69,3.587c-.029.717.275,1.315,1.128,1.312s1.084-.561,1.082-1.317c-.009-2.766-.013-5.532.006-8.3,0-.606-.1-.992-.833-.934A3.186,3.186,0,0,1,78.616,34.909Zm4.234-5.477c-2.033,1.068-1.619,2.756-1.691,4.278-.031.641.291.768.851.776s.86-.141.848-.77C82.833,32.368,82.85,31.02,82.85,29.432Zm-47.463.139c-1.356.695-2.241,3.668-1.515,4.676.275.381.683.186,1.034.214.367.03.48-.217.48-.532C35.389,32.5,35.387,31.073,35.387,29.571Z"/>
    <path d="M18.573,33.883c-2.3,0-4.607-.026-6.909.01-1.225.019-1.817-.432-1.8-1.731q.07-4.3,0-8.6c-.02-1.248.451-1.8,1.731-1.791q7.05.046,14.1,0c1.22-.007,1.813.408,1.787,1.725-.058,2.865-.065,5.734,0,8.6.033,1.389-.589,1.82-1.866,1.8C23.273,33.854,20.923,33.883,18.573,33.883Zm.141-2.511c1.784,0,3.568-.032,5.351.014.782.021,1.085-.215,1.062-1.028q-.073-2.533,0-5.069c.024-.821-.293-1.036-1.068-1.029q-5.423.048-10.844,0c-.717-.005-1,.216-.985.962q.062,2.6,0,5.21c-.019.76.284.962.992.948C15.052,31.348,16.883,31.371,18.714,31.372Z"/>
    <path d="M18.7,47.237a3.155,3.155,0,0,1-3.143-3.968,12.239,12.239,0,0,1,2.075-4.115,1.194,1.194,0,0,1,2.047-.043,10.467,10.467,0,0,1,2.178,4.509A3.118,3.118,0,0,1,18.7,47.237ZM18.647,42c-.34,1.143-1.253,1.761-.431,2.636a.605.605,0,0,0,.974-.043C19.9,43.7,19.075,43.109,18.647,42Z"/>
    <path d="M66.047,33.883c-2.3,0-4.611-.036-6.915.013-1.317.029-1.9-.524-1.891-1.835q.035-4.233,0-8.468c-.01-1.31.573-1.838,1.894-1.827q6.986.063,13.972,0c1.3-.009,1.88.458,1.849,1.825q-.1,4.232,0,8.467c.031,1.37-.565,1.849-1.853,1.83C70.752,33.858,68.4,33.883,66.047,33.883Zm.009-2.511c1.788,0,3.578-.054,5.363.021.964.041,1.207-.316,1.175-1.21-.057-1.6-.055-3.2,0-4.8.03-.857-.249-1.139-1.118-1.129q-5.363.061-10.726,0c-.9-.012-1.118.312-1.091,1.146.054,1.644.052,3.293,0,4.938-.024.793.224,1.072,1.034,1.049C62.48,31.336,64.269,31.372,66.056,31.372Z"/>
    <path d="M66.179,47.236a3.178,3.178,0,0,1-3.141-4.184,13.7,13.7,0,0,1,1.93-3.73,1.283,1.283,0,0,1,2.288-.025,13.792,13.792,0,0,1,1.911,3.585A3.224,3.224,0,0,1,66.179,47.236Zm-.122-4.828c-.193.755-1.278,1.345-.4,2.233a.615.615,0,0,0,.981-.055C67.369,43.686,66.5,43.112,66.057,42.408Z"/>
  </g>
</svg>
