<svg xmlns="http://www.w3.org/2000/svg" viewBox="0 0 179.932 89.966">
  <defs>
    <style>
      .a {
        fill: #fff;
      }

      .b {
        fill: #231f20;
      }

      .c, .d {
        fill: none;
      }

      .c, .d, .e {
        stroke: #231f20;
        stroke-miterlimit: 10;
      }

      .c {
        stroke-width: 2px;
      }

      .e {
        fill: #fff200;
      }
    </style>
  </defs>
  <title>stazioneinternazionale</title>
  <g>
    <g>
      <rect class="a" x="89.966" width="89.966" height="89.966"/>
      <rect class="a" width="89.966" height="89.966"/>
    </g>
    <g>
      <g>
        <g>
          <rect class="b" x="105.728" y="69.564" width="3.875" height="16.75"/>
          <rect class="b" x="99.659" y="69.564" width="3.875" height="16.75"/>
          <rect class="b" x="93.59" y="69.564" width="3.875" height="16.75"/>
          <rect class="b" x="87.52" y="69.564" width="3.875" height="16.75"/>
          <rect class="b" x="111.797" y="69.564" width="3.875" height="16.75"/>
          <rect class="b" x="117.867" y="69.564" width="3.875" height="16.75"/>
          <rect class="b" x="123.936" y="69.564" width="3.875" height="16.75"/>
          <rect class="b" x="130.005" y="69.564" width="3.875" height="16.75"/>
          <rect class="b" x="136.074" y="69.564" width="3.875" height="16.75"/>
          <rect class="b" x="142.144" y="69.564" width="3.875" height="16.75"/>
          <rect class="b" x="148.213" y="69.564" width="3.875" height="16.75"/>
          <rect class="b" x="154.282" y="69.564" width="3.875" height="16.75"/>
          <rect class="b" x="160.351" y="69.564" width="3.875" height="16.75"/>
          <rect class="b" x="166.421" y="69.564" width="3.875" height="16.75"/>
          <g>
            <rect class="b" x="85.327" y="82.502" width="86.785" height="1.625"/>
            <rect class="b" x="85.327" y="71.752" width="86.785" height="1.625"/>
          </g>
        </g>
        <g>
          <rect class="b" x="26.92" y="69.564" width="3.875" height="16.75"/>
          <rect class="b" x="20.851" y="69.564" width="3.875" height="16.75"/>
          <rect class="b" x="14.782" y="69.564" width="3.875" height="16.75"/>
          <rect class="b" x="8.712" y="69.564" width="3.875" height="16.75"/>
          <rect class="b" x="32.989" y="69.564" width="3.875" height="16.75"/>
          <rect class="b" x="39.059" y="69.564" width="3.875" height="16.75"/>
          <rect class="b" x="45.128" y="69.564" width="3.875" height="16.75"/>
          <rect class="b" x="51.197" y="69.564" width="3.875" height="16.75"/>
          <rect class="b" x="57.266" y="69.564" width="3.875" height="16.75"/>
          <rect class="b" x="63.336" y="69.564" width="3.875" height="16.75"/>
          <rect class="b" x="69.405" y="69.564" width="3.875" height="16.75"/>
          <rect class="b" x="75.474" y="69.564" width="3.875" height="16.75"/>
          <rect class="b" x="81.543" y="69.564" width="3.875" height="16.75"/>
          <rect class="b" x="87.613" y="69.564" width="3.875" height="16.75"/>
          <g>
            <rect class="b" x="6.518" y="82.502" width="86.785" height="1.625"/>
            <rect class="b" x="6.518" y="71.752" width="86.785" height="1.625"/>
          </g>
        </g>
      </g>
      <g>
        <path class="b" d="M96.237,26.421a7.008,7.008,0,0,0-1.646-3.058,5.831,5.831,0,0,0-.481-.489,7.071,7.071,0,0,0-4.825-1.834c-.165,0-.331.008-.488.023a7.113,7.113,0,0,0-4.75,2.3,5.6,5.6,0,0,0-.557.7,7.044,7.044,0,0,0-1.082,2.359,7.378,7.378,0,0,0-.218,1.789,6.4,6.4,0,0,0,.128,1.263,6.973,6.973,0,0,0,1.172,2.7c.091.121.181.241.271.354a6.541,6.541,0,0,0,.534.593,6.972,6.972,0,0,0,10.071,0,6.768,6.768,0,0,0,.526-.593,7.024,7.024,0,0,0,1.443-3.059,6.328,6.328,0,0,0,.127-1.248A7.163,7.163,0,0,0,96.237,26.421ZM94.411,28.2a3.874,3.874,0,0,1-.023.421c-.007.06-.007.127-.015.187-.015.128-.038.248-.06.369l-.068.293a2.532,2.532,0,0,1-.135.481v.007a.007.007,0,0,1-.007.008c-.038.113-.076.218-.121.323a4.71,4.71,0,0,1-.954,1.436,1.927,1.927,0,0,1-.173.165,3.906,3.906,0,0,1-.556.436,2.965,2.965,0,0,1-.331.2,2.737,2.737,0,0,1-.518.255,2.247,2.247,0,0,1-.241.1,2.3,2.3,0,0,1-.323.105.8.8,0,0,1-.188.045v.008c-.007.007-.007.007-.015,0a2.344,2.344,0,0,1-.331.075.173.173,0,0,1-.06.007,5.614,5.614,0,0,1-1.135.091,3.128,3.128,0,0,1-.458-.03l-.188-.023c-.083-.007-.165-.023-.248-.038a2.167,2.167,0,0,1-.3-.067c-.007.007-.007.007-.015,0-.052-.015-.112-.023-.173-.045-.015,0-.022-.008-.037-.015a.073.073,0,0,1-.053-.015.51.51,0,0,1-.135-.045,3.747,3.747,0,0,1-.692-.294,1.58,1.58,0,0,1-.195-.1c-.007,0-.007,0-.015-.007a2.71,2.71,0,0,1-.308-.2,1.615,1.615,0,0,1-.195-.15c-.1-.075-.188-.15-.279-.233a3.754,3.754,0,0,1-.5-.534,1.745,1.745,0,0,1-.143-.2,3.032,3.032,0,0,1-.361-.571,2.776,2.776,0,0,1-.127-.263.673.673,0,0,1-.068-.158c-.045-.113-.09-.226-.128-.346s-.083-.27-.12-.413a5.347,5.347,0,0,1-.18-1.5,3.171,3.171,0,0,1,.03-.466.3.3,0,0,1,.007-.075,1.749,1.749,0,0,1,.03-.188,2.884,2.884,0,0,1,.068-.368v-.008a2.226,2.226,0,0,1,.09-.33c.015-.045.023-.083.038-.121a4.321,4.321,0,0,1,.338-.766,3.772,3.772,0,0,1,.225-.376c.038-.053.075-.113.12-.173a3.67,3.67,0,0,1,.5-.578l.113-.113a3.174,3.174,0,0,1,.354-.3,4.021,4.021,0,0,1,.676-.436,2.341,2.341,0,0,1,.263-.135,1.875,1.875,0,0,1,.218-.1c.075-.03.15-.06.225-.082h.008l.007-.008a1.656,1.656,0,0,1,.271-.09,3.286,3.286,0,0,1,.391-.1,1.523,1.523,0,0,1,.188-.037H88.4a3.625,3.625,0,0,1,.4-.06c.2-.015.39-.023.593-.023a3.3,3.3,0,0,1,.384.023.391.391,0,0,1,.09.007c.128.015.255.03.383.053a1.543,1.543,0,0,1,.316.06,2.193,2.193,0,0,1,.3.075l.128.045a.653.653,0,0,1,.158.053,2.121,2.121,0,0,1,.3.12c.157.068.308.143.458.225a4.935,4.935,0,0,1,.421.271,4.394,4.394,0,0,1,.616.518.36.36,0,0,1,.075.076.372.372,0,0,1,.075.082c.091.1.173.2.256.3a3.621,3.621,0,0,1,.443.684,2.51,2.51,0,0,1,.158.331,3.494,3.494,0,0,1,.158.39.1.1,0,0,1,.023.06.031.031,0,0,1,.007.023,2.05,2.05,0,0,1,.09.316,2.967,2.967,0,0,1,.09.383c.023.12.038.24.053.368a.554.554,0,0,1,.015.12c.015.158.023.316.023.474Z"/>
        <path class="b" d="M94.358,38.386c-.023.714-.511.9-1.157.895-1.293-.015-2.586-.008-3.878-.008s-2.586-.007-3.878.008c-.639.007-1.128-.173-1.158-.895-.03-.774.459-1.014,1.158-1.007q3.878.012,7.756,0C93.9,37.372,94.388,37.612,94.358,38.386Z"/>
        <polyline class="c" points="88.751 24.167 88.796 24.543 89.022 26.422 89.33 28.999"/>
        <polyline class="c" points="89.33 28.999 91.45 27.722 92.254 27.233"/>
        <g>
          <polyline class="d" points="120.655 32.532 121.429 32.532 123.308 32.532 125.961 32.532 128.614 32.532 131.275 32.532 133.928 32.532 136.581 32.532 139.234 32.532 141.894 32.532 144.547 32.532 147.201 32.532 149.854 32.532 152.514 32.532 153.521 32.532"/>
          <polyline class="d" points="25.086 32.532 25.192 32.532 27.739 32.532 30.392 32.532 33.046 32.532 35.699 32.532 38.359 32.532 41.012 32.532 43.665 32.532 46.318 32.532 48.979 32.532 51.632 32.532 54.285 32.532 56.938 32.532 57.268 32.532"/>
          <polyline class="d" points="121.429 29.473 123.308 29.473 125.961 29.473 128.614 29.473 131.275 29.473 133.928 29.473 136.581 29.473 139.234 29.473 141.894 29.473 144.547 29.473 147.201 29.473 149.854 29.473 152.514 29.473 153.13 29.473"/>
          <line class="d" x1="62.251" y1="29.473" x2="62.116" y2="29.473"/>
          <polyline class="d" points="57.268 29.473 56.938 29.473 54.285 29.473 51.632 29.473 48.979 29.473 46.318 29.473 43.665 29.473 41.012 29.473 38.359 29.473 35.699 29.473 33.046 29.473 30.392 29.473 27.739 29.473 25.507 29.473"/>
          <polyline class="d" points="26.311 26.422 27.739 26.422 30.392 26.422 33.046 26.422 35.699 26.422 38.359 26.422 41.012 26.422 43.665 26.422 46.318 26.422 48.979 26.422 51.632 26.422 54.285 26.422 56.938 26.422 59.598 26.422 61.77 26.422 62.251 26.422 64.904 26.422 67.557 26.422 70.21 26.422 72.871 26.422 75.524 26.422 78.177 26.422 80.251 26.422"/>
          <polyline class="d" points="98.349 26.422 99.416 26.422 102.069 26.422 104.722 26.422 107.383 26.422 110.036 26.422 112.689 26.422 115.342 26.422 117.003 26.422 118.002 26.422 120.655 26.422 123.308 26.422 125.961 26.422 128.614 26.422 131.275 26.422 133.928 26.422 136.581 26.422 139.234 26.422 141.894 26.422 144.547 26.422 147.201 26.422 149.854 26.422 152.259 26.422"/>
          <polyline class="d" points="27.634 23.363 27.739 23.363 30.392 23.363 33.046 23.363 35.699 23.363 38.359 23.363 41.012 23.363 43.665 23.363 46.318 23.363 48.979 23.363 51.632 23.363 54.285 23.363 56.938 23.363 59.598 23.363 61.891 23.363 62.251 23.363 64.904 23.363 67.557 23.363 70.21 23.363 72.871 23.363 75.524 23.363 78.177 23.363 80.83 23.363 81.371 23.363"/>
          <polyline class="d" points="97.252 23.363 99.416 23.363 102.069 23.363 104.722 23.363 107.383 23.363 110.036 23.363 112.689 23.363 115.342 23.363 116.89 23.363 118.002 23.363 120.655 23.363 123.308 23.363 125.961 23.363 128.614 23.363 131.275 23.363 133.928 23.363 136.581 23.363 139.234 23.363 141.894 23.363 144.547 23.363 147.201 23.363 149.854 23.363 150.861 23.363"/>
          <polyline class="d" points="84.392 20.304 83.49 20.304 80.83 20.304 78.177 20.304 75.524 20.304 72.871 20.304 70.21 20.304 67.557 20.304 64.904 20.304 62.454 20.304 62.251 20.304 59.598 20.304 56.938 20.304 54.285 20.304 51.632 20.304 48.979 20.304 46.318 20.304 43.665 20.304 41.012 20.304 38.359 20.304 35.699 20.304 33.046 20.304 30.392 20.304 29.573 20.304"/>
          <polyline class="d" points="94.275 20.304 96.763 20.304 99.416 20.304 102.069 20.304 104.722 20.304 107.383 20.304 110.036 20.304 112.689 20.304 115.342 20.304 116.311 20.304 118.002 20.304 120.655 20.304 123.308 20.304 125.961 20.304 128.614 20.304 131.275 20.304 133.928 20.304 136.581 20.304 139.234 20.304 141.894 20.304 144.547 20.304 147.201 20.304 148.839 20.304"/>
          <polyline class="d" points="146.037 17.245 144.549 17.245 141.896 17.245 139.236 17.245 136.583 17.245 133.93 17.245 131.277 17.245 128.616 17.245 125.963 17.245 123.31 17.245 120.657 17.245 118.004 17.245 115.344 17.245 115.223 17.245 112.691 17.245 110.038 17.245 107.385 17.245 104.724 17.245 102.071 17.245 99.418 17.245 96.765 17.245 94.112 17.245 91.451 17.245 88.798 17.245 86.145 17.245 83.492 17.245 80.832 17.245 78.179 17.245 75.526 17.245 72.873 17.245 70.212 17.245 67.559 17.245 64.906 17.245 63.538 17.245 62.253 17.245 59.6 17.245 56.94 17.245 54.287 17.245 51.634 17.245 48.981 17.245 46.32 17.245 43.667 17.245 41.014 17.245 38.361 17.245 35.7 17.245 33.047 17.245 32.318 17.245"/>
          <polyline class="d" points="36.219 14.186 38.361 14.186 41.014 14.186 43.667 14.186 46.32 14.186 48.981 14.186 51.634 14.186 54.287 14.186 56.94 14.186 59.6 14.186 62.253 14.186 64.906 14.186 65.199 14.186 67.559 14.186 70.212 14.186 72.873 14.186 75.526 14.186 78.179 14.186 80.832 14.186 83.492 14.186 86.145 14.186 88.798 14.186 91.451 14.186 94.112 14.186 96.765 14.186 99.418 14.186 102.071 14.186 104.724 14.186 107.385 14.186 110.038 14.186 112.691 14.186 113.57 14.186 115.344 14.186 118.004 14.186 120.657 14.186 123.31 14.186 125.963 14.186 128.616 14.186 131.277 14.186 133.93 14.186 136.583 14.186 139.236 14.186 141.896 14.186 142.069 14.186"/>
          <polyline class="d" points="63.072 11.127 62.253 11.127 59.6 11.127 56.94 11.127 54.287 11.127 51.634 11.127 48.981 11.127 46.32 11.127 43.667 11.127 42.555 11.127"/>
          <polyline class="d" points="67.559 11.127 70.212 11.127 72.873 11.127 75.526 11.127 78.179 11.127 80.832 11.127 83.492 11.127 86.145 11.127 88.798 11.127 91.451 11.127 94.112 11.127 96.765 11.127 99.418 11.127 102.071 11.127 104.724 11.127 107.385 11.127 110.038 11.127 111.218 11.127"/>
          <polyline class="d" points="135.681 11.127 133.93 11.127 131.277 11.127 128.616 11.127 125.963 11.127 123.31 11.127 120.657 11.127 118.004 11.127 115.344 11.127 115.096 11.127"/>
          <polyline class="d" points="107.918 8.076 107.385 8.076 104.724 8.076 102.071 8.076 99.418 8.076 96.765 8.076 94.112 8.076 91.451 8.076 88.798 8.076 86.145 8.076 83.492 8.076 80.832 8.076 78.179 8.076 75.526 8.076 72.873 8.076 70.859 8.076 70.212 8.076"/>
          <polyline class="d" points="75.526 5.017 75.804 5.017 78.179 5.017 80.832 5.017 83.492 5.017 86.145 5.017 88.798 5.017 91.451 5.017 94.112 5.017 96.765 5.017 99.418 5.017 102.071 5.017 102.988 5.017"/>
          <polyline class="d" points="27.741 23.175 27.741 23.363 27.741 26.422 27.741 29.473 27.741 32.532 27.741 33.125"/>
          <polyline class="d" points="30.394 19.289 30.394 20.304 30.394 23.363 30.394 26.422 30.394 29.473 30.394 32.532 30.394 33.125"/>
          <polyline class="d" points="46.32 33.125 46.32 32.532 46.32 29.473 46.32 26.422 46.32 23.363 46.32 20.304 46.32 17.245 46.32 14.186 46.32 11.127 46.32 10.098"/>
          <polyline class="d" points="35.7 14.532 35.7 17.245 35.7 20.304 35.7 23.363 35.7 26.422 35.7 29.473 35.7 32.532 35.7 33.125"/>
          <polyline class="d" points="38.361 12.931 38.361 14.186 38.361 17.245 38.361 20.304 38.361 23.363 38.361 26.422 38.361 29.473 38.361 32.532 38.361 33.125"/>
          <polyline class="d" points="43.667 33.125 43.667 32.532 43.667 29.473 43.667 26.422 43.667 23.363 43.667 20.304 43.667 17.245 43.667 14.186 43.667 11.127 43.667 10.766"/>
          <polyline class="d" points="33.047 16.576 33.047 17.245 33.047 20.304 33.047 23.363 33.047 26.422 33.047 29.473 33.047 32.532 33.047 33.125"/>
          <polyline class="d" points="41.014 33.125 41.014 32.532 41.014 29.473 41.014 26.422 41.014 23.363 41.014 20.304 41.014 17.245 41.014 14.186 41.014 11.698"/>
          <polyline class="d" points="59.598 29.473 59.598 29.18 59.598 26.422 59.598 23.363 59.598 20.304 59.598 17.245 59.598 14.186 59.598 11.127 59.598 10.158"/>
          <polyline class="d" points="48.981 9.662 48.981 11.127 48.981 14.186 48.981 17.245 48.981 20.304 48.981 23.363 48.981 26.422 48.981 29.473 48.981 32.532 48.981 33.125"/>
          <polyline class="d" points="51.634 33.125 51.634 32.532 51.634 29.473 51.634 26.422 51.634 23.363 51.634 20.304 51.634 17.245 51.634 14.186 51.634 11.127 51.634 9.459"/>
          <polyline class="d" points="56.94 33.125 56.94 32.532 56.94 29.473 56.94 26.422 56.94 23.363 56.94 20.304 56.94 17.245 56.94 14.186 56.94 11.127 56.94 9.699"/>
          <polyline class="d" points="54.287 33.125 54.287 32.532 54.287 29.473 54.287 26.422 54.287 23.363 54.287 20.304 54.287 17.245 54.287 14.186 54.287 11.127 54.287 9.474"/>
          <polyline class="d" points="62.251 29.473 62.251 29.18 62.251 26.422 62.251 23.363 62.251 21.161 62.251 20.304 62.251 17.245 62.251 14.186 62.251 11.127 62.251 10.857"/>
          <polyline class="d" points="78.177 3.995 78.177 5.017 78.177 8.076 78.177 11.127 78.177 14.186 78.177 17.245 78.177 20.304 78.177 23.363 78.177 26.422 78.177 29.473"/>
          <polyline class="d" points="67.557 29.473 67.557 26.422 67.557 23.363 67.557 20.304 67.557 17.245 67.557 14.186 67.557 11.127"/>
          <polyline class="d" points="70.21 29.473 70.21 26.422 70.21 23.363 70.21 20.304 70.21 17.245 70.21 14.186 70.21 11.127 70.21 8.587 70.21 8.076"/>
          <polyline class="d" points="75.524 5.017 75.524 5.152 75.524 8.076 75.524 11.127 75.524 14.186 75.524 17.245 75.524 20.304 75.524 23.363 75.524 26.422 75.524 29.473"/>
          <polyline class="d" points="64.904 11.819 64.904 14.186 64.904 14.644 64.904 17.245 64.904 20.304 64.904 23.363 64.904 26.422 64.904 29.18 64.904 29.473"/>
          <polyline class="d" points="72.871 29.473 72.871 26.422 72.871 23.363 72.871 20.304 72.871 17.245 72.871 14.186 72.871 11.127 72.871 8.076 72.871 6.655"/>
          <polyline class="d" points="91.45 19.184 91.45 17.245 91.45 14.186 91.45 11.127 91.45 8.076 91.45 5.017 91.45 2.026"/>
          <polyline class="d" points="80.83 24.452 80.83 23.363 80.83 20.304 80.83 17.245 80.83 14.186 80.83 11.127 80.83 8.076 80.83 5.017 80.83 3.116"/>
          <polyline class="d" points="83.49 2.499 83.49 5.017 83.49 8.076 83.49 11.127 83.49 14.186 83.49 17.245 83.49 20.304 83.49 20.92"/>
          <polyline class="d" points="88.796 1.958 88.796 1.966 88.796 5.017 88.796 8.076 88.796 11.127 88.796 14.186 88.796 17.245 88.796 18.989"/>
          <polyline class="d" points="86.143 2.123 86.143 5.017 86.143 8.076 86.143 11.127 86.143 14.186 86.143 17.245 86.143 19.492"/>
          <polyline class="d" points="94.11 2.304 94.11 5.017 94.11 8.076 94.11 11.127 94.11 14.186 94.11 17.245 94.11 20.206"/>
          <polyline class="d" points="104.722 5.934 104.722 8.076 104.722 11.127 104.722 14.186 104.722 17.245 104.722 20.304 104.722 23.363 104.722 26.422 104.722 29.473"/>
          <polyline class="d" points="96.763 22.596 96.763 20.304 96.763 17.245 96.763 14.186 96.763 11.127 96.763 8.076 96.763 5.017 96.763 2.807"/>
          <polyline class="d" points="99.416 3.566 99.416 5.017 99.416 8.076 99.416 11.127 99.416 14.186 99.416 17.245 99.416 20.304 99.416 23.363 99.416 26.422 99.416 29.473"/>
          <polyline class="d" points="102.069 4.589 102.069 5.017 102.069 8.076 102.069 11.127 102.069 14.186 102.069 17.245 102.069 20.304 102.069 23.363 102.069 26.422 102.069 29.473"/>
          <polyline class="d" points="107.383 7.67 107.383 8.076 107.383 11.127 107.383 14.186 107.383 17.245 107.383 20.304 107.383 23.363 107.383 26.422 107.383 29.473"/>
          <polyline class="d" points="110.036 9.91 110.036 11.127 110.036 14.186 110.036 17.245 110.036 20.304 110.036 23.363 110.036 26.422 110.036 29.473"/>
          <polyline class="d" points="120.655 29.473 120.655 29.18 120.655 26.422 120.655 23.363 120.655 20.304 120.655 17.245 120.655 14.186 120.655 11.127 120.655 9.759"/>
          <polyline class="d" points="112.689 29.473 112.689 29.187 112.689 26.422 112.689 23.363 112.689 20.304 112.689 17.245 112.689 14.186 112.689 12.916 112.689 12.082"/>
          <polyline class="d" points="115.342 29.473 115.342 26.422 115.342 23.363 115.342 20.304 115.342 17.523 115.342 17.245 115.342 14.186 115.342 11.127 115.342 11.037"/>
          <polyline class="d" points="118.002 29.473 118.002 29.18 118.002 26.422 118.002 23.363 118.002 20.304 118.002 17.245 118.002 14.186 118.002 11.127 118.002 10.27"/>
          <polyline class="d" points="123.31 9.474 123.31 11.127 123.31 14.186 123.31 17.245 123.31 20.304 123.31 23.363 123.31 26.422 123.31 29.473 123.31 32.532 123.31 33.125"/>
          <polyline class="d" points="125.963 33.125 125.963 32.532 125.963 29.473 125.963 26.422 125.963 23.363 125.963 20.304 125.963 17.245 125.963 14.186 125.963 11.127 125.963 9.429"/>
          <polyline class="d" points="139.236 12.6 139.236 14.186 139.236 17.245 139.236 20.304 139.236 23.363 139.236 26.422 139.236 29.473 139.236 32.532 139.236 33.125"/>
          <polyline class="d" points="128.616 9.586 128.616 11.127 128.616 14.186 128.616 17.245 128.616 20.304 128.616 23.363 128.616 26.422 128.616 29.473 128.616 32.532 128.616 33.125"/>
          <polyline class="d" points="131.277 9.97 131.277 11.127 131.277 14.186 131.277 17.245 131.277 20.304 131.277 23.363 131.277 26.422 131.277 29.473 131.277 32.532 131.277 33.125"/>
          <polyline class="d" points="136.583 33.125 136.583 32.532 136.583 29.473 136.583 26.422 136.583 23.363 136.583 20.304 136.583 17.245 136.583 14.186 136.583 11.443"/>
          <polyline class="d" points="144.549 15.967 144.549 17.245 144.549 20.304 144.549 23.363 144.549 26.422 144.549 29.473 144.549 32.532 144.549 33.125"/>
          <polyline class="d" points="152.516 33.125 152.516 32.532 152.516 29.473 152.516 27.166"/>
          <polyline class="d" points="133.93 10.586 133.93 11.127 133.93 14.186 133.93 17.245 133.93 20.304 133.93 23.363 133.93 26.422 133.93 29.473 133.93 32.532 133.93 33.125"/>
          <polyline class="d" points="141.896 14.081 141.896 14.186 141.896 17.245 141.896 20.304 141.896 23.363 141.896 26.422 141.896 29.473 141.896 32.532 141.896 33.125"/>
          <polyline class="d" points="147.202 33.125 147.202 32.532 147.202 29.473 147.202 26.422 147.202 23.363 147.202 20.304 147.202 18.402"/>
          <polyline class="d" points="149.855 21.724 149.855 23.363 149.855 26.422 149.855 29.473 149.855 32.532 149.855 33.125"/>
          <path class="c" d="M66.4,12.5c-.429.549-.834,1.112-1.2,1.691-.105.15-.2.308-.293.459a21.73,21.73,0,0,0-1.15,2.134c-.067.143-.135.278-.2.421l-.023.045c-.135.316-.27.639-.39.962-.075.18-.143.368-.2.549-.188.511-.346,1.029-.489,1.548q-.113.427-.2.857a15.339,15.339,0,0,0-.293,1.645c-.03.188-.052.369-.067.557a.043.043,0,0,0-.008.052,3.383,3.383,0,0,0-.045.4c-.008.09-.015.172-.015.255-.023.218-.038.444-.045.661-.015.3-.023.609-.023.91,0,.263.008.518.015.781a.289.289,0,0,0,.008.083,1.317,1.317,0,0,0,.007.166c.023.563.075,1.119.151,1.668.015.128.03.248.052.376.023.158.053.315.075.466.015.1.038.2.053.293H57.268v3.652H25.184c0-.2,0-.4.008-.593a20.617,20.617,0,0,1,.315-3.059,21.41,21.41,0,0,1,.8-3.052,21.661,21.661,0,0,1,1.323-3.058c.038-.061.068-.128.106-.188A22.526,22.526,0,0,1,29.573,20.3c.263-.346.534-.684.819-1.015a23.6,23.6,0,0,1,1.924-2.044c.241-.233.482-.451.73-.669A25.517,25.517,0,0,1,35.7,14.532c.166-.12.339-.233.519-.346.692-.443,1.406-.864,2.142-1.255.857-.451,1.744-.864,2.653-1.233.5-.2,1.022-.4,1.541-.571.368-.128.736-.248,1.112-.361.864-.263,1.751-.488,2.653-.668.872-.181,1.759-.331,2.661-.436.871-.106,1.758-.173,2.653-.2.391-.015.781-.023,1.18-.023.5,0,.984.008,1.473.038.894.037,1.781.112,2.653.225.9.113,1.788.271,2.66.459.9.2,1.789.428,2.653.7.278.09.549.172.82.27.623.211,1.232.444,1.833.692C65.408,12.037,65.911,12.262,66.4,12.5Z"/>
          <path class="c" d="M153.544,33.125H121.429V29.473h-4.772c.015-.1.037-.2.053-.293.022-.158.052-.308.075-.466.022-.136.037-.271.06-.406.022-.2.045-.4.067-.6.046-.429.076-.85.091-1.286.007-.263.015-.518.015-.781q0-.462-.023-.925c-.007-.225-.022-.45-.045-.668,0-.031-.007-.053-.007-.083-.008-.2-.031-.4-.053-.6-.008-.045-.008-.1-.015-.143-.023-.165-.038-.323-.06-.489s-.053-.308-.075-.466c-.023-.135-.046-.278-.076-.421-.1-.518-.217-1.029-.353-1.54-.075-.271-.15-.534-.233-.8-.052-.173-.112-.353-.173-.533a.633.633,0,0,0-.045-.113c-.067-.218-.15-.436-.24-.654-.083-.233-.173-.459-.278-.684a1.719,1.719,0,0,0-.121-.278.428.428,0,0,1-.037-.09c-.105-.233-.218-.466-.331-.7-.1-.211-.2-.414-.315-.624-.061-.12-.128-.241-.2-.361-.12-.218-.24-.428-.368-.639s-.263-.428-.4-.638a.008.008,0,0,1-.008-.008c-.1-.15-.195-.3-.293-.443-.105-.158-.211-.316-.323-.466-.083-.121-.173-.241-.263-.361-.151-.211-.308-.413-.474-.616.158-.076.316-.151.474-.218.781-.354,1.585-.677,2.405-.955.082-.037.165-.06.248-.09q1.3-.44,2.66-.767c.865-.21,1.751-.383,2.653-.511.872-.135,1.759-.225,2.653-.285.872-.053,1.759-.068,2.653-.045.541.007,1.083.03,1.631.067.346.023.684.053,1.022.09q1.353.136,2.661.384c.9.165,1.789.368,2.653.616.594.158,1.18.338,1.751.541.308.1.6.2.9.316.909.346,1.8.729,2.653,1.157a25.507,25.507,0,0,1,2.66,1.481.784.784,0,0,1,.173.105,25.472,25.472,0,0,1,2.48,1.781c.519.406,1.015.834,1.489,1.278.405.376.8.759,1.165,1.157a22.97,22.97,0,0,1,1.638,1.9q.541.7,1.015,1.42c.36.534.7,1.082,1.007,1.639a22.913,22.913,0,0,1,1.4,3.058c.09.249.172.489.255.745a21.568,21.568,0,0,1,.616,2.307,20.534,20.534,0,0,1,.391,3.059C153.529,32.727,153.536,32.93,153.544,33.125Z"/>
          <path class="c" d="M117.018,25.64c0,.263-.008.518-.015.781-.015.436-.045.857-.091,1.286-.022.2-.045.4-.067.6-.023.135-.038.27-.06.406-.023.158-.053.308-.075.466-.016.1-.038.2-.053.293H98.567v-.692a14.8,14.8,0,0,0-.173-2.081c-.015-.1-.03-.188-.045-.279a2.444,2.444,0,0,0-.053-.255,1.964,1.964,0,0,0-.067-.3,1.779,1.779,0,0,0-.068-.27,3.454,3.454,0,0,0-.113-.4c-.037-.135-.082-.255-.128-.383a4.04,4.04,0,0,0-.15-.383,3.159,3.159,0,0,0-.158-.368c-.052-.121-.112-.241-.172-.354s-.121-.233-.188-.345-.106-.2-.166-.286l-.158-.248c-.06-.075-.112-.158-.165-.233-.173-.233-.353-.458-.541-.669-.083-.1-.173-.188-.256-.278A8.58,8.58,0,0,0,94.275,20.3a1.122,1.122,0,0,0-.165-.1c-.2-.12-.413-.233-.624-.331a6.932,6.932,0,0,0-.639-.278c-.015-.007-.03-.007-.045-.015-.2-.075-.39-.143-.593-.2a.219.219,0,0,0-.053-.015c-.233-.067-.466-.127-.706-.18-.286-.06-.579-.113-.88-.15-.12-.015-.233-.023-.353-.03l-.308-.023c-.165-.007-.331-.015-.5-.015-.181,0-.361.008-.549.015a.193.193,0,0,0-.067.008c-.211.015-.421.03-.632.052a.554.554,0,0,0-.105.015c-.2.023-.406.06-.609.09a.042.042,0,0,1-.03.008c-.188.037-.376.083-.564.128a6.932,6.932,0,0,0-.713.21,8.054,8.054,0,0,0-.835.331c-.135.06-.263.12-.391.188-.105.052-.21.105-.308.165a2.225,2.225,0,0,0-.218.128,3.931,3.931,0,0,0-.466.3c-.127.083-.255.181-.375.271a.46.46,0,0,0-.061.045,8.093,8.093,0,0,0-1.435,1.436c-.083.1-.165.21-.241.323a5.881,5.881,0,0,0-.443.684,7.36,7.36,0,0,0-.541,1.089,4.3,4.3,0,0,0-.18.474,4.918,4.918,0,0,0-.158.481c-.053.165-.09.331-.135.5s-.076.339-.106.511c-.022.143-.052.286-.067.436-.023.173-.045.346-.061.526-.022.279-.037.564-.037.85,0,.315-.008.631,0,.947v.293H62.251s-.1.21-.135,0c-.015-.1-.038-.2-.053-.293-.022-.151-.052-.308-.075-.466-.022-.128-.037-.248-.052-.376-.076-.549-.128-1.105-.151-1.668a1.317,1.317,0,0,1-.007-.166.289.289,0,0,1-.008-.083c-.007-.263-.015-.518-.015-.781,0-.3.008-.609.023-.91.007-.217.022-.443.045-.661,0-.083.007-.165.015-.255a3.383,3.383,0,0,1,.045-.4.043.043,0,0,1,.008-.052c.015-.188.037-.369.067-.557a15.339,15.339,0,0,1,.293-1.645q.09-.429.2-.857c.143-.519.3-1.037.489-1.548.06-.181.128-.369.2-.549.12-.323.255-.646.39-.962l.023-.045c.06-.143.128-.278.2-.421a21.73,21.73,0,0,1,1.15-2.134c.09-.151.188-.309.293-.459.369-.579.774-1.142,1.2-1.691.368-.466.751-.924,1.157-1.368a25.039,25.039,0,0,1,2.653-2.54c.211-.173.429-.346.647-.511a24.235,24.235,0,0,1,2.014-1.421,27.627,27.627,0,0,1,2.653-1.5c.09-.045.18-.09.278-.135A24.676,24.676,0,0,1,78.177,4a27.023,27.023,0,0,1,2.653-.88c.872-.24,1.759-.45,2.66-.616.872-.165,1.759-.293,2.654-.376.871-.09,1.758-.142,2.653-.157.2-.008.39-.008.586-.008.7,0,1.383.023,2.067.068.9.052,1.788.15,2.66.278.9.128,1.789.3,2.653.5.9.218,1.789.466,2.653.759.91.3,1.8.647,2.653,1.023.308.142.616.285.917.428.594.286,1.172.594,1.736.917a27.7,27.7,0,0,1,2.661,1.736c.18.135.36.271.533.406a24.947,24.947,0,0,1,2.12,1.834c.413.39.8.8,1.18,1.217.345.383.684.774,1,1.173.166.2.323.4.474.616.09.12.18.24.263.361.112.15.218.308.323.466.1.142.195.293.293.443a.008.008,0,0,0,.008.008c.135.21.27.42.4.638s.248.421.368.639c.068.12.135.241.2.361.112.21.217.413.315.624.113.233.226.466.331.7a.428.428,0,0,0,.037.09,1.719,1.719,0,0,1,.121.278c.1.225.188.451.278.684.09.218.173.436.24.654a.633.633,0,0,1,.045.113c.061.18.121.36.173.533.083.263.158.526.233.8.136.511.256,1.022.353,1.54.03.143.053.286.076.421.022.158.052.308.075.466s.037.324.06.489c.007.045.007.1.015.143.022.2.045.4.053.6,0,.03.007.052.007.083.023.218.038.443.045.668Q117.018,25.179,117.018,25.64Z"/>
        </g>
        <path class="e" d="M80.086,29.18v.293H62.251s-.1.21-.135,0H57.268V29.18Z"/>
        <rect class="e" x="98.567" y="29.18" width="22.863" height="0.293"/>
        <path class="c" d="M153.521,33.125V64.932H25.184V33.125H57.268V29.473h4.848c.038.21.135,0,.135,0H80.086V29.18c-.008-.316,0-.632,0-.947,0-.286.015-.571.037-.85.016-.18.038-.353.061-.526.015-.15.045-.293.067-.436.03-.172.068-.345.106-.511s.082-.338.135-.5a4.918,4.918,0,0,1,.158-.481,4.3,4.3,0,0,1,.18-.474,7.36,7.36,0,0,1,.541-1.089,5.881,5.881,0,0,1,.443-.684c.076-.113.158-.218.241-.323A8.093,8.093,0,0,1,83.49,20.92a.46.46,0,0,1,.061-.045c.12-.09.248-.188.375-.271a3.931,3.931,0,0,1,.466-.3,2.225,2.225,0,0,1,.218-.128c.1-.06.2-.113.308-.165.128-.068.256-.128.391-.188a8.054,8.054,0,0,1,.835-.331,6.932,6.932,0,0,1,.713-.21c.188-.045.376-.091.564-.128a.042.042,0,0,0,.03-.008c.2-.03.406-.067.609-.09a.554.554,0,0,1,.105-.015c.211-.022.421-.037.632-.052a.193.193,0,0,1,.067-.008c.188-.007.368-.015.549-.015.165,0,.331.008.5.015l.308.023c.12.007.233.015.353.03.3.037.594.09.88.15.24.053.473.113.706.18a.219.219,0,0,1,.053.015c.2.06.4.128.593.2.015.008.03.008.045.015a6.932,6.932,0,0,1,.639.278c.211.1.421.211.624.331a1.122,1.122,0,0,1,.165.1,8.58,8.58,0,0,1,1.691,1.345c.083.09.173.18.256.278.188.211.368.436.541.669.053.075.1.158.165.233l.158.248c.06.09.113.188.166.286s.127.225.188.345.12.233.172.354a3.159,3.159,0,0,1,.158.368,4.04,4.04,0,0,1,.15.383c.046.128.091.248.128.383a3.454,3.454,0,0,1,.113.4,1.779,1.779,0,0,1,.068.27,1.964,1.964,0,0,1,.067.3,2.444,2.444,0,0,1,.053.255c.015.091.03.181.045.279a14.8,14.8,0,0,1,.173,2.081v.692h22.862v3.652Z"/>
        <path class="c" d="M98.524,64.894v.038H80.171v-.015c-.022-4.48-.015-8.982-.007-13.468v-.113c0-.083,0-.158.007-.226a.035.035,0,0,1,0-.037c0-.06.008-.12.008-.173a8.885,8.885,0,0,1,9.086-8.3,9.537,9.537,0,0,1,2.871.436c.128.045.256.082.383.127q.294.1.564.226a8.776,8.776,0,0,1,5.329,6.6c.03.187.06.338.075.511.007.052.015.112.022.172a.123.123,0,0,1,.008.053c.007.105.015.226.015.368a2.417,2.417,0,0,1,.008.248C98.547,55.86,98.562,60.377,98.524,64.894Z"/>
        <g>
          <g>
            <path class="c" d="M41.681,51.749V64.631H31.3V51.749A5.38,5.38,0,0,1,36.488,46.2,5.382,5.382,0,0,1,41.681,51.749Z"/>
            <path class="c" d="M72.619,51.753V64.634H62.24V51.753a5.2,5.2,0,1,1,10.379,0Z"/>
            <path class="c" d="M57.15,51.749V64.631H46.771V51.749a5.2,5.2,0,1,1,10.379,0Z"/>
          </g>
          <g>
            <path class="c" d="M116.465,51.749V64.631H106.086V51.749a5.2,5.2,0,1,1,10.379,0Z"/>
            <path class="c" d="M147.4,51.753V64.634H137.024V51.753a5.2,5.2,0,1,1,10.379,0Z"/>
            <path class="c" d="M131.934,51.749V64.631H121.555V51.749a5.2,5.2,0,1,1,10.379,0Z"/>
          </g>
        </g>
      </g>
    </g>
  </g>
</svg>
